<svg id="Calque_1" data-name="Calque 1" xmlns="http://www.w3.org/2000/svg" viewBox="0 0 554.72 558.89"><defs><style>.cls-1{fill:#d5ccbf;}.cls-2{fill:#211413;}.cls-3{fill:#dfd7cb;}.cls-4{fill:#d9d1c5;}.cls-5{fill:#b55d20;}.cls-6{fill:#f2a132;}.cls-7{fill:#fcbb57;}.cls-8{fill:#fdca7a;}.cls-9{fill:#fcf9eb;}.cls-10{fill:#e8d5b7;}.cls-11{fill:#e9e0d2;}.cls-12{fill:#ca7629;}.cls-13{fill:#a89e94;}.cls-14{fill:#df8e31;}.cls-15{fill:#fbb23d;}.cls-16{fill:#e3dbcf;}</style></defs><path class="cls-1" d="M1299.74,815.38c-4.12,0-8.25,0-12.38,0-1.76,0-3.48-.47-3.3-2.7.14-1.88,1.74-2.22,3.3-2.23,4.13,0,8.26,0,12.38,0Z" transform="translate(-745.02 -256.49)"/><path class="cls-2" d="M805.54,301.89a10.32,10.32,0,0,1,2.57-1.84c7.44-1.76,9.84-7.55,11.65-13.95,2.76-9.72,9-16.28,18.72-18.89,5.48-1.47,11.27-1.83,16.93-2.67,1.92-.29,3.88-.35,5.82-.6,6.14-.82,11.54-3.59,17.29-5.44,13.19-4.25,25.69-1.48,37.33,5.72,4.6,3,9.18,2.4,14.06.45,3.49-1.4,7.31-2,11-2.94l4.93-.16c5.29.78,10.62,1.76,15.35,4.22,5.11,2.66,9.8,2.28,14.67-.16l1-.14,2-.06a2,2,0,0,0,2.2-.4l7.79-.36,6,.76,2,.27c4.63,1.7,9.69,2.76,13.46,6,4.95,4.22,10.66,4.56,16.58,4.75a18.65,18.65,0,0,0,3.84.76c5.68-.08,11.12,3.7,16.94,1,10.17-1.13,20.21-1.2,29.9,2.92a22.82,22.82,0,0,0,13.92,1.72,24.78,24.78,0,0,1,19,4c2.25,1.47,3.14,4.28,5.16,5.71,14.25,10.13,17.85,23.3,8.68,37.59-4.94,7.69-5.72,14.86-2.67,23,1.28,3.42,2.2,7,3.73,10.29,10.54,22.56,22,44.69,30.4,68.2,3.13,11.72,6.47,23.38,8.37,35.39,1,6.46,1.05,13,1.86,19.46a174.92,174.92,0,0,1,1.71,20.18c.42,41-10.83,78.76-31.25,114.1-12.76,22.09-29.37,41.11-46.52,59.74-4.18,4.54-8.34,9.08-11.62,14.33-7.29,11.7-5.78,23.82,3.92,33.52,7.14,7.13,16,12.72,20.68,22.12,4,15-4.89,21.51-19.3,24-1.94.34-4,0-5.79,1.09l-28,.6a12.6,12.6,0,0,0-6,.07,24.87,24.87,0,0,0-9,0q-44,.29-88,.35-49.56.08-99.12-.12c-5.13-1.75-10.48-1.78-15.8-1.87a35.83,35.83,0,0,1-12-2.47c-7.15-2.67-9.88-8.76-11.17-15.73.55-5.4,3.26-9.74,6.86-13.54,5-5.3,10.49-10.24,15.33-15.71,10-11.23,10.65-23.52,2.32-36a42,42,0,0,0-5-6.19c-9.25-9.34-18.39-18.77-27.08-28.64-1.72-2-4.17-3.26-5.16-5.86a238.28,238.28,0,0,1-34.91-58,10.52,10.52,0,0,0-2-5c-3.7-11.93-8.59-23.66-10.76-35.87a221.43,221.43,0,0,1-3.27-42.8c.73-40,11.36-77.41,29.11-113.08,6.05-12.14,13.09-23.81,17.91-36.56,1.82-4.83,2.51-8.93.45-14.48-2.22-6-.65-22.58-.5-24m283.85,349.85,0,.1c4.32-1.31,6.73-4.84,9.42-8l5.53-6.18c1.84-.35,2.57-2,3.66-3.21,14.73-16,26.43-34.12,36.3-53.44,3.15-6.19,6.49-12.32,8-19.22.66-1.18,1.68-2.25,1.22-3.79l.72-1.1.15-1c3.89-9,6-18.51,7.92-28.07,2.66-13.46,2.9-27.15,3.57-40.77.34-6.88.37-13.89-1.32-20.71-.1-13.92-4.07-27.1-7.93-40.27-6.9-23.53-16.92-45.79-27.93-67.63-.69-1.36-1.22-2.89-3.21-2.38-9.52,2.41-19.08-.45-28.75.51-23,2.29-46.22,2.11-69.36,2.65a69.35,69.35,0,0,0-15.64.44l-11.69,0c-.29-.15-.57-.43-.86-.44-23.4-.46-46.81-.72-70.22-.36a103.47,103.47,0,0,0-16.42-.1l-23.8-.31c-18.29-1.22-36.61-.54-54.92-.68-5.55-1.4-11.23-.7-16.85-1a3.35,3.35,0,0,0-3.25,1.92c-2,3.63-4.4,7-5.33,11.15v0c-3.46,4.62-5.38,10-7.93,15.13A68.3,68.3,0,0,0,780.82,418a57.73,57.73,0,0,0-6.05,15.61l.06.38a36.2,36.2,0,0,0-3.39,10,11.77,11.77,0,0,0-1.12,2.21c-7.79,28.19-11,56.78-7.46,85.95,4.22,35.29,15,68,36.65,96.77,20.27,26.84,44.22,49.1,74.74,64,25,12.17,51.42,17.75,78.86,19.33a191,191,0,0,0,79.18-12.4c13.51-5.11,26.4-11.61,36.79-22.1C1071.27,675.22,1075.61,674.74,1075.88,670.45Zm-23.13,45c-.1-2.3-.35-4.6-.26-6.89.13-2.93-.83-3.31-3.4-2.16-5.7,2.54-11.51,4.84-17.28,7.23L1015,718.85l-11.11,2.78a290.54,290.54,0,0,1-34.69,3.88c-20.4.76-40.49-1.63-60.37-6l-21.41-6.45c-2.73-1.29-5.41-2.73-8.55-2.77l.06.13-1.16-1.08a7.47,7.47,0,0,0-4-1.63l-1.86-.83-14-5.65c1.44,5.19-.17,9.54-.11,14a27,27,0,0,1-7.45,19c-3.49,3.78-7.53,7-11.36,10.5-3.45,3.11-7.38,5.73-10.09,9.6-1,1.46-2.58,3.06-1.74,4.91s3,1.09,4.54,1.11c12.32.19,24.65.24,37,.36,8.3.09,16.6.81,24.9,0,9.14.38,18.28,1,27.41-.21,1.32.11,2.64.31,4,.32,22.49.06,45,.18,67.47.12q42.48-.12,85-.56c2.59,0,6.5,1,7.49-2.37.81-2.78-1.86-5.14-3.87-7.12s-4.38-4.07-6.67-6c-4.2-3.54-8.45-7-12.68-10.49A37.73,37.73,0,0,1,1052.75,715.45Zm54.11-385.85c2.6-3.34,5.86-6.31,6.09-11,2.55-9.67-.26-15.68-9.21-19.64-.75-.33-1.86-.28-2.27-.81-5-6.45-11.59-5-18.1-3.63-4.07.86-8.06,2.11-12.25,2.15-1.6,0-3.32.26-4.63-1.2a12.23,12.23,0,0,0-14.25-3.06c-5.14,2.29-10.3,4.86-15.46,0-4.14-3.93-8.9-3.78-14.34-3.32-6.41.54-13.35,1.49-18.82-4.16-8.18-8.45-18.17-9.51-28.38-4.76-7.1,3.31-12.9,3.11-19.31-1.48-7.38-5.28-15.27-4.51-22.89.16-6.16,3.77-12.25,3.63-18.19-.57-2.44-1.73-4.86-3.51-8-3.78-4.33-2.63-8.81-4.82-14-5a19.6,19.6,0,0,0-15.69,2.85,16.9,16.9,0,0,1-11.63,3c-2.69-.24-7.28-2.34-8.08,3.47-.14,1-3.06,1.18-3.23,0-.56-3.82-3.05-1.85-4.46-1.58a47.07,47.07,0,0,0-9,2.69c-5.81,2.34-9.36,8.24-8.44,13.56-5.19,5.56-9.91,11.71-16.57,15.58a17.38,17.38,0,0,0-7.11,7.36c-7.34,9-6.14,17.22,3.1,21.29-2.13,5.16-4.31,10.3-6.38,15.49-2.41,6-1.86,7,4.55,7.09,18.61.31,37.22.59,55.83.65,12.61,0,25.23.72,37.83-.16l34.32.24,14.94.36,1,0c1.49.05,3,.12,4.46.12l62.5.1q1.08,2,2-.06c24.66-.69,49.32-1.51,73.94-3.18,3.14,0,6.3-.25,9.43-.09,3.39.17,3.76-1.36,3.17-4.23-1.31-6.32-2.15-12.74-3.63-19C1105.21,332.83,1105.9,331.31,1106.86,329.6Z" transform="translate(-745.02 -256.49)"/><path class="cls-1" d="M749.37,431.8l-.8.1a4.26,4.26,0,0,1,.08-.8c0-.05.38-.11.41-.06A3.91,3.91,0,0,1,749.37,431.8Z" transform="translate(-745.02 -256.49)"/><path class="cls-1" d="M1272.55,797.12a2.22,2.22,0,0,1-2.37,2,2.11,2.11,0,0,1-2.21-2.23,2.13,2.13,0,0,1,2.6-2.29A2.19,2.19,0,0,1,1272.55,797.12Z" transform="translate(-745.02 -256.49)"/><polygon class="cls-3" points="413.06 322.86 413.45 322.86 413.25 323.25 413.06 322.86"/><path class="cls-4" d="M1078.78,714.43l-.33-.2.36.18Z" transform="translate(-745.02 -256.49)"/><path class="cls-3" d="M1153.77,589.45l.2-.32-.18.34Z" transform="translate(-745.02 -256.49)"/><path class="cls-5" d="M1090.79,656.33l-5.53,6.18c-4,1.63-8.21,3.1-9.42,8l0-.1c-1.14.87-2.05,2-3.75,2-4,0-3.82,2.47-3.05,5.25-10.39,10.49-23.28,17-36.79,22.1a191,191,0,0,1-79.18,12.4c-27.44-1.58-53.91-7.16-78.86-19.33-30.52-14.9-54.47-37.16-74.74-64-21.69-28.74-32.43-61.48-36.65-96.77-3.5-29.17-.33-57.76,7.46-85.95a11.77,11.77,0,0,1,1.12-2.21c.49.45,0,2.31,1.69,1,4.13-3.15,1.09-7.33,1.7-11l-.06-.38c3.61-4.59,7.8-8.95,6.05-15.61a68.3,68.3,0,0,1,6.06-14.38c.15,1.08-.11,2.6,1.48,2.65,2.15.07,3.87-2.4,3.74-3.28-.8-5.24,3.61-9.38,2.71-14.5v0c2.39-.12,2.28-2.63,3.55-3.69,2.93-2.45,2.65-8,7.74-8.2,3-.13,6-.5,8.83.86a4.11,4.11,0,0,0,5.31-1c18.31.14,36.63-.54,54.92.69-1.8.15-3.6.43-5.4.44-11.57.07-23.13.09-34.7.12-6,8.39-16.53,13.87-16.35,26.15,0,1.17-1.16,2.33-1.71,3.52-5,10.81-9.9,21.66-13.17,33.16-1,.76-1,1.88-1,3l-.09,4.94c-2.4.53-3,2.7-3.45,4.5a178.26,178.26,0,0,0-3.38,17.53,218.64,218.64,0,0,0-1.46,38.15,186.06,186.06,0,0,0,25.08,84.7c10.4,17.53,24.29,31.43,40.53,43.13,11.83,8.51,25,14.85,38.51,20.19,6.09,2.41,12.13,5.66,19.1,4.9a14.88,14.88,0,0,0,3.52,1.72c18.07,3.55,36.19,6.66,54.72,4.14,10.32-1.4,20.59-3,30.67-5.89a209,209,0,0,0,30.18-11c.61,1.86-2.14,4.22.16,5.46,2.14,1.15,4.61,1,6.46-1.69,1.16-1.7,2.67,0,3.7,1,3.21,3.15,6,4.46,10.69,1.54,12.75-7.89,28.06-11.52,38.53-23.27,1.58-1.77,3.36-.73,5,.26,1.79,1.11,1.09,2.52.4,3.9-1.34,2.68-2.65,5.37-4,8-.76,1.46-1.27,3.19-2.93,3.91-2.13.91-1.31-3.09-3.93-2.11Zm-57.41,1.39c0-1.08-.67-2-1.4-1.81-2.19.55-4.89-.22-6.49,1.76-.92,1.13-3,2.49-1.8,4.09,1.09,1.43,3,0,3.87-.91C1029.23,659.16,1032.3,660.2,1033.38,657.72Z" transform="translate(-745.02 -256.49)"/><path class="cls-6" d="M835.05,377.68c11.57,0,23.13-.05,34.7-.12,1.8,0,3.6-.29,5.4-.44l23.8.3c-.06,1.4.06,3,1.81,2.93,4.71-.13,9.51,1.25,14.1-.83l1.11-1.11h1.78c4.32,6.89-.85,11.2-4.81,15.14-4.47,4.45-4.79,9.86-5.47,15.33-.29,2.38-.68,4.83-2.28,6.45-3,3.1-2.7,6.72-2,10.28a27,27,0,0,1,.63,7.41c-1,11.54-1.59,23.17-3.45,34.58-.81,5,1.7,9.59.12,14.27a6.82,6.82,0,0,0,2,7.68c2.6,2.51,4.81,4.93,3.56,9.06-.47,1.56.67,3.38,2,4.39,7.19,5.57,14.83,10.38,23.84,12.45,3.4.78,8.22,2.36,8.38,4.69.46,6.54,3.95,4.62,6.93,3.31,3.34-1.46,5.78-.73,8,1.65,6.43,6.9,13.67,12.92,20.67,19.19,8.4,7.53,16.05,15.82,24.31,23.51,8.07,7.49,14.71,16.59,26.31,19.13.44.09.79.58,1.2.86A86.41,86.41,0,0,0,1048,598.12c3.71,1.26,7.4,3,11,4.18,8.77,2.81,16.55,10.27,26.94,6.53.47-.17,1.22.41,1.84.65-6.7,9.45-15.4,16.74-25,23-.63-4.67-4.39-7.75-10.64-8-4.05-.13-8-.84-12.27.45-3.42,1-7-1.83-11-1.69-11.74.4-23.5.14-35.25.15a12.62,12.62,0,0,1-5.83-1c-6.64-3.3-14.14-3.88-21.15-4.64-9.66-1-19.5-.67-29.19-2.37-8.9-1.57-17.62-3.74-24.63-9.72a304,304,0,0,1-23-21.22,35.16,35.16,0,0,1-7.54-11.3c-2.35-5.9-5.22-11.07-3.81-17.73.35-1.63-.82-4.2-2.14-5.43-4.06-3.77-4.58-8.56-5-13.56-1.1-12-2.52-24-3.38-36.05-.35-4.92,1.29-9.84.92-14.87-1-13.75,2.23-27.11,5.11-40.28,3-13.83,7.7-27.36,12.58-40.68,2.64-7.22,4.66-14.82,9.25-21.32,2.28-3.23,1-4.74-3.53-4.75-17.31-.05-34.63,0-51.94-.06C838.56,378.48,836.65,379,835.05,377.68Z" transform="translate(-745.02 -256.49)"/><path class="cls-7" d="M998.14,378.3a69.35,69.35,0,0,1,15.64-.44,2.31,2.31,0,0,0,1.73,1.56,72.36,72.36,0,0,0,23,.61c2.41-.28,4.33-.87,4.33,2.51h-14.25c-.17.57-.33,1.14-.49,1.72,5.94-.59,7.67,1.77,5.81,6.86-.32.88,0,2-.09,3-.62,5,2.67,9.24,3,14,.24,4.25,1,7.7,5.87,9.09a13.84,13.84,0,0,1,5.69,3.92c3.06,3.25,7.24,5.95,5.65,11.74-.75,2.71,1.5,3.63,4,3.64,5.71,0,8.24,5,12,8,1.57,1.25.28,2.63-1.19,3.48-3.32,1.93-1.91,4.48-.79,6.91,1.44,3.15,3.5,6.26,7.12,6.18,3.06-.07,3.29-3.77,3.39-5.93.63-13.44,1.23-27-5.59-39.37a18.72,18.72,0,0,1-2.24-7.54c-.86-9.5-10.23-18.21-19.71-18.74-5.93-.33-7.69-1.83-8.19-7,9.14,0,18.28,0,27.42-.07,1.68,0,3.83.73,4.52-1.86l.11-.11c4.63-.92,8.47,2.26,12.94,2.5,1.4.08,2.6,1.83,3,3.65.87,4.24,1.91,8.43,6.66,10.15,1.13.41,1.22,1.47,1.43,2.43,1.24,5.83,5.54,10.35,6.63,16.44.47,2.62,1,5.74,2.44,8.41a38.57,38.57,0,0,1,4.88,21.55,15.85,15.85,0,0,0,1.31,6.65c2.83,7.5,2.66,15.69,4.6,23.44a8,8,0,0,1-.38,3.91c-2.19,7.77-1,16-3.23,23.82-.74,2.62.65,6.13.76,9.3s.85,5.66,4.56,6.81,6-.06,8.51-2.85c2-2.25,1.06-5.17,2.78-7.23,1.86,2.39,2.12,4.86,1.38,7.88-1.86,7.62-5.15,15-4.24,23.13.31,3.55-2.09,6.54-2.07,10a2.09,2.09,0,0,0-.93,2c-.43,2-1.42,3.86-1,6,0,.67-.11,1.35-.16,2a1.85,1.85,0,0,0-1.85,2c0,.34-.06.69-.08,1-2,.38-3.9.77-5.85,1.13-3.4.63-9.7-2.75-9.88-6-.35-6.22-2-12.21-2.76-18.21-1.29-9.74-2.15-19.79-1.49-29.77a26.91,26.91,0,0,0-.49-6.43c-1.21-6.89-4.27-13.37-4.5-20.46a4.65,4.65,0,0,0-3.48-4.43c-6.7-2.11-13.26-.47-19.08,2.51-2.31,1.18-3.6,1.52-5.6.52-6.17-3.06-12.33-6.15-18.51-9.21-4.6-2.27-7.49-.73-8.23,4.45a21,21,0,0,0-.05,4.48c.25,3.42-1.19,6-3.46,8.45-3.3,3.59-7.82,4.73-11.7,7-7.79,4.51-16.62,5.16-24.41,9-2.63,1.29-5.34,2.66-8.47,2-.21-1.47-.34-2.95-.64-4.4-.54-2.6-.19-6,1.62-6.85,3.74-1.79,3.94-4.83,3.93-7.79a20.27,20.27,0,0,1,7-15.87c4.27-3.6,7.61-8.87,14.47-9.39,4.08-.32,7.91-3.35,11.05-6.27,2.22-2.07,3.74-5.36,2.13-8.17-1.74-3-1.69-6.06-1.48-9.12.85-12.2-3.47-22.76-9.63-32.92-2-3.25-4.49-6.22-6.19-9.42-3.46-6.51-7.7-11.8-14.19-15.3-.84-.45-2.19-1.65-2.09-1.85C1002.77,377.35,999.06,379.13,998.14,378.3Z" transform="translate(-745.02 -256.49)"/><path class="cls-8" d="M998.14,378.3c.92.83,4.63-.95,2.62,2.8-.1.2,1.25,1.4,2.09,1.85,6.49,3.5,10.73,8.79,14.19,15.3,1.7,3.2,4.23,6.17,6.19,9.42,6.16,10.16,10.48,20.72,9.63,32.92-.21,3.06-.26,6.07,1.48,9.12,1.61,2.81.09,6.1-2.13,8.17-3.14,2.92-7,5.95-11.05,6.27-6.86.52-10.2,5.79-14.47,9.39a20.27,20.27,0,0,0-7,15.87c0,3-.19,6-3.93,7.79-1.81.87-2.16,4.25-1.62,6.85.3,1.45.43,2.93.64,4.4l-4,.05c-12.65,0-25.29,0-37.94-.07-5.5,0-9.28-3.89-9.16-9.23,0-1.32-.78-1.92-1.45-2.87-2.63-3.71-6.49-7.48-7-11.57-.67-5.82-3.87-10.39-5.38-15.71-2.46-8.68-3.33-17.55-5-26.3-1.38-7.26,2.83-14.11,2.08-21.5-.3-3-1.8-6-.44-9.27a136.75,136.75,0,0,1,12.55-23.29,9.94,9.94,0,0,0,1.78-6.1c2.38-.42,5.1.86,7.37-1.1-2.21-2.35-6.24.95-7.43-3.08l45.61-.09Zm2.72,53.29-1.08.87c-9,8.16-5.26,21.34,5.8,25.27a16.51,16.51,0,0,0,16.36-2.9c4.7-3.79,6.3-9.45,3.17-15.7-1.21-2.43-3-4.34-4.31-6.6-1-3.65-3.68-4.42-7-3.88h-6.87c-2.3.35-5.87-1.88-6,2.93ZM978.64,382.4c.15-.85,2.46-2.16,1-2.08-3.94.2-7.73-1.43-11.59-.61-3.7.79-.28,1.73,0,2.61-1.16.08-2.32.22-3.48.24-9.09.19-9.07.19-12,9-.25.77-.9,1.4-1.23,2.15-2.52,5.67-5.31,11.14-4.67,17.82.39,4.09,4.16,7.09,2.89,11.71-.36,1.33,2.24,2.45,4.4,1.73,1.88-.62,3.87-1.24,4.9,1.56,1.28,3.46,2.59,7.1,7.57,4.08.61-.37,1.88.47,2.85.55A32.53,32.53,0,0,0,987,427.53c4.81-2.49,7.41-11,6.12-16.62-.49-2.11-.68-4.19.5-6.27,2.26-4,1.69-7.59-1.87-10.63-1.88-1.61-4-3-5.53-4.93-2-2.55-1.89-4.58,2.25-4.6,3.15,0,6.4.5,9.47-1C991.6,381.47,985,384.41,978.64,382.4Z" transform="translate(-745.02 -256.49)"/><path class="cls-9" d="M906.87,274.49c3.12.27,5.54,2.05,8,3.78,5.94,4.2,12,4.34,18.19.57,7.62-4.67,15.51-5.44,22.89-.16,6.41,4.59,12.21,4.79,19.31,1.48,10.21-4.75,20.2-3.69,28.38,4.76,5.47,5.65,12.41,4.7,18.82,4.16,5.44-.46,10.2-.61,14.34,3.32,5.16,4.9,10.32,2.33,15.46,0a12.23,12.23,0,0,1,14.25,3.06c1.31,1.46,3,1.21,4.63,1.2,4.19,0,8.18-1.29,12.25-2.15,6.51-1.37,13.08-2.82,18.1,3.63.41.53,1.52.48,2.27.81,9,4,11.76,10,9.21,19.64-1.09-2.86-6-.74-6.24-5.19-.19-4.12-2.44-5-5.65-2.37-2.46,2-4.56,4.52-4.23,8a11.12,11.12,0,0,1-2.11,7.38c-4.21-.89-8.41-1.87-12.65-2.65-12.36-2.28-24.78-5.51-36.82,1.39a6.89,6.89,0,0,1-2.45.34c-1.58-1.46-2.54-1-3,1l-3,.13c-1.85.17-4.18-1-5.08,1.83l-3.94.05c-3.18-1.59-3.21-6.39-6.36-7.35-7.8-2.37-15.06-6.16-23.56-6.82-13.15-1-26,2.81-39.35.61-15.54-2.57-31.78,1.69-47.32-4.21-6.38-2.41-13.63-2.49-19.67-6.15-5.19-3.15-11.63-2.8-16.66-5.71-8.15-4.72-16.88-4.86-25.49-3.93-6,.65-11.46-.37-17.1-1.43-.92-5.32,2.63-11.22,8.44-13.56a47.07,47.07,0,0,1,9-2.69c1.41-.27,3.9-2.24,4.46,1.58.17,1.19,3.09,1,3.23,0,.8-5.81,5.39-3.71,8.08-3.47a16.9,16.9,0,0,0,11.63-3,19.6,19.6,0,0,1,15.69-2.85C895.91,276.08,902.37,278.36,906.87,274.49Z" transform="translate(-745.02 -256.49)"/><path class="cls-10" d="M1027.8,328.5l3.94-.05c1.84-.19,4.21,1.08,5.08-1.83l3-.13c1.13.06,2.26.12,3-1a6.89,6.89,0,0,0,2.45-.34c12-6.9,24.46-3.67,36.82-1.39,4.24.78,8.44,1.76,12.65,2.65,2.41.59,5.25-.94,7.28,1.49-.15,1.84-2.91,1.46-2.88,3.67.14,9-.13,18-2.35,26.84-24.62,1.67-49.28,2.49-73.94,3.18-.71-1-1.39-.91-2,.06l-62.5-.1c-1.48,0-3-.07-4.46-.12-.32-.43-.66-.47-1,0l-14.94-.36c.57-1.67,2-1.49,3.32-1.54,2.7-.09,3.22-2,2.32-3.77-1.53-3.05-3.12-6-7.48-6.3-10.66-.8-21.09-3.35-31.72-4.64-9.4-1.13-17.41.73-25.42,4.78-1.66,0-3.31.06-5,.13-4.67.18-9.51.31-13.56-2.07-3.37-2-9.3-1.62-8.9-8,0-.28-1.07-.65-1.65-1-2.64-1.45-5.48-1.32-8.23-.68-3.8.89-7.51.31-11.3.17-6.17-.21-12.34-2.41-18.56-.42-9.24-4.07-10.44-12.29-3.1-21.29.66,0,1.45.14,2-.16,1.87-1.11,3.61-4.31,5.27.34,1.12,3.11,4.66-2.05,5.95,1.43.22.61.78,1.29.64,1.8-1.24,4.58,2,4.47,4.85,4.68,2.68.19,5.45.33,7.26,2.6,2.56,3.21,7.05,3.56,9.6,6.81a2.17,2.17,0,0,0,3.19-.08c5.74-6.81,14.11-8.06,21.88-8.93a110.12,110.12,0,0,1,45,4.55,38.65,38.65,0,0,0,16.6,1.66c4.78-.61,8.55-4.39,13.09-4.41a271.83,271.83,0,0,1,33.3,1.37c6.66.78,13.32.34,20.12,1.83C1007.22,332.12,1017.67,329.94,1027.8,328.5Z" transform="translate(-745.02 -256.49)"/><path class="cls-11" d="M1027.8,328.5c-10.13,1.44-20.58,3.62-30.45,1.44-6.8-1.49-13.46-1.05-20.12-1.83a271.83,271.83,0,0,0-33.3-1.37c-4.54,0-8.31,3.8-13.09,4.41a38.65,38.65,0,0,1-16.6-1.66,110.12,110.12,0,0,0-45-4.55c-7.77.87-16.14,2.12-21.88,8.93a2.17,2.17,0,0,1-3.19.08c-2.55-3.25-7-3.6-9.6-6.81-1.81-2.27-4.58-2.41-7.26-2.6-2.86-.21-6.09-.1-4.85-4.68.14-.51-.42-1.19-.64-1.8-1.29-3.48-4.83,1.68-5.95-1.43-1.66-4.65-3.4-1.45-5.27-.34-.51.3-1.3.12-2,.16a17.38,17.38,0,0,1,7.11-7.36c6.66-3.87,11.38-10,16.57-15.58,5.64,1.06,11.11,2.08,17.1,1.43,8.61-.93,17.34-.79,25.49,3.93,5,2.91,11.47,2.56,16.66,5.71,6,3.66,13.29,3.74,19.67,6.15,15.54,5.9,31.78,1.64,47.32,4.21,13.4,2.2,26.2-1.62,39.35-.61,8.5.66,15.76,4.45,23.56,6.82C1024.59,322.11,1024.62,326.91,1027.8,328.5ZM818,314.11a5.63,5.63,0,0,0,.31-.77s-.29-.27-.35-.24a5.89,5.89,0,0,0-.61.51Z" transform="translate(-745.02 -256.49)"/><path class="cls-9" d="M1061.65,734.49c4.23,3.49,8.48,7,12.68,10.49,2.29,1.93,4.55,3.9,6.67,6s4.68,4.34,3.87,7.12c-1,3.41-4.9,2.34-7.49,2.37q-42.47.46-85,.56c-22.49.06-45-.06-67.47-.12-1.32,0-2.64-.21-4-.32-2.75-6.13-7.56-10.59-12.29-15.11.14-2.58-2.21-3-3.67-4.21-2.34-1.9-6.35-3.18-4.76-7,1.4-3.38,4.79-1.67,7.45-1.1a3.86,3.86,0,0,0,.49.1c1.19.1,2.43,0,3-1.22.62-1.47-.49-2.13-1.62-2.51-1.6-.54-1.77-1.77-1.79-3.15,14.83-.79,29.3,3.32,44.07,3.29,1.79,1.28,3.86.58,5.8.8,3.73.41,7.62-.89,11.23.93.23,2.64-1.48,3.76-3.53,4.82-3.5,1.8-3.05,3.93.31,5,5.22,1.69,10.55,3.56,16,4,8.09.68,16.27,0,24.41.24,6.61.16,13.38,0,19.79,1.35,9.56,2,18.33-.82,27.34-2.6.54-.11,1.4-.8,1.38-1.18-.18-3.12,2.69-3.33,4.3-4.72C1063,739.46,1059.35,734.77,1061.65,734.49Z" transform="translate(-745.02 -256.49)"/><path class="cls-8" d="M1042.82,382.54c0-3.38-1.92-2.79-4.33-2.51a72.36,72.36,0,0,1-23-.61,2.31,2.31,0,0,1-1.73-1.56c23.14-.54,46.34-.36,69.36-2.65,9.67-1,19.23,1.9,28.75-.51,2-.51,2.52,1,3.21,2.38,11,21.84,21,44.1,27.93,67.63,3.86,13.17,7.83,26.35,7.93,40.27-.13,1.47-.27,2.93-.47,5-1.57-2.31-5.24-.43-5.43-3.33-.34-5.22-3.25-10-2.34-15.44.32-1.9.65-4.14-1.33-6a28.74,28.74,0,0,0-.65,7.49,3,3,0,0,1-2,3.11c-1.32.49-1.7-.43-2.12-1.38-.55-1.23-1.37-2.77-2.77-2.33-1.83.57-1,2.56-1.06,3.93-.08,9.78-.06,19.56-.08,29.34-.33,1.34-.67,2.69-1,4-1.72,2.06-.74,5-2.78,7.23-2.53,2.79-4.67,4-8.51,2.85s-4.45-3.76-4.56-6.81-1.5-6.68-.76-9.3c2.23-7.85,1-16.05,3.23-23.82a8,8,0,0,0,.38-3.91c-1.94-7.75-1.77-15.94-4.6-23.44a15.85,15.85,0,0,1-1.31-6.65,38.57,38.57,0,0,0-4.88-21.55c-1.49-2.67-2-5.79-2.44-8.41-1.09-6.09-5.39-10.61-6.63-16.44-.21-1-.3-2-1.43-2.43-4.75-1.72-5.79-5.91-6.66-10.15-.38-1.82-1.58-3.57-3-3.65-4.47-.24-8.31-3.42-12.94-2.5-.33-1.65-1.51-2-3-2-4.93,0-9.86,0-15.25,0,1.85,2,3.41,3.66,5.77,2.91,4.08-1.3,8.22-.63,12.33-.82-.69,2.59-2.84,1.85-4.52,1.86-9.14.07-18.28.05-27.42.07Zm85.55,98.16c.21-2.18.41-3.31.4-4.43-.08-8.69-2.66-17.06-3.54-25.57-.74-7.16-3.61-13.14-6.1-19.5-.76-1.93-.26-4.44-2.4-5.72s-3.2-2.63-3-5.14c.07-1.11-.45-2.62-2-2.1-1.36.45-1.07,2-.8,3.05.65,2.5,1.37,5,2.13,7.43,1.53,4.88,1.68,9.93,2.86,14.83,1.25,5.25,3.32,10.22,4.6,15.35C1122.28,466.14,1123.37,473.48,1128.37,480.7Z" transform="translate(-745.02 -256.49)"/><path class="cls-12" d="M1062.8,632.5c9.61-6.28,18.31-13.57,25-23,2.28-2.1,4.75-4,6-7a1.83,1.83,0,0,0,1.91-2.05l0,0,3-1.94a1.89,1.89,0,0,0,2-2c0-.32,0-.64,0-1,2.07-.11,3.33-1.58,4.38-3,5.12-6.87,12-10.45,20.31-12.22,6.09-1.31,6-1.63,6.84,4.47a5.52,5.52,0,0,1,.09,1c0,.89-.82,2.21.73,2.37s1.61-1.36,1.62-2.48c0-2.74,1.63-4.19,3.92-5.15-1.46,6.9-4.8,13-8,19.22-9.87,19.32-21.57,37.42-36.3,53.44-1.09,1.18-1.82,2.86-3.66,3.21v-8.82c2.62-1,1.8,3,3.93,2.11,1.66-.72,2.17-2.45,2.93-3.91,1.38-2.66,2.69-5.35,4-8,.69-1.38,1.39-2.79-.4-3.9-1.6-1-3.38-2-5-.26-10.47,11.75-25.78,15.38-38.53,23.27-4.72,2.92-7.48,1.61-10.69-1.54-1-1-2.54-2.7-3.7-1-1.85,2.71-4.32,2.84-6.46,1.69-2.3-1.24.45-3.6-.16-5.46C1046,645.29,1055.42,640.36,1062.8,632.5Zm69.48-40.77a5.57,5.57,0,0,0-.32-.76s-.39,0-.41.07a4.36,4.36,0,0,0-.09.8Z" transform="translate(-745.02 -256.49)"/><path class="cls-13" d="M811.71,337.74c6.22-2,12.39.21,18.56.42,3.79.14,7.5.72,11.3-.17,2.75-.64,5.59-.77,8.23.68.58.31,1.67.68,1.65,1-.4,6.39,5.53,6,8.9,8,4,2.38,8.89,2.25,13.56,2.07,1.66-.07,3.31-.09,5-.13a5,5,0,0,0,5,2.64c8.29-.49,16.12,3.23,24.42,2.37a71.91,71.91,0,0,1,8.93,0c1.78,0,4.22-.24,4.15,2.29s-2.49,1.52-4,1.63c-4.7.35-9.5.08-13.89,2.31-12.6.88-25.22.19-37.83.16-18.61-.06-37.22-.34-55.83-.65-6.41-.1-7-1.07-4.55-7.09C807.4,348,809.58,342.9,811.71,337.74Z" transform="translate(-745.02 -256.49)"/><path class="cls-13" d="M873.76,707.71a7.47,7.47,0,0,1,4,1.63l1.16,1.08-.06-.13c.44,2,1.65,4.42-2.21,4.23-3.25-.16-4.21,2.09-4.66,4.71q-.56,3.16-.9,6.36c-.93,8.31-1.18,16.38,6.06,22.6a67.37,67.37,0,0,0,13.8,8.64c1.81.91,3.22,1.65,2.61,4-8.3.77-16.6.05-24.9,0-12.32-.12-24.65-.17-37-.36-1.54,0-3.71.72-4.54-1.11s.72-3.45,1.74-4.91c2.71-3.87,6.64-6.49,10.09-9.6,3.83-3.46,7.87-6.72,11.36-10.5a27,27,0,0,0,7.45-19c-.06-4.46,1.55-8.81.11-14l14,5.65c.19.72-.07,1.75,1,1.84C873.19,708.74,873.49,708.06,873.76,707.71Z" transform="translate(-745.02 -256.49)"/><path class="cls-1" d="M893.59,760.8c.61-2.32-.8-3.06-2.61-4a67.37,67.37,0,0,1-13.8-8.64c-7.24-6.22-7-14.29-6.06-22.6q.35-3.2.9-6.36c.45-2.62,1.41-4.87,4.66-4.71,3.86.19,2.65-2.21,2.21-4.23,3.14,0,5.82,1.48,8.55,2.77-.82.59-1.13,1.59-.07,1.83,7.2,1.63,13.8,5.57,21.42,5.56a9.65,9.65,0,0,0,1.67,1c13.35,4.81,27.33,5.93,41.31,7,0,.39,0,.77.07,1.15-14.77,0-29.24-4.08-44.06-3.29l-1.72,0-3.13-.82c-7.81-1.08-15.5-2.55-22.24-6.91a2.31,2.31,0,0,0,.16,2.8c7.16,10.47,16.95,17.92,27.86,24.07,4.73,4.52,9.54,9,12.29,15.11C911.87,761.75,902.73,761.18,893.59,760.8Z" transform="translate(-745.02 -256.49)"/><path class="cls-14" d="M1138.7,580.46c-2.29,1-3.9,2.41-3.92,5.15,0,1.12.07,2.64-1.62,2.48s-.76-1.48-.73-2.37a5.52,5.52,0,0,0-.09-1c-.82-6.1-.75-5.78-6.84-4.47-8.26,1.77-15.19,5.35-20.31,12.22-1,1.42-2.31,2.89-4.38,3,.32-3.17,3.63-4.87,3.94-8,2.86-1,1.22-5,4-6,6.19-2.12,7.17-8.25,10-13,.81-2.08,4.13-2.13,4-5,0-.34,0-.69.08-1a1.77,1.77,0,0,0,1.85-2c0-.67.11-1.35.16-2,2.1-.15,2.9-1.84,4.14-3.19,2.68-2.91,3.82-7.06,7.5-9.11,2.24-1.26,3.37-2.06,4.63,1.78,1.4,4.25,1.45,8.35,1.75,12.57.05,4.79-3.16,9.09-2.07,14l-.15,1-.72,1.1C1140.38,578.21,1139.36,579.28,1138.7,580.46Z" transform="translate(-745.02 -256.49)"/><path class="cls-1" d="M903.54,360.81c4.39-2.23,9.19-2,13.89-2.31,1.48-.11,3.91.81,4-1.63s-2.37-2.25-4.15-2.29a71.91,71.91,0,0,0-8.93,0c-8.3.86-16.13-2.86-24.42-2.37a5,5,0,0,1-5-2.64c8-4.05,16-5.91,25.42-4.78,10.63,1.29,21.06,3.84,31.72,4.64,4.36.33,6,3.25,7.48,6.3.9,1.81.38,3.68-2.32,3.77-1.31.05-2.75-.13-3.32,1.54Z" transform="translate(-745.02 -256.49)"/><path class="cls-7" d="M1140.79,574.53c-1.09-4.94,2.12-9.24,2.07-14,2.77-5,3-10.56,3.86-16,2.76-4.73,2.52-10,1.71-15a13.1,13.1,0,0,1,1.36-9c1.25-2.23,1.88-5.32.14-6.41-4.13-2.59-3.16-6.23-3.09-9.69a9.11,9.11,0,0,0-3.31-7.56c-1.8,3.66.42,7.73-2.09,11.88-1.9-5-5.55-3.22-8.71-3.31,0-9.78,0-19.56.08-29.34,0-1.37-.77-3.36,1.06-3.93,1.4-.44,2.22,1.1,2.77,2.33.42.95.8,1.87,2.12,1.38a3,3,0,0,0,2-3.11,28.74,28.74,0,0,1,.65-7.49c2,1.83,1.65,4.07,1.33,6-.91,5.45,2,10.22,2.34,15.44.19,2.9,3.86,1,5.43,3.33.2-2.1.34-3.56.47-5,1.69,6.82,1.66,13.83,1.32,20.71-.67,13.62-.91,27.31-3.57,40.77C1146.82,556,1144.68,565.52,1140.79,574.53Z" transform="translate(-745.02 -256.49)"/><path class="cls-3" d="M951.84,729.66c0-.38-.05-.76-.07-1.15a27.27,27.27,0,0,0,9.88.87c9.3-.94,18.94.63,27.84-3.6a4.89,4.89,0,0,1,2.94-.19c4.69,1.1,8.2-1.07,11.48-4l11.11-2.78c0,2.21-3.21,1.9-3.55,3.95,1.55,1,2.84-.19,4,0,3.26.51,7,.39,8.43,4.51a240.09,240.09,0,0,1-29.37,4.08c-8.54.55-17.09-2.3-25.64,0-3.61-1.82-7.5-.52-11.23-.93C955.7,730.24,953.63,730.94,951.84,729.66Z" transform="translate(-745.02 -256.49)"/><path class="cls-11" d="M1003.91,721.63c-3.28,2.89-6.79,5.06-11.48,4a4.89,4.89,0,0,0-2.94.19c-8.9,4.23-18.54,2.66-27.84,3.6a27.27,27.27,0,0,1-9.88-.87c-14-1.12-28-2.24-41.31-7a9.65,9.65,0,0,1-1.67-1c0-.31.05-.63.06-.94,19.88,4.37,40,6.76,60.37,6A290.54,290.54,0,0,0,1003.91,721.63Z" transform="translate(-745.02 -256.49)"/><path class="cls-13" d="M1096.77,358.44c2.22-8.82,2.49-17.82,2.35-26.84,0-2.21,2.73-1.83,2.88-3.67,2.17-1.06,3.66-.1,4.86,1.67-1,1.71-1.65,3.23-1.12,5.5,1.48,6.28,2.32,12.7,3.63,19,.59,2.87.22,4.4-3.17,4.23C1103.07,358.19,1099.91,358.4,1096.77,358.44Z" transform="translate(-745.02 -256.49)"/><path class="cls-11" d="M1106.86,329.6c-1.2-1.77-2.69-2.73-4.86-1.67-2-2.43-4.87-.9-7.28-1.49a11.12,11.12,0,0,0,2.11-7.38c-.33-3.47,1.77-6,4.23-8,3.21-2.6,5.46-1.75,5.65,2.37.2,4.45,5.15,2.33,6.24,5.19C1112.72,323.29,1109.46,326.26,1106.86,329.6Z" transform="translate(-745.02 -256.49)"/><path class="cls-1" d="M1023.88,727.31c-1.4-4.12-5.17-4-8.43-4.51-1.14-.19-2.43,1-4,0,.34-2,3.5-1.74,3.55-3.95l16.79-5.22c-.53,1.53-1.07,3.06-1.9,5.42,5.17-2.89,8.91.15,12.95,1.51a2.93,2.93,0,0,1-2.32,2.35C1035,724.42,1029.44,725.85,1023.88,727.31Z" transform="translate(-745.02 -256.49)"/><path class="cls-13" d="M1042.86,720.56c-4-1.36-7.78-4.4-12.95-1.51.83-2.36,1.37-3.89,1.9-5.42,5.77-2.39,11.58-4.69,17.28-7.23,2.57-1.15,3.53-.77,3.4,2.16-.09,2.29.16,4.59.26,6.89-1.15.71-1.92,2.6-3.71,1.38-3.74-2.54-3,.59-3.31,2.53Z" transform="translate(-745.02 -256.49)"/><path class="cls-11" d="M946.82,776.52c-.56,2.31-2.45,1.87-4,1.87q-37.95,0-75.89,0c-1.6,0-3.47.41-4-1.9Z" transform="translate(-745.02 -256.49)"/><path class="cls-1" d="M1045.73,719.36c.26-1.94-.43-5.07,3.31-2.53,1.79,1.22,2.56-.67,3.71-1.38a37.73,37.73,0,0,0,8.9,19c-2.3.28,1.39,5-2.83,3.83-.76-2.82-2.76-4.29-5.49-4.93-.87-.21-2.17.07-1.71-1.58C1053.24,726,1048.69,723,1045.73,719.36Z" transform="translate(-745.02 -256.49)"/><path class="cls-13" d="M986.45,378.32l-45.61.09H916l-1-.29.41-.6c23.41-.36,46.82-.1,70.22.36C985.88,377.89,986.16,378.17,986.45,378.32Z" transform="translate(-745.02 -256.49)"/><path class="cls-12" d="M820.23,376.43a4.11,4.11,0,0,1-5.31,1c-2.82-1.36-5.87-1-8.83-.86-5.09.23-4.81,5.75-7.74,8.2-1.27,1.06-1.16,3.57-3.55,3.69.93-4.12,3.37-7.52,5.33-11.15a3.35,3.35,0,0,1,3.25-1.92C809,375.73,814.68,375,820.23,376.43Z" transform="translate(-745.02 -256.49)"/><path class="cls-12" d="M794.81,388.49c.9,5.12-3.51,9.26-2.71,14.5.13.88-1.59,3.35-3.74,3.28-1.59,0-1.33-1.57-1.48-2.65C789.43,398.52,791.35,393.11,794.81,388.49Z" transform="translate(-745.02 -256.49)"/><path class="cls-11" d="M906.87,274.49c-4.5,3.87-11,1.59-14-5C898.06,269.67,902.54,271.86,906.87,274.49Z" transform="translate(-745.02 -256.49)"/><path class="cls-3" d="M908.85,719.51c0,.31,0,.63-.06.94-7.62,0-14.22-3.93-21.42-5.56-1.06-.24-.75-1.24.07-1.83Z" transform="translate(-745.02 -256.49)"/><path class="cls-7" d="M915.37,377.52c-.14.2-.28.4-.41.61,0,.46-.07.93-.1,1.39-4.59,2.08-9.39.7-14.1.83-1.75,0-1.87-1.53-1.81-2.93A103.47,103.47,0,0,1,915.37,377.52Z" transform="translate(-745.02 -256.49)"/><path class="cls-12" d="M780.82,418c1.75,6.66-2.44,11-6.05,15.61A57.73,57.73,0,0,1,780.82,418Z" transform="translate(-745.02 -256.49)"/><path class="cls-12" d="M1075.84,670.55c1.21-4.94,5.39-6.41,9.42-8C1082.57,665.71,1080.16,669.24,1075.84,670.55Z" transform="translate(-745.02 -256.49)"/><path class="cls-12" d="M1069.08,677.71c-.77-2.78-.9-5.28,3.05-5.25,1.7,0,2.61-1.14,3.75-2C1075.61,674.74,1071.27,675.22,1069.08,677.71Z" transform="translate(-745.02 -256.49)"/><path class="cls-12" d="M774.83,434c-.61,3.65,2.43,7.83-1.7,11-1.68,1.29-1.2-.57-1.69-1A36.2,36.2,0,0,1,774.83,434Z" transform="translate(-745.02 -256.49)"/><path class="cls-13" d="M1020.79,361.68c.65-1,1.33-1.05,2-.06Q1021.87,363.65,1020.79,361.68Z" transform="translate(-745.02 -256.49)"/><path class="cls-1" d="M873.76,707.71c-.27.35-.57,1-.82,1-1.11-.09-.85-1.12-1-1.84Z" transform="translate(-745.02 -256.49)"/><path class="cls-7" d="M1139.92,576.67l.72-1.1Z" transform="translate(-745.02 -256.49)"/><path class="cls-13" d="M952.8,361.41c.37-.42.71-.38,1,0Z" transform="translate(-745.02 -256.49)"/><path class="cls-1" d="M879,710.42l-1.16-1.08Z" transform="translate(-745.02 -256.49)"/><path class="cls-3" d="M819.87,729.42l-.19.32.17-.33Z" transform="translate(-745.02 -256.49)"/><path class="cls-14" d="M1062.8,632.5c-7.38,7.86-16.79,12.79-26,18a209,209,0,0,1-30.18,11c-10.08,2.88-20.35,4.49-30.67,5.89-18.53,2.52-36.65-.59-54.72-4.14a14.88,14.88,0,0,1-3.52-1.72c1.69-2.87,1.33-4.84-2.39-5.07-2.31-.14-3.3-1.75-4.67-3.26-6-6.6-11.66-13.68-18.49-19.33C884,627.11,876,620.17,868,613.25c-3-2.55-4.5-6.2-7.6-8.47-6.34-4.64-11.33-10.56-16.3-16.54-8.51-10.21-13.77-22.44-20.88-33.52-4.89-7.62-8.54-15.89-9.73-25.23-.68-5.31.49-10.73-1.1-15.85-2.31-7.43-2.72-15-2.52-22.67.16-6.15,0-12.32,0-18.48a12,12,0,0,0-1.43-5.72c-2.94-5.77-5.46-11.71-5.7-18.34l.09-4.94c2-.43,2.55-1.37,1-3C807.09,429,812,418.16,817,407.35c.55-1.19,1.72-2.35,1.71-3.52-.18-12.28,10.39-17.76,16.35-26.15,1.6,1.34,3.51.8,5.29.81,17.31,0,34.63,0,51.94.06,4.56,0,5.81,1.52,3.53,4.75-4.59,6.5-6.61,14.1-9.25,21.32C881.68,417.94,877,431.47,874,445.3c-2.88,13.17-6.14,26.53-5.11,40.28.37,5-1.27,9.95-.92,14.87.86,12,2.28,24,3.38,36.05.45,5,1,9.79,5,13.56,1.32,1.23,2.49,3.8,2.14,5.43-1.41,6.66,1.46,11.83,3.81,17.73a35.16,35.16,0,0,0,7.54,11.3,304,304,0,0,0,23,21.22c7,6,15.73,8.15,24.63,9.72,9.69,1.7,19.53,1.33,29.19,2.37,7,.76,14.51,1.34,21.15,4.64a12.62,12.62,0,0,0,5.83,1c11.75,0,23.51.25,35.25-.15,4-.14,7.57,2.72,11,1.69,4.24-1.29,8.22-.58,12.27-.45C1058.41,624.75,1062.17,627.83,1062.8,632.5Z" transform="translate(-745.02 -256.49)"/><path class="cls-12" d="M802.76,448.43c.24,6.63,2.76,12.57,5.7,18.34a12,12,0,0,1,1.43,5.72c0,6.16.11,12.33,0,18.48-.2,7.69.21,15.24,2.52,22.67,1.59,5.12.42,10.54,1.1,15.85,1.19,9.34,4.84,17.61,9.73,25.23,7.11,11.08,12.37,23.31,20.88,33.52,5,6,10,11.9,16.3,16.54,3.1,2.27,4.63,5.92,7.6,8.47,8,6.92,16,13.86,24.17,20.62,6.83,5.65,12.48,12.73,18.49,19.33,1.37,1.51,2.36,3.12,4.67,3.26,3.72.23,4.08,2.2,2.39,5.07-7,.76-13-2.49-19.1-4.9-13.52-5.34-26.68-11.68-38.51-20.19-16.24-11.7-30.13-25.6-40.53-43.13a186.06,186.06,0,0,1-25.08-84.7,218.64,218.64,0,0,1,1.46-38.15,178.26,178.26,0,0,1,3.38-17.53C799.73,451.13,800.36,449,802.76,448.43Z" transform="translate(-745.02 -256.49)"/><path class="cls-12" d="M1033.38,657.72c-1.08,2.48-4.15,1.44-5.82,3.13-.91.93-2.78,2.34-3.87.91-1.22-1.6.88-3,1.8-4.09,1.6-2,4.3-1.21,6.49-1.76C1032.71,655.73,1033.38,656.64,1033.38,657.72Z" transform="translate(-745.02 -256.49)"/><path class="cls-12" d="M803.82,440.51c1.58,1.61,1.07,2.55-1,3C802.84,442.39,802.78,441.27,803.82,440.51Z" transform="translate(-745.02 -256.49)"/><path class="cls-15" d="M917.75,378.42h23.09c1.19,4,5.22.73,7.43,3.08-2.27,2-5,.68-7.37,1.1-4.83-.78-8.4.64-11.64,4.7-2.89,3.62-4.42,7.48-6.06,11.69-3.55,9.14-7.61,18.26-6.17,28.12s.16,19.76,1.53,29.65c1.22,8.7,4.34,16.77,6.19,25.23,1,4.72,4.7,8.43,5.84,12.9,2.41,9.39,9.39,15.49,19.2,15.63,13,.19,26-.59,38.93.45,2.18.17,2-1.14,2.11-2.46l4-.05c3.13.69,5.84-.68,8.47-2,7.79-3.82,16.62-4.47,24.41-9,3.88-2.24,8.4-3.38,11.7-7,2.27-2.48,3.71-5,3.46-8.45a21,21,0,0,1,.05-4.48c.74-5.18,3.63-6.72,8.23-4.45,6.18,3.06,12.34,6.15,18.51,9.21,2,1,3.29.66,5.6-.52,5.82-3,12.38-4.62,19.08-2.51a4.65,4.65,0,0,1,3.48,4.43c.23,7.09,3.29,13.57,4.5,20.46a26.91,26.91,0,0,1,.49,6.43c-.66,10,.2,20,1.49,29.77.79,6,2.41,12,2.76,18.21.18,3.24,6.48,6.62,9.88,6,1.95-.36,3.9-.75,5.85-1.13.13,2.84-3.19,2.89-4,5-5.86,2.37-7.78,7.77-10,13-2.81,1-1.17,5-4,6-4.77,3.1-8.33,7-9,12.95l0,0a2,2,0,0,0-1.91,2.05c-1.25,3-3.72,4.91-6,7-.62-.24-1.37-.82-1.84-.65-10.39,3.74-18.17-3.72-26.94-6.53-3.65-1.17-7.34-2.92-11-4.18a86.41,86.41,0,0,1-20.35-10.32c-.41-.28-.76-.77-1.2-.86-11.6-2.54-18.24-11.64-26.31-19.13-8.26-7.69-15.91-16-24.31-23.51-7-6.27-14.24-12.29-20.67-19.19-2.22-2.38-4.66-3.11-8-1.65-3,1.31-6.47,3.23-6.93-3.31-.16-2.33-5-3.91-8.38-4.69-9-2.07-16.65-6.88-23.84-12.45-1.3-1-2.44-2.83-2-4.39,1.25-4.13-1-6.55-3.56-9.06a6.82,6.82,0,0,1-2-7.68c1.58-4.68-.93-9.3-.12-14.27,1.86-11.41,2.45-23,3.45-34.58a27,27,0,0,0-.63-7.41c-.68-3.56-1-7.18,2-10.28,1.6-1.62,2-4.07,2.28-6.45.68-5.47,1-10.88,5.47-15.33C916.9,389.62,922.07,385.31,917.75,378.42Z" transform="translate(-745.02 -256.49)"/><path class="cls-15" d="M914.86,379.52c0-.46.07-.93.1-1.39l1,.28Z" transform="translate(-745.02 -256.49)"/><path class="cls-8" d="M1042.8,382.52c.5,5.17,2.26,6.67,8.19,7,9.48.53,18.85,9.24,19.71,18.74a18.72,18.72,0,0,0,2.24,7.54c6.82,12.41,6.22,25.93,5.59,39.37-.1,2.16-.33,5.86-3.39,5.93-3.62.08-5.68-3-7.12-6.18-1.12-2.43-2.53-5,.79-6.91,1.47-.85,2.76-2.23,1.19-3.48-3.76-3-6.29-8-12-8-2.54,0-4.79-.93-4-3.64,1.59-5.79-2.59-8.49-5.65-11.74a13.84,13.84,0,0,0-5.69-3.92c-4.87-1.39-5.63-4.84-5.87-9.09-.28-4.8-3.57-9-3-14,.13-1-.23-2.09.09-3,1.86-5.09.13-7.45-5.81-6.86.16-.58.32-1.15.49-1.72h14.25Z" transform="translate(-745.02 -256.49)"/><path class="cls-15" d="M1132.73,505.43c3.16.09,6.81-1.68,8.71,3.31,2.51-4.15.29-8.22,2.09-11.88a9.11,9.11,0,0,1,3.31,7.56c-.07,3.46-1,7.1,3.09,9.69,1.74,1.09,1.11,4.18-.14,6.41a13.1,13.1,0,0,0-1.36,9c.81,5,1,10.24-1.71,15-2.55-.68-1.89-2.8-1.9-4.5-.06-8.64,0-17.27-.07-25.91,0-1.33.72-3-1-3.93-3.43,2.66-2.89,6.38-3,10-.07,2.58,1.47,6.15-3.69,6-1.6,0-1.9,2.29-2.36,3.95-1.08,3.88-1.58,8.2-5.83,10.33-.91-8.13,2.38-15.51,4.24-23.13.74-3,.48-5.49-1.38-7.88C1132.06,508.12,1132.4,506.77,1132.73,505.43Z" transform="translate(-745.02 -256.49)"/><path class="cls-6" d="M1128.86,540.47c4.25-2.13,4.75-6.45,5.83-10.33.46-1.66.76-4,2.36-3.95,5.16.11,3.62-3.46,3.69-6,.09-3.62-.45-7.34,3-10,1.75.91,1,2.6,1,3.93.07,8.64,0,17.27.07,25.91,0,1.7-.65,3.82,1.9,4.5-.84,5.45-1.09,11-3.86,16-.3-4.22-.35-8.32-1.75-12.57-1.26-3.84-2.39-3-4.63-1.78-3.68,2.05-4.82,6.2-7.5,9.11-1.24,1.35-2,3-4.14,3.19-.4-2.11.59-4,1-6,1.13-.27,2.29-.54.93-2C1126.77,547,1129.17,544,1128.86,540.47Z" transform="translate(-745.02 -256.49)"/><path class="cls-15" d="M1124.68,560.47a1.77,1.77,0,0,1-1.85,2A1.85,1.85,0,0,1,1124.68,560.47Z" transform="translate(-745.02 -256.49)"/><path class="cls-15" d="M1126.79,550.5c1.36,1.44.2,1.71-.93,2A2.09,2.09,0,0,1,1126.79,550.5Z" transform="translate(-745.02 -256.49)"/><path class="cls-7" d="M990.83,508.5c-.12,1.32.07,2.63-2.11,2.46-13-1-26-.26-38.93-.45-9.81-.14-16.79-6.24-19.2-15.63-1.14-4.47-4.8-8.18-5.84-12.9-1.85-8.46-5-16.53-6.19-25.23-1.37-9.89-.09-19.77-1.53-29.65s2.62-19,6.17-28.12c1.64-4.21,3.17-8.07,6.06-11.69,3.24-4.06,6.81-5.48,11.64-4.7a9.94,9.94,0,0,1-1.78,6.1A136.75,136.75,0,0,0,926.57,412c-1.36,3.3.14,6.27.44,9.27.75,7.39-3.46,14.24-2.08,21.5,1.67,8.75,2.54,17.62,5,26.3,1.51,5.32,4.71,9.89,5.38,15.71.48,4.09,4.34,7.86,7,11.57.67.95,1.48,1.55,1.45,2.87-.12,5.34,3.66,9.2,9.16,9.23C965.54,508.51,978.18,508.48,990.83,508.5Z" transform="translate(-745.02 -256.49)"/><path class="cls-10" d="M978.64,382.4c6.34,2,13-.93,19.34,1.13-3.07,1.45-6.32.93-9.47,1-4.14,0-4.24,2-2.25,4.6,1.5,1.91,3.65,3.32,5.53,4.93,3.56,3,4.13,6.64,1.87,10.63-1.18,2.08-1,4.16-.5,6.27,1.29,5.66-1.31,14.13-6.12,16.62a32.53,32.53,0,0,1-17.74,3.65c-1-.08-2.24-.92-2.85-.55-5,3-6.29-.62-7.57-4.08-1-2.8-3-2.18-4.9-1.56-2.16.72-4.76-.4-4.4-1.73,1.27-4.62-2.5-7.62-2.89-11.71-.64-6.68,2.15-12.15,4.67-17.82.33-.75,1-1.38,1.23-2.15,2.93-8.83,2.91-8.83,12-9,1.16,0,2.32-.16,3.48-.24Zm-4.81,46.09c2.91,1.13,5.26-1.53,8.17-2,5-.81,7.64-4.19,7.86-9.28.34-8.17-8.7-18.59-17-19.56-5.3-.63-15.28,5.84-16,10.66C955.65,417.3,964.39,429.51,973.83,428.49Z" transform="translate(-745.02 -256.49)"/><path class="cls-9" d="M1006.89,428.64h6.87a12.34,12.34,0,0,0,7,3.88c1.33,2.26,3.1,4.17,4.31,6.6,3.13,6.25,1.53,11.91-3.17,15.7a16.51,16.51,0,0,1-16.36,2.9c-11.06-3.93-14.84-17.11-5.8-25.26l1.08-.88,0,0C1002.86,430.49,1005.79,431.43,1006.89,428.64Z" transform="translate(-745.02 -256.49)"/><path class="cls-14" d="M978.64,382.4l-10.57-.08c-.3-.88-3.72-1.82,0-2.61,3.86-.82,7.65.81,11.59.61C981.1,380.24,978.79,381.55,978.64,382.4Z" transform="translate(-745.02 -256.49)"/><path class="cls-10" d="M1020.8,432.53a12.34,12.34,0,0,1-7-3.88C1017.12,428.11,1019.76,428.88,1020.8,432.53Z" transform="translate(-745.02 -256.49)"/><path class="cls-10" d="M1006.89,428.64c-1.1,2.79-4,1.85-6,2.93C1001,426.76,1004.59,429,1006.89,428.64Z" transform="translate(-745.02 -256.49)"/><path class="cls-10" d="M1000.86,431.59l-1.08.88Z" transform="translate(-745.02 -256.49)"/><path class="cls-11" d="M1036.82,326.62c-.87,2.91-3.24,1.64-5.08,1.83C1032.64,325.63,1035,326.79,1036.82,326.62Z" transform="translate(-745.02 -256.49)"/><path class="cls-11" d="M1042.8,325.52c-.76,1.09-1.89,1-3,1C1040.26,324.54,1041.22,324.06,1042.8,325.52Z" transform="translate(-745.02 -256.49)"/><path class="cls-10" d="M818,314.11l-.65-.5a5.89,5.89,0,0,1,.61-.51c.06,0,.36.19.35.24A5.63,5.63,0,0,1,818,314.11Z" transform="translate(-745.02 -256.49)"/><path class="cls-11" d="M1045.73,719.36c3,3.68,7.51,6.6,5.89,12.45-.46,1.65.84,1.37,1.71,1.58,2.73.64,4.73,2.11,5.49,4.93-1.61,1.39-4.48,1.6-4.3,4.72,0,.38-.84,1.07-1.38,1.18-9,1.78-17.78,4.65-27.34,2.6-6.41-1.37-13.18-1.19-19.79-1.35-8.14-.21-16.32.44-24.41-.24-5.4-.45-10.73-2.32-16-4-3.36-1.08-3.81-3.21-.31-5,2-1.06,3.76-2.18,3.53-4.82,8.55-2.3,17.1.55,25.64,0a240.09,240.09,0,0,0,29.37-4.08c5.56-1.46,11.12-2.89,16.66-4.4a2.93,2.93,0,0,0,2.32-2.35Z" transform="translate(-745.02 -256.49)"/><path class="cls-11" d="M906.06,726.34l1.72,0c0,1.38.18,2.61,1.78,3.15,1.13.38,2.24,1,1.62,2.51-.53,1.27-1.77,1.32-3,1.22a3.86,3.86,0,0,1-.49-.1c-2.66-.57-6.05-2.28-7.45,1.1-1.59,3.84,2.42,5.12,4.76,7,1.46,1.18,3.81,1.63,3.67,4.21-10.91-6.15-20.7-13.6-27.86-24.07a2.31,2.31,0,0,1-.16-2.8c6.74,4.36,14.43,5.83,22.24,6.91C903.4,728,904.6,727.65,906.06,726.34Z" transform="translate(-745.02 -256.49)"/><path class="cls-10" d="M1128.37,480.7c-5-7.22-6.09-14.56-7.9-21.8-1.28-5.13-3.35-10.1-4.6-15.35-1.18-4.9-1.33-9.95-2.86-14.83-.76-2.39-1.48-4.93-2.13-7.43-.27-1-.56-2.6.8-3.05,1.57-.52,2.09,1,2,2.1-.17,2.51,1,3.94,3,5.14s1.64,3.79,2.4,5.72c2.49,6.36,5.36,12.34,6.1,19.5.88,8.51,3.46,16.88,3.54,25.57C1128.78,477.39,1128.58,478.52,1128.37,480.7Z" transform="translate(-745.02 -256.49)"/><path class="cls-7" d="M1074.74,380.59c-4.11.19-8.25-.48-12.33.82-2.36.75-3.92-.9-5.77-2.91,5.39,0,10.32,0,15.25,0,1.45,0,2.63.34,3,2Z" transform="translate(-745.02 -256.49)"/><path class="cls-6" d="M1095.75,600.39c.68-5.93,4.24-9.85,9-12.95-.32,3.17-3.63,4.87-4,8,0,.32,0,.64,0,1a2,2,0,0,0-2,2Z" transform="translate(-745.02 -256.49)"/><path class="cls-6" d="M1093.81,602.47a2,2,0,0,1,1.91-2.05A1.83,1.83,0,0,1,1093.81,602.47Z" transform="translate(-745.02 -256.49)"/><path class="cls-14" d="M1132.28,591.73l-.82.11a4.36,4.36,0,0,1,.09-.8c0-.06.39-.11.41-.07A5.57,5.57,0,0,1,1132.28,591.73Z" transform="translate(-745.02 -256.49)"/><path class="cls-14" d="M1098.79,598.45a2,2,0,0,1,2-2A1.9,1.9,0,0,1,1098.79,598.45Z" transform="translate(-745.02 -256.49)"/><path class="cls-9" d="M906.06,726.34c-1.46,1.31-2.66,1.64-3.13-.82Z" transform="translate(-745.02 -256.49)"/><path class="cls-6" d="M1108.78,581.43c2.19-5.2,4.11-10.6,10-13C1116,573.18,1115,579.31,1108.78,581.43Z" transform="translate(-745.02 -256.49)"/><path class="cls-16" d="M1003.82,265.57l-.19.33.18-.34Z" transform="translate(-745.02 -256.49)"/><path class="cls-9" d="M973.83,428.49c-9.44,1-18.18-11.19-16.91-20.18.68-4.82,10.66-11.29,16-10.66,8.28,1,17.32,11.39,17,19.56-.22,5.09-2.83,8.47-7.86,9.28C979.09,427,976.74,429.62,973.83,428.49Z" transform="translate(-745.02 -256.49)"/><path d="M1174.46,354.46a36.07,36.07,0,0,1-13.2-12.7,34.84,34.84,0,0,1,0-35.6,36.55,36.55,0,0,1,31.3-17.4,36.57,36.57,0,0,1,18.31,4.7,36,36,0,0,1,13.19,12.7,34.78,34.78,0,0,1,0,35.6,36,36,0,0,1-13.19,12.7,36.57,36.57,0,0,1-18.31,4.7A36.17,36.17,0,0,1,1174.46,354.46Zm30.3-18.2a16.88,16.88,0,0,0,4.8-12.3,16.62,16.62,0,0,0-4.8-12.1,16.33,16.33,0,0,0-12.2-4.9,16.1,16.1,0,0,0-12,4.9,16.66,16.66,0,0,0-4.8,12.1,16.92,16.92,0,0,0,4.8,12.3,16.1,16.1,0,0,0,12,4.9A16.33,16.33,0,0,0,1204.76,336.26Z" transform="translate(-745.02 -256.49)"/></svg>