<?xml version="1.0" encoding="utf-8"?>
<!-- Generator: Adobe Illustrator 26.0.0, SVG Export Plug-In . SVG Version: 6.00 Build 0)  -->
<svg version="1.1" id="Calque_1" xmlns="http://www.w3.org/2000/svg" xmlns:xlink="http://www.w3.org/1999/xlink" x="0px" y="0px"
	 viewBox="0 0 511.6 713.1" style="enable-background:new 0 0 511.6 713.1;" xml:space="preserve">
<style type="text/css">
	.st0{fill:#252126;}
	.st1{fill:#49464C;}
	.st2{fill:#272323;}
	.st3{fill:#FAC729;}
	.st4{fill:#352115;}
	.st5{fill:#FCDC50;}
	.st6{fill:#FCC516;}
	.st7{fill:#FDC211;}
	.st8{enable-background:new    ;}
	.st9{fill:#FFFFFF;}
</style>
<g id="logo">
	<g id="Logo-2">
		<path class="st0" d="M271.4,712.9l-0.8,0.1l-3.5,0.1l-5.8-0.1h-15.1l-13.4-0.8c-38.7-2.2-58.4-10.5-58.4-10.5
			c-14.5-5.6-28.3-12.8-41.1-21.5c-8-5.5-15.6-11.8-16.3-12.4c-6.6-5.5-11.3-10.1-12.5-11.3c-6-6-11.7-12.3-17-19
			c-1.5-1.9-4.6-5.8-9.4-12.5c-10-14.1-19.3-28.7-27.7-43.7c-3.6-6.5-6.8-12.4-10.7-20.7c-3.1-6.6-5.8-13.3-8.5-20
			c-2.2-5.6-4.3-11.2-6.4-16.8c-1.1-2.9-2.1-5.8-3.2-8.8c-0.1-0.6-0.2-1.3-0.3-1.9c-1.2-4-2.5-7.9-3.7-11.9l-0.8-1.1
			c-0.6-2.4-1.2-4.9-1.8-7.3c-1.2-4.9-2.3-9.7-3.5-14.6c-1.4-6.2-2.8-12.4-4.2-18.6l-0.5-3.2c-0.1-0.3-0.2-0.5-0.2-0.8
			c-0.2-1.2-0.4-2.4-0.5-3.5c-0.1-0.6-0.2-1.2-0.4-1.8L5,445.6c-0.1-0.3-0.1-0.6-0.2-0.9c0-0.4-0.1-0.9-0.1-1.3l-0.4-2.3l-0.2-1
			c-0.1-0.9-0.2-1.7-0.3-2.6c-0.2-1.5-0.4-3-0.6-4.4c0-0.3-0.1-0.6-0.1-0.9c-0.9-10.6-1.9-21.3-2.8-31.9c0-0.5,0-0.9-0.1-1.3
			c-0.1-3.5-0.3-7-0.2-10.6c0.2-11.1,0.6-22.2,0.9-33.3c0-0.3,0-0.6,0-0.9l0.3-2.2c0-0.3,0-0.6,0.1-0.9l1.2-10.6l0.2-1.4
			c0.6-3.8,1.2-7.7,1.7-11.5c0-0.3,0-0.6,0.1-0.9l2-11c0-0.3,0.1-0.6,0.2-1l1.7-7.9c0.2-0.8,0.3-1.5,0.5-2.3c0.7-2.9,1.3-5.9,2-8.8
			l0.2-1c0.8-2.9,1.6-5.9,2.3-8.8c0.1-0.3,0.2-0.6,0.3-0.9l3.1-10.2c0.1-0.1,0.1-0.2,0.1-0.4c0.2-0.5,0.3-0.9,0.5-1.4
			c0.9-2.6,1.8-5.3,2.7-7.9l0.7-1.8l1.3-3.5c0.1-0.3,0.2-0.5,0.3-0.8l0.6-1.9l0.8-1.8l4.1-9.7l0.8-1.8l0.1-0.1v-0.1l0.8-1.5l3.5-7.1
			l0.5-1c0.1-0.1,0.2-0.2,0.2-0.3c0.7-1.3,1.4-2.6,2.1-4l0.5-0.9l0.6-1l5.1-9.2l1.2-1.7c0.4-0.7,0.8-1.4,1.2-2.1
			c1.1-1.7,2.1-3.3,3.2-5l1.9-4l0,0l1.3-1.2l0.6-1l0.8-1.2c0.2-0.3,0.4-0.7,0.6-1l1-1.4l0.8-1.2c0.3-0.4,0.6-0.9,0.9-1.3l1.2-1.8
			l0.9-1.3l1.4-2l1.7-2.5c1-1.4,2.1-2.8,3.1-4.2l2.1-2.9c0.3-0.4,0.7-0.9,1-1.3c0.6-0.7,1.1-1.5,1.7-2.2l5-6.3
			c0.1,0,0.2-0.1,0.2-0.2l1.9-2.3l4.3-5c0.1,0,0.2-0.1,0.2-0.2c1.9-2.2,3.7-4.4,5.6-6.5c2.9-3,5.8-5.8,8.8-8.8l1.1-1.1
			c4.2-4.1,8.2-8.4,12.6-12.3c7.2-6.4,14.7-12.4,22.1-18.7c1.3-1.1,2.4-2.7,3.8-3.7c1.9-1.3,4.2-2.1,6.1-3.5
			c9.6-7.2,19.6-13.6,30.2-19.2l1.7-0.8l2.8-1.4l3-0.6l-1.8,1.4l-1.7,0.7l-1,0.9l0,0c-0.8,0.4-1.6,0.9-2.4,1.4
			c-4,3-8.1,5.9-12.1,8.9c-12.6,9.3-24.2,19.8-34.6,31.5c-13.3,15-24.4,31.4-34.5,48.6c-15.9,27-28.9,55.1-36.5,85.6
			c-4.2,17-7.3,34-6.4,51.6c0.5,9.9,2.3,19.5,6.9,28.3c1.1,2.1,1.4,4.6,0.8,6.9c-1.7,9.9-3.8,19.7-4.6,29.7
			c-1,12.4-1.2,24.9-1.1,37.3c0.1,19.6,2.5,39.2,7,58.3c1.3,5.4,2.9,10.7,4.7,16c2.5,7.3,5.2,14.4,7.9,21.6c0.2,0.5,0.3,1.1,0.6,1.7
			c10,21.9,23.6,42,40.3,59.3c8,8.3,16.2,16.6,26.5,22.3c9.8,5.5,20,10.4,30,15.5c1.8,0.8,3.7,1.5,5.6,2c1.6,0.5,2.9,0.3,2.9-2
			c0-2,0.1-4,0.4-5.9c0.8-5.4-1.9-8.5-6.5-10.8c-19.3-9.7-36.2-22.7-51.4-37.9c-9.8-9.9-18.6-20.7-26.5-32.3l-0.1-0.1l-2.5-3.9
			l-1.3-1.9c-0.2-0.3-0.5-0.7-0.7-1l-0.3-0.5l0,0l-0.7-1.4l-0.9-1.4l-1.6-2.6l-0.5-0.9l-2-3.6l-0.5-0.9c-1-1.6-2.1-3.2-2.9-4.9
			c-1.3-2.6-2.3-5.3-3.5-8c-1.5-3.1-2.8-6.2-4-9.5c-1.4-4.4-2.3-9-3.5-13.5c-3.2-12.5-5.3-25.3-6.2-38.2
			c-2.3-29.5-0.8-59.2,4.4-88.4c5.2-28.5,17.6-55.2,36-77.6c14.5-17.8,31.5-32.7,51.8-43.6c7.1-3.8,13.5-8.8,18.9-14.8
			c7.7-8.5,13.9-17.8,16.1-29.2c3.2-16.6,6.2-33.2,9.2-49.8c0.7-3.9,1.2-7.9,1.8-11.8c0.5-3,1.1-6.1,1.7-9.1c0-0.3,0.1-0.6,0.1-0.9
			c0.2-0.6,0.4-1.2,0.5-1.9c0.2-1.3,0.2-2.7,0.5-4c0.5-2.7,1.2-5.4,1.7-8.2c0.7-3.6,1.4-7.2,2-10.8c0.7-4.1,1.3-8.2,2-12.3
			c0.3-1.7,0.6-3.4,0.9-5c1-4.5,2-9,3-13.6c-1.2-0.3-2.3-0.6-3.4-1.1c-2.2-1.1-5.3-1.8-5.4-4.9c-0.1-3.4,0.1-6.8,0.6-10.1
			c0.8-4.8,1.9-9.5,3-14.2c0.9-3.6,2-7.2,3-10.8c2.1-4.1,5.7-7.1,10.1-8.5c5.9-1.9,11.9-3.3,17.8-5c0.4-0.1,0.8-0.2,1.3-0.3
			c8.9-1.3,17.9-1.6,26.8-1.1c9.5,0.6,18.8,2.6,27.7,5.9c8,3.1,13.1,8.3,14.2,17.1c0.9,7.2,2.2,14.4,3.3,21.6
			c0.8,5.5-0.2,7.2-5.1,9.7c-1.2,0.3-2.4,0.6-3.7,0.8c-1.6,0.2-2.1,1-1.9,2.5c1.4,9.3,2.8,18.5,4.2,27.8c0.8,5,1.6,9.9,2.3,14.9
			c1,7.2,1.9,14.4,2.9,21.5c1.2,8.7,2.6,17.3,3.9,26c1.1,7.5,2,14.9,3.2,22.4c1.6,10.2,3.2,20.5,4.8,30.7c1.1,6.8,2.9,13.3,6.5,19.2
			l2.8,3.7c3.8,4.7,8.9,8,14,11c18.5,11.1,35.7,23.7,50.7,39.3c21.4,22.4,37.3,48,46.6,77.5c2.5,7.9,4.1,16,6.1,24l0.1,0.9l1.7,12
			c0,0.3,0,0.6,0.1,0.9l0.7,7.1c0,0.3,0,0.6,0,0.9c0.2,2.4,0.3,4.7,0.4,7.1c0,0.3,0,0.6,0,0.9c0,3,0.1,5.9,0.1,8.8v1.3l-0.9,18.5
			l-0.1,1c-1.7,9.9-3.5,19.7-5.2,29.5c-0.1,0.5-0.2,0.9-0.3,1.4l-1.3,5.1c-0.1,0.3-0.3,0.5-0.3,0.8c-6.7,26-18.5,50.4-34.7,71.7
			c-15.6,20.5-34.1,37.8-56.3,51.1c-3.6,2.2-7,4.6-10.4,7.1c-0.9,0.8-1.5,1.9-1.5,3.1c0,4.1,0.3,8.2,0.7,12.3c0,0.5,1.3,1.4,1.9,1.3
			c1.6-0.3,3.1-0.8,4.6-1.5c15.2-6.9,29.4-15.8,42.3-26.3c20.1-16.3,36.5-36.7,48.3-59.7c3-5.9,5.4-12,8.2-18.1l2.2-6.1
			c0.2-0.5,0.4-1,0.6-1.5c0.7-2.3,1.4-4.5,2.1-6.8l0.7-2l0.8-2.6l0.5-1.8c0.6-2.5,1.3-5,1.9-7.5l0.3-0.9c1.1-5.4,2.2-10.9,3.3-16.3
			c0.1-0.5,0.2-1,0.3-1.4l1.2-7.9l0.1-0.9c0.5-6.1,0.9-12.1,1.4-18.2c0-0.5-0.1-0.9-0.1-1.4c0.2-4.9,0.7-9.7,0.7-14.6
			c0-4.3-0.7-8.6-1-12.9c-0.3-3.8-0.3-7.6-0.8-11.4c-0.6-4.2-1.5-8.4-2.3-12.6c-1.2-6.3-2.4-12.7-3.4-19.1c-0.1-1.5,0.1-3,0.8-4.3
			c1.8-3.8,4.2-7.3,5.6-11.2c3.7-9.7,4.8-19.9,5.3-30.1c0.8-19.5-2.9-38.3-8.4-56.9c-11.5-39.2-29.1-76.4-52.1-110.2
			c-16.9-25-38.5-46.6-63.5-63.6c-0.3-0.3-0.6-0.7-0.8-1.1c2.5,1.2,5.2,2.2,7.6,3.6c3.4,1.9,6.7,4.1,10.1,6.2l0.7,0.4l6.8,4.6
			l1.3,0.9l4.6,3.3c0.4,0.2,0.7,0.4,1.1,0.6l1.9,1.4l2.2,1.7l2.3,1.8l1.7,1.4l2.3,1.9l1.1,1c0.9,0.8,1.9,1.6,2.8,2.3l1.8,1.3
			l2.1,1.8l4,3.5l0.7,0.5l1.1,1c0,0.1,0.1,0.2,0.2,0.2c0,0,0,0,0,0l1,1l1.4,1.5l12.2,11.3l2.6,2.7l1.8,1.8l1.3,1.4l2.2,2.2l0.8,0.9
			l6.3,7.1l0.8,0.9l5.7,6.7l3.2,3.3l0.1,0.7c1.2,1.5,2.3,2.9,3.5,4.4l0.8,1l1.9,2.3l1.2,1.7c0.9,1.2,1.8,2.4,2.7,3.5l2.8,3.6
			c0.6,0.9,1.2,1.7,1.8,2.5c1.4,2.1,2.8,4.2,4.3,6.3c0.7,0.9,1.5,1.8,2.3,2.6l3,5.3l1,1.4l1.4,2.2l1.7,2.6l4,6.6
			c1.1,1.9,2.2,3.9,3.3,5.8l1.2,2.1l1.4,2.6l0.4,0.9l0.9,1.9l0.6,1c0.9,1.7,1.8,3.4,2.7,5.1c0.4,0.9,0.9,1.8,1.3,2.7
			c0.7,1.6,1.5,3.1,2.2,4.7l0.8,1.9c0.3,0.7,0.7,1.5,1,2.2l1,2.2l4.7,11.6c0.3,0.9,0.7,1.7,1,2.6c0.9,2.4,1.7,4.7,2.6,7.1
			c0.2,0.8,0.5,1.5,0.7,2.3c0.2,0.6,0.4,1.1,0.7,1.7c0.3,0.9,0.6,1.8,0.9,2.7c0.2,0.6,0.4,1.2,0.6,1.9l1.5,4.8l2.6,9.1
			c0.1,0.5,0.2,1,0.3,1.5c-0.1,0.1,0,0.3,0.1,0.3c0,0,0,0,0,0c0.2,1.1,0.5,2.1,0.7,3.2c0.2,0.9,0.5,1.7,0.7,2.6
			c1,4.7,2.1,9.4,3.1,14.2l0.3,1.3c0.1,0.4,0.1,0.9,0.2,1.3c0.4,1.9,0.7,3.8,1.1,5.8c0.4,2.7,0.8,5.3,1.2,8
			c0.4,4.3,0.7,8.6,1.2,12.9c0.1,0.4,0.3,0.8,0.6,1.1c0,1.1-0.1,2.1-0.1,3.2c0.2,0.9,0.4,1.8,0.6,2.7c0,1.2-0.1,2.3-0.2,3.5
			c0.2,0.6,0.4,1.1,0.6,1.7c0.2,5.2,0.4,10.4,0.7,15.6v2.2c0,0.3,0,0.6,0,0.9c0,0.7-0.1,1.3-0.1,2c0.3,16.6-0.3,33.2-1.8,49.7
			c-0.5,5.3-1.5,10.5-2.2,15.8c-0.4,3.3-0.7,6.6-1.2,9.9c-0.5,3-1.3,6-1.9,9c-0.8,4-1.5,8-2.4,12c-1.2,5.3-2.3,10.5-3.8,15.8
			c-2,7.5-4.1,14.9-6.5,22.3c-2.5,7.8-5.4,15.5-8.2,23.3c-1.6,4.3-3.1,8.7-4.9,12.9s-4.1,8.5-6.1,12.7c-0.9,1.8-1.4,3.8-2.3,5.5
			c-1.7,3.2-3.5,6.2-5.3,9.4c-1.1,1.9-2,3.9-3,5.8c-2.8,5-5.7,9.9-8.5,14.9c-0.3,0.5-0.6,0.9-0.9,1.4l-3.6,5.8
			c-0.2,0.3-0.3,0.6-0.5,0.9l-4.3,6.7l-0.4,0.4l-1.9,3.1c0,0-2.7,4.3-5.8,8.6c-22.1,30.2-59.8,58.3-59.8,58.3
			c-3.3,2.5-5,3.8-7.5,5.4c-12.9,8.4-27.1,14.5-42.1,18c-12.9,3.2-30.5,5.7-32.6,6.1c-0.1,0-0.7,0.2-1.4,0.2l-0.9,0.1l-2.7,0.2
			l-2.1,0.3l-1.8,0.3h-0.7h-0.5l-0.9,0.1C279.1,712.2,275.3,712.4,271.4,712.9z M150,546.3l0.5,0.4l8.5,7l0.8,0.6l3.1,2.3l0.4,0.3
			l2.9,2l0.7,0.6l0.6,0.3l2.6,1.8l0.6,0.7c-1,1-0.2,1.3,0.6,1.8c1.9,1.3,3.8,2.8,5.6,4.2c0.3,0.2,0.7,0.4,1.1,0.5
			c0.8,0.2,1.6,0.4,2.3,0.7c1.5,0.7,2.9,1.7,4.5,2.4c2.4,1,3.1,2.1,3.4,5c0.6-0.6,1.2-1.3,1.8-2c2.5,1,5.5,1.3,6.6,4.7
			c0.3,0.3,0.7,0.3,1.1,0.2c1.5-1.3,2.5-0.6,3.5,0.6l-2.3,0.9c1.6,1.3,3,2.4,5,2.2c0.5-0.1,0.9-0.8,1.3-1.3c0.7,0.4,1.4,0.7,2.2,0.8
			c2.7,0.1,5.2,0.3,6.9,2.7c0.2,0.2,0.5,0.3,0.8,0.3c2.3-0.1,3.1,0.6,2.8,2.8c0.7,0,1.5,0.2,1.9-0.2c2.2-2,4.7-0.5,6.9-0.3
			c2.3,0.2,4.4,1.6,6.9,1.5c2.8-0.1,5.7,0.6,8.5,0.8c4,0.3,8.1,0.3,12.1,0.6c4.7,0.3,9.2,0.7,13.9-0.4c4-1,8.2-1,12.3-1.5
			c-0.8,0.5-1.5,0.9-2.3,1.4c0,0.2-0.1,0.3-0.1,0.5h3.1l-0.7-1.9c2.1-0.4,4.2-0.9,6.2-1.3c1.1-0.2,2.2-0.7,3.4-0.8
			c2.1-0.3,4.3,0,6.2-0.6c2.2-0.7,4.2-2.2,6.2-3.4c0.1-0.1,0.1-0.3,0.1-0.4l10.2-5.3c0.7-0.4,1.5-0.8,2.2-1.2
			c0.5-0.3,1.1-0.6,1.7-0.8c0.5,0,1,0,1.5,0.1l0.1-0.4l-1.4-0.7l6-2.7l0,0l0.9-1.3l3.4-1.8c1.7,0.2,3.3,0.1,3.9-2h0.1h-0.1l5.2,1.3
			l-1.6-2c0.6-0.2,1.2-0.5,1.8-0.8c1.5-0.9,2.9-1.9,4.3-2.8c0.1-0.1,0-0.4,0-0.6l2.4-0.6l1.2,1l5.5-0.8c-1.2-0.9-1.9-1.4-3-2.1
			l5-2.6l-0.7-0.7c2.8-2.2,5.3-4.6,8.3-6.3c1.4-0.8,2.8-3.5,5.6-1c-1-2.8,0.4-3.4,2.2-4c1.8-0.6,2.1-1.6,0.7-3.2l0,0
			c0.7-0.2,1.3-0.5,1.9-0.8c2.7-2.1,5.3-4.3,8-6.4c0.8-0.6,2.2-1,2.4-1.7c0.3-1.2,1.3-1.5,1.8-2.2c1-1.2,2.9-2.5,1.9-4.7l3.7,2
			c-0.4-1.3-0.8-2.3-1.3-3.8l5.7-5.5l-1-1.5l2.2-0.6l-0.3-0.2l2.9-2.9c0.2-1.3,0.4-2.5,0.7-3.8c0.2-0.9,0.4-1.9,0.7-2.8l2.6-0.3
			c0.1-1.1,0.3-2.2,0.6-3.3c0.3-1.2,0.9-2.3,1.3-3.5c1.8-0.3,3.1-2.8,2.5-5.2l6.4-14.3l0,0c1.2-3,2.3-5.9,3.5-8.9
			c3.7-9.2,5.3-18.8,6.2-28.6c0.2-3.1,0-6.3-0.6-9.4c-0.3-2.4-2.3-4.3-4.8-4.5c-0.3,0-0.5,0-0.8,0c-0.1,0.8-0.1,1.6-0.2,2.4h-0.6
			c-0.1-0.8-0.2-1.5-0.2-2.3c-1.3-0.1-1.8,0.4-1.8,1.7c0,0.5-0.6,1.1-0.9,1.7c-0.3-0.6-0.6-1.2-0.8-1.8c-0.1-0.5-0.2-0.9-0.3-1.4
			c-0.5,1-0.7,2.2-0.4,3.3c1.1,2.4,1.1,5.2,0,7.6c-0.4,0.8-0.3,1.8,0.1,2.5c1.7,2.3,1.6,5,1.6,7.6l0,0l-1.8-4
			c-0.2,3.9-3.1,3.4-5.3,3.9c-0.6,0.1-1.5,0.6-1.5,1c-0.3,1.8-0.3,3.6,0,5.4c0.1,0.5,1.8,0.8,2.7,1.1c-0.4,1.8-0.8,3.7-1.3,5.6
			c-0.1,0.4-0.6,0.7-1.4,1h0.3v-5h-0.3c-0.1,1.7,0.1,3.3,0.6,5c-0.1,0.5-0.2,1-0.2,1.5c-0.7-0.4-1.4-0.8-2.1-1.3
			c-0.6-0.5-1.5-1.2-1.6-1.9c-0.3-3.6-0.5-7.2-0.5-10.7c0-0.8,0.7-1.6,1.1-2.5l0.9,0.1c-0.3-1.4-0.7-2.7-1-4.1
			c-0.5-2.4-1.4-4.8-1.3-7.2c0.1-2-0.3-2.3-2-2.2v-0.5c0.4-0.7,1.4-1.7,1.2-2.1c-0.8-1.6-1.7-3.8-3.1-4.3c-2-0.6-4.2-0.6-6.2,0
			c-2.8,0.7-5.4,1.2-8.1-0.1c-0.6-0.3-1.4,0-2.1,0.1c-0.5,0.1-1,0.1-1.5,0.1c-1.1-0.1-2.2-0.2-3.4-0.4c-0.2,1-0.3,1.6-0.4,2.3
			l-0.7-0.5l0,0l-0.9-1.7c-0.4,0.5-0.6,1.1-0.9,1.7c-0.6,2.3-1.2,4.6-1.8,6.9l-0.7-0.1c-0.1-0.5-0.2-1.1-0.1-1.6
			c0.4-1.5,1-2.8,1.4-4.3c0.4-1.7,0.8-3.4-1.6-4c0-0.3,0-0.6,0-0.8l0.2-0.9c0.7-2.3,1.2-4.6,2-6.9c0.3-0.8,1.2-1.3,1.9-2l1.3-0.1
			h0.9h1.8l4.9-0.2l5.3-0.2h2.2l3.5-0.1h1.3l2.7,0c8-0.1,16-0.2,24.1-0.4c0.7,0,1.6,0,1.9-0.4c0.8-0.9,1.3-2,1.4-3.1
			c0-0.6-1.2-1.6-1.9-1.8c-1.7-0.3-3.3-0.5-5-0.5L403,409l-1.8-0.1l-3.1-0.1h-0.9l-12-0.8l-2.2-0.2c-3.2-0.3-6.4-0.5-9.5-0.8
			c-0.6-0.1-1.1-0.7-1.6-1.1v-1.3c0-1.3,0-2.7,0-4c-0.3-6.7-0.7-13.3-1-20c-0.3-1.9-0.7-3.8-1-5.7c0-0.3-0.1-0.6-0.1-1
			c-0.2-0.7-0.3-1.4-0.5-2.2c-0.8-3-1.7-5.9-2.5-8.9l-0.4-1.3l-3.2-8c-0.5-1.1-1.1-2.3-1.6-3.4l-2.3-4.2c-0.2-0.3-0.3-0.5-0.5-0.8
			c-1.3-2.1-2.6-4.1-3.9-6.2l-3.5-4.7l-0.5-0.6l-2.2-2.8l-0.1,0.1l0.1-0.1c-0.2-0.2-0.4-0.5-0.6-0.7c-0.9-0.6-1.7-1.4-2.4-2.3
			c-2.2-4.1-6-6.8-9.1-10.1l-1-0.8l-0.4-0.5l0.4-0.3l10.2,5.5l1.3,0.8l3.1,2.4l0.8,0.6l6.3,5.3l1.3,1.8l3.8,4.4l3.3,4.3
			c0.1,0.3,0.3,0.5,0.4,0.8c6.8,9.9,11.8,20.6,13.9,32.4c1,5.8,2,11.6,2.8,17.4c0.3,1.9,1.2,2.2,2.4,1.2c1.5-1,2.8-2.3,3.7-3.9
			c5.1-10.1,6.9-20.9,4.6-32c-1.2-5.8-3.9-11.2-5.9-16.8l0.3-0.4c3.6,3.3,7.7,6.3,10.8,10c6.3,7.8,9.4,17.2,12.5,26.7
			c0.4,1.4,1,2.7,1.5,4.1c2.9-1.4,3.8-3.8,4.3-6.4c1.7-9.7,0-19.1-2.6-28.4c-3.6-12.8-10-24.2-17.4-35.1
			c-18.2-27.2-41.7-48.6-71.2-63c-24.6-12.1-52.1-17.2-79.5-14.9c-23.7,1.9-46.1,8.1-66.8,19.9c-14.1,8.1-27.4,17.5-38.9,29
			c-8.5,8.5-19.1,10.6-30.3,11.7c5.1-10,12.1-18.8,20.7-26c8.8-7.5,18.7-13.4,28.6-19.1c6.5-3.8,12.8-8,18-13.5
			c12.1-12.7,21-27.3,25.5-44.4l2.5-1l-0.6-1.3l1.1-0.6c0.2-1.9,0.2-3.3,0.5-4.7c0.3-0.7,0.6-1.4,1.1-2c0.5,0.7,1.5,1.4,1.4,2
			c-0.5,4.2,2.1,7.7,2.7,11.6c-2,1-2,1.1-1.1,3c2.1-2,2.1-2,3.2,0.9c0.1,0.3,0.3,0.5,0.5,0.8c1,1.3,2.4,2.5,2.8,4
			c0.7,2.7,3,3.8,4.6,5.6c0.4,0.4,1,0.6,1.6,0.5c2.7-1,4,0.9,5.4,2.4c-0.5,0.3-1.1,0.7-1.6,1.1c-0.1,0.1,0.2,0.7,0.2,0.7
			c1.3-0.1,2.7-0.2,4-0.4c0.6-0.1,1.2-0.3,1.8-0.6c1.7,0.8,3.4,1.5,5.2,2.1c1.8,0.5,3.8,0.5,5.7,1c4.2,1,3.8,1.3,5.2,0.3l-1.5-0.5
			l3.5-0.6h4.3c-1.6,0.8-3.7,0.9-3,3.5l0,0c-0.9-0.1-1.9,0-2.8,0.1c-0.6,0.3-1.2,0.7-1.5,1.4c-0.1,0.2,0.5,0.8,0.8,1.2l0,0
			c0.7,0.3,1.5,0.9,2.2,0.9c8-0.4,16.1,0.7,24.2-0.6c3-0.5,5.5-1.9,8.3-2.6c3.3-0.8,4.6-4.1,6.2-6.7c2.2-3.6,1.6-7.8,2.4-11.8
			c0.4-1.9-0.5-4-0.7-6c-0.4-3.8-0.7-7.7-0.9-11.5c-0.1-2.8,0-5.5,0-7.9c-0.4-0.5-0.8-0.8-0.9-1.2c-0.3-1.8-0.6-3.7-0.8-5.5
			c0-0.3,0.2-0.7,0.2-1c0.2-1.3,0.2-2.7,0.1-4c-0.2-1.5-1.1-2.9-1.2-4.4c-0.4-3.9-0.6-7.9-1-11.8c-0.3-3.1-0.6-6.2-0.9-9.3
			c-0.3-4-0.6-8-0.9-12c-0.3-3.2-0.7-6.5-1-9.7c-0.5-5.1-1.2-10.1-1.6-15.2c-0.2-2.2,0-4.4-0.1-6.5c-0.1-0.9-0.2-1.7-0.5-2.6
			c-0.7-3-1.4-6.1-2.2-9.1c-0.4-1.3-0.9-2.6-1.5-3.9l-2.7,1.3c-0.6-4.2-0.9-4.8-2.8-4.7c0.2-2,0.4-3.9,0.6-5.8
			c-0.1-0.9,0.6-1.7,1.6-1.8c0.1,0,0.3,0,0.4,0c0.5,0,1.1-0.6,1.7-0.9l-3.2-1.6l-3.7-2h6.9c-0.1-0.8-0.2-1.2-0.3-2.1
			c1.7,0.4,3,0.7,4.4,1c2.2,0.5,4.4,0.8,6.6,1c0.7,0,1.4-1,2.1-1.6l-0.7-0.8l-6.5-2.6c-0.2-0.9-0.3-1.8-0.5-2.7
			c-2.4,0.7-2.3,0.4-5.8,0c-3.9-0.6-7.9-0.6-11.9-1c-3-0.2-5.9-0.8-8.8-0.8c-4,0-8,0.5-12.1,0.8c-8.3,0.7-16.7,0.7-24.5,4.4
			c-2,1-2.3,1.6-1.1,3.6c-0.1,0.5-0.3,0.9-0.5,1.4c-0.8,1.4-0.6,2.5,1,3.1c-0.5,1.1-0.9,2.2-1.3,3.3c-1.7,7.6-3.6,15.2-5,22.9
			c-5.4,29.5-10.8,59-16,88.6c-2.2,11.6-7,22.5-14.2,31.8c-7.6,10.1-17.4,17.5-28.3,23.6c-24.1,13.4-43.2,32.1-58.1,55.2
			c-15.1,23.5-23.3,49.4-26.5,77.1c-2.3,19.7-2.9,39.5-1.8,59.2c1,17.2,3.7,34.2,9.2,50.6c8.4,24.6,21.8,47.1,39.5,66.1
			c16.2,17.6,34.7,31.8,57,40.9c1.2,0.5,2.3,1,3.5,1.5l0.3-0.5c-2.8-1.7-5.7-3.2-8.5-5c-23.4-15.3-43.9-34.6-60.6-57
			c-15-20.3-25.2-42.7-29.6-67.6c-3.5-19.7-3.9-39.6-3.1-59.6c0.5-14,3.4-27.7,8.6-40.7c3.2-8,7.6-15.1,15.2-19.8
			c4.5-2.8,9.5-3.9,14.5-5.2c7.2-1.8,12.3-6,16.1-12.2c2.7-4.7,5.6-9.2,8.7-13.6c11.8-15.6,27-27,44.3-35.8
			c14-7.2,28.9-11.8,44.1-15.5l6.1-1.5c-0.8,0.9-1.8,1.6-2.8,2.3c-8.9,6.5-8.2,18.2,1.4,23.5c1.4,0.9,3,1.5,4.7,1.9
			c5.6,0.9,11.2,1.8,16.8,2.1c12,0.7,24,1.9,35.4,5.9c5.4,1.9,10.7,4.2,16.1,6.4c-0.1,0.2-0.2,0.5-0.2,0.7l-1.2,0.3l-2.7-0.3
			l-11.1-1.2l-0.9-0.1c-4.3-0.4-8.6-0.9-13-1.2c-8.7-0.5-17.4-0.6-26,0.9l-1.8,0.3l-2.2,0.4l-1.4,0.3l-0.8,0.2l-1.8,0.4l-7.1,1.9
			l-5.9,2.1c-0.1-0.1-0.3,0-0.3,0.1l-1.8,0.8l-5.8,2.6l-2.8,1.4l-1,0.5l-4.1,2.2l-2.8,1.6l-2.7,1.8l-1.2,0.8l-4.5,3l-1.2,0.9
			l-2.8,2.3l-1.8,1.5l-1.4,1.2l0.7,0.6h0l-0.9-0.2l-0.7,0.7l-4.9,4.8l-1.5,1.6c-0.7,0.9-1.5,1.8-2.2,2.7c-1.6,2-3.1,4-4.7,5.9
			c-0.3,0.4-0.6,0.8-0.8,1.2l-7.5,11.9c-0.5,1-1,2-1.5,3.1l-0.6,1c-0.5,1-1,2-1.4,3c-0.2,0.5-0.4,0.9-0.5,1.4l-0.6,1.6l-2.6,7.2
			c-0.9,3.7-1.9,7.3-2.8,11c-0.1,0.3-0.2,0.6-0.2,0.9L160,396c-0.3,3.6-0.7,7.2-1.1,10.8l-9.6,1.1l-0.9,0l-7.5,0.4l-1.3,0.1
			l-5.3,0.2l-1.8,0.1l-3.5,0.3h-2.8l-2.6,0.2l-4.8,0.5l-0.9,0.1l-0.9,0.1c-1.5,0.1-2.9,0.3-2.7,2.4l0.9,1.3l2.4,1.1l1.2,0.3l35,1.4
			l2.2,0.1l1.8,0.1l3.2,1.2l0.4,2.2c0.1,0.4,0.2,0.9,0.3,1.3c0.6,3.1,1.2,6.1,1.8,9.2c-2.8,1.4-0.4,3.4-0.5,5.5
			c-0.7-0.4-1.5-0.5-1.6-0.9c-0.2-0.9-0.3-1.8-0.2-2.7l-1.9,0.6c-0.1-0.7-0.3-1.4-0.4-2.1l-1.7,0.2l0.6-1.9h-32l1.4,1.5l0,0
			c-2.4-0.3-3.1,0.2-3.6,2.8c-0.4,2-0.9,3.9-1.3,5.9l-0.3-0.4l0.3,0.4c-0.2,3.2-0.3,6.4-0.5,9.7c0,0.3-0.3,0.6-0.4,1
			c-0.6,2.3-1.2,4.5-1.7,6.8l1,0.2l0.6-3.2c0.5,1,0.9,2.1,1.1,3.2c0.3,1,0.4,2,0.5,3c0.2,4-0.6,8,0.7,12c0.6,1.9,0.1,4.1,0,6.2
			l-1.7,0.2c0.9,2,1.8,3.8,2.6,5.5l-0.6,0.3c-1.2-1.4-3-2.3-3.1-4.6c-0.1-1.5-1.3-1.1-2.2-0.2l-4.8-8c-0.2-1.9-0.3-3.9-2.8-4.4l0,0
			l-0.7-1l0,0l-2.8-8.7l-0.5,0.1c-0.1,1-0.3,2-0.4,3l-2.2-3.2l-1.9-6.3c-0.2-1.2-0.4-2.3-0.6-3.5c-0.7-3.7-1.2-7.4-1.5-11.1
			c-0.1-2.8,0.6-5.6,1.1-8.7c-3.9,1.1-6.9,4.3-7.7,8.2c-2,7.1-1.4,14.2,0,21.3c0,0.4,0.1,0.9,0.2,1.3c2,6.6,4.1,13.2,6.1,19.7
			c-0.1,0.6-0.1,1.2-0.1,1.8c0.9,2.7,1.9,5.4,2.9,8.2c0,0.1,0.1,0.1,0.1,0.2c1.2,2.4,2.4,4.8,3.8,7.1c0.8,1.3,1.7,2.6,2.1,3.3
			c0.2,1.2,0.1,2.1,0.5,2.4c0.8,0.5,1.6,0.9,2.5,1.2c-0.2,0.8-0.4,1.7-0.4,1.9c0.9,0.9,1.5,1.5,2.1,2c1.1,1,2.3,2,3.5,3l6.8,9
			l6.1,7.6l0.4,0.5l1.4,1.7l0.8,1l17.2,16.9L150,546.3z M211.4,44.7c3.8,0.1,4.8-0.5,5.5-3.5c1-4.8,1.9-9.7,2.7-14.6
			c0.3-1.8,1.2-2.4,3-2.1c0,1,0.1,1.9,0,2.9c-0.2,3.5-0.6,7.1-0.8,10.6c0.1,0.8,0.5,1.4,1.2,1.8c1.2,0.3,1.5-0.6,1.6-1.7
			c0.6-4.2,1.4-8.4,2.1-12.6c0.3-1.6,0.7-3.3,2.8-2.9s1.1,2.3,1,3.5c-0.3,3.1-0.9,6.3-1.2,9.4c-0.2,2,0.7,2.8,2.6,2.1
			c0.7-0.4,1.1-1.2,1.3-1.9c0.9-3.9,1.7-7.9,2.6-11.9c0.2-1,0.8-1.8,1.7-2.3c1.4-0.3,2.8-0.5,4.3-0.5c0,1.3,0,2.4,0,3.4
			c-0.1,3.4-0.3,6.8-0.3,10.2c0,1-0.2,2.2,1.4,2.3s2.6-0.3,2.9-2s0.4-3.2,0.6-4.8c0.3-2.5,0.5-5,1-7.4c0.4-1.9,2-2.6,4.3-2.5
			c2,0.1,1.8,1.6,1.9,2.9c0.2,3.7,0.3,7.4,0.5,11.1c0.1,1.3,0.5,2.5,2.2,2.5s1.9-1.3,1.9-2.6c0.1-3.8,0.3-7.5,0.4-11.3
			c-0.1-1.1,0.6-2,1.6-2.2c2.8-0.9,4.4,0.2,4.7,3.2c0.2,2.4,0.3,4.9,0.5,7.3c0.1,1.6,0.4,3.2,0.8,4.8c0.5,0.8,1.4,1.3,2.3,1.4
			c0.5,0,1.4-1.2,1.4-1.9c0.2-1.8,0-3.7,0-5.5c0-2.6,0-5.1,0-7.6c4.4-0.5,4.5-0.5,5.2,3.5c0.7,3.6,1.2,7.1,1.7,10.7
			c0.2,1.6,0.8,2.6,2.4,2.5c1.8-0.1,1.7-1.6,1.6-2.8c-0.1-1.8-0.2-3.5-0.3-5.3c-0.2-2.5-0.5-5-0.7-7.4c3.4,0.1,4,0.5,4.5,3.5
			c0.6,3.6,1.2,7.1,1.8,10.7c0.1,1.9,1.7,3.5,3.6,3.6c-0.1-1.4-0.2-2.7-0.3-3.9c-0.3-3.8-0.7-7.6-1-11.5c0-0.6,0.4-1.1,0.6-1.7
			c0.5,0.2,1.2,0.4,1.5,0.8c0.8,1.1,1.4,2.3,1.8,3.6c0.8,4.4,1.3,8.9,2.1,13.3c0.5,2.9,1.6,3.4,4.4,2.3c0.1-0.3,0.1-0.7,0.1-1.1
			c-0.8-5.7-1.5-11.4-2.4-17.1c-0.4-2.7-1.8-5.2-3.9-7c-4-3.6-8.9-5.4-14-6.6c-13.2-3.3-26.4-3.3-39.8-1.5c-5.9,0.8-11.7,2.2-17,5.3
			c-3.1,1.8-5.9,3.9-6.7,7.8c-0.8,4-1.8,8-2.6,12.1C212.1,38.6,211.8,41.7,211.4,44.7L211.4,44.7z M178.6,321.7v-0.8
			c-1.2-0.3-2.4-0.6-3.7-0.7c-6.7,0.1-12.6,2.7-18.1,6.2c-11.2,7.1-19.7,16.8-26.6,28c-4.1,6.5-6.7,13.6-6.2,21.5
			c0.4,6.9,3.7,10.6,10,11c1.9,0.2,3.3-0.4,3.9-2.4c1.1-3.7,2.3-7.5,3.5-11.2c2.5-8.1,5.7-16,12-21.8c4.3-4.2,7.8-9.2,10.3-14.7
			c2.9-6,6.8-11.2,13.2-14C177.4,322.6,178.1,322.2,178.6,321.7L178.6,321.7z M417.2,510.4c-3.4,0.1-4.1,0.3-5.7,2
			c-1.2,1.3-2.5,2.7-3.6,4.2c-6.2,7.7-12.1,15.7-18.6,23.1c-14,16-30.6,29.6-49.1,40c-5.8,3.3-11.8,6.2-17.6,9.5
			c-3.8,2.1-7.3,4.7-11.2,6.8c-5.3,2.8-10.7,5.2-16.1,7.8c0.2,0,0.4,0.2,0.5,0.2c13.5-3.3,27-6.9,39.5-13.1
			c22.6-11.1,42.8-26.7,59.2-45.9c7.8-9,14.9-18.5,20.4-29C415.8,514.1,416.6,512.2,417.2,510.4L417.2,510.4z M98.5,406
			c2.7-2.9,4.3-5.7,4.3-9.4c0.1-7.2,1.3-14.4,3.6-21.3c0.7-2,1.4-3.9,2.3-6.4c-3,1.5-5.3,4.1-6.7,7.2c-3.1,6.5-3.9,13.5-3.5,20.7
			C98.6,399.6,98.5,402.6,98.5,406z M401,446.1h0.4v-2.9H401V446.1z M226.6,590.1c-0.4-0.3-0.9-0.6-1.4-0.9c-0.1,0-0.6,0.5-0.5,0.7
			c0.1,0.4,0.4,0.7,0.7,0.8C225.6,590.8,226,590.4,226.6,590.1z M169.5,566.7l0.9-0.7c-0.2-0.2-0.4-0.6-0.7-0.7
			c-0.2,0-0.6,0.3-0.8,0.5C169.1,566,169.2,566.2,169.5,566.7L169.5,566.7z M196.9,583.2c-0.1,0-0.2-0.2-0.3-0.1
			c-0.1,0-0.1,0.2-0.2,0.3c0.1,0,0.2,0.2,0.3,0.1C196.8,583.5,196.9,583.3,196.9,583.2L196.9,583.2z"/>
		<path class="st1" d="M255.1,713L255.1,713z"/>
		<path class="st2" d="M127.2,430.7l-1.4-1.5h32l-0.6,1.9l1.7-0.2c0.1,0.7,0.2,1.3,0.4,2.1l1.9-0.6c0,0.9,0.1,1.8,0.2,2.7
			c0.1,0.4,0.9,0.5,1.6,0.9c0-2.1-2.3-4.1,0.5-5.5l0.4,0.6c0.2,0.6,0.3,1.1,0.5,1.7l1.4,4c0.3,0.7,0.6,1.5,0.9,2.2s0.6,1.5,0.9,2.2
			c0.2,0.4,0.3,0.9,0.5,1.3c1,2.2,2,4.3,3,6.5l0.5,1c0.5,0.9,1,1.8,1.4,2.7l0.8,1.3c0.2,0.5,0.4,1,0.7,1.4
			c5.8,9.7,13.2,18.5,21.7,26c19.1,16.9,41.4,26.1,66.8,27.8c4.8,0.3,9.8-0.5,14.7-1c2.3-0.2,4.7-0.7,7-1l3.1-0.6l14.5-4.2l1.5-0.6
			l0.9-0.4l1.3-0.6l2.7-1.2h0.2l0.2-0.1l12.1-6.9l0,0l3.8-2.5l1.4-1l4.6-3.6c0.1,0,0.2,0,0.2-0.1c0,0,0,0,0-0.1l3.2-2.9l4.5-4.4
			c1.1-1.2,2.3-2.4,3.4-3.6l0.8-0.9l2-2.3c0.1,0,0.1-0.1,0.1-0.2c1.1-1.4,2.2-2.8,3.2-4.2l0.9-1.3l1-1.3c0.1,0,0.2-0.1,0.2-0.3
			c0,0,0,0,0,0c0.3-0.4,0.5-0.7,0.8-1.1l0.5-0.8c0.1,0,0.2-0.1,0.2-0.2c0,0,0,0,0-0.1l1-1.5c2.5-4.7,5-9.5,7.5-14.2v-0.1l0.7-1.7
			c0.1-0.3,0.2-0.6,0.3-0.9l1.2-3.1c0.7-1.9,1.3-3.8,2-5.7l0.3-0.9l0.3-0.8l0.3-1c0.1-0.4,0.3-0.9,0.4-1.3s0.2-0.6,0.3-0.9
			c0.2-0.7,0.4-1.5,0.6-2.2l0.3-0.1c2.4,0.6,2,2.3,1.6,4c-0.4,1.5-1,2.8-1.4,4.3c-0.1,0.5,0,1.1,0.1,1.6l0.7,0.1
			c0.6-2.3,1.1-4.6,1.8-6.9c0.2-0.6,0.5-1.2,0.9-1.7l0.9,1.7c-1.7,1.1-0.7,2.4-0.7,3.6h0.7v-3.6l0.7,0.5c0.1-0.7,0.3-1.3,0.4-2.3
			c1.1,0.1,2.2,0.3,3.4,0.4c0.5,0,1,0,1.5-0.1c0.7,0,1.6-0.4,2.1-0.1c2.7,1.2,5.3,0.8,8.1,0.1c2-0.5,4.4-0.8,6.2,0
			c1.4,0.6,2.3,2.7,3.1,4.3c0.2,0.4-0.8,1.4-1.2,2.1c-0.2-3.6-0.4-3.8-3.1-3.9l-1.4-0.1c-1.3-0.1-2.6-0.3-3.9-0.3
			c-4.8,0-9.6,0-14.4,0c-0.2,0.8-0.4,1.5-0.5,2.1c-1.4,4.2-2.6,8.4-4.4,12.4c-3.1,7-6.7,13.8-10,20.7l-1,1.9h-0.1
			c-1.2,1.7-2.3,3.3-3.4,5c-0.1,0.3-0.2,0.6-0.3,0.9c-0.1,0.1-0.1,0.3-0.2,0.4c-1.1,1.5-2.3,3-3.6,4.4c-6.5,6.4-13.2,12.7-19.8,19
			l-1.3,1l-0.5,0.4l-0.8,0.5c-0.4,0.2-0.8,0.4-1.2,0.6c-15.7,11.3-33.5,17-52.7,18.3c-11.4,0.8-22.8-0.2-33.8-2.9
			c-5.7-2-11.5-3.9-17.2-6.2c-3.8-1.5-7.5-3.6-11.2-5.4l-4-2.3c-0.1-0.2-0.2-0.4-0.3-0.5c-4.9-3.6-9.8-7.2-14.7-10.8
			c-0.3-0.1-0.5-0.2-0.8-0.2c0-0.1,0-0.2-0.1-0.3c-1.2-1.3-2.5-2.6-3.7-3.9c-3.6-4-7.2-8-10.9-12h0l-1.2-1.3l-0.7-1.3
			c-3-4.8-6.5-9.4-8.8-14.5c-3.7-7.8-6.6-16-9.8-24.1c-0.4-1.1-0.6-2.2-2.3-2.1C145.1,430.7,136.2,430.7,127.2,430.7z M163.1,432.9
			l0.2-0.1l-0.4-0.7l-0.2,0.1C162.9,432.4,163,432.6,163.1,432.9z"/>
		<path class="st3" d="M327.2,568.6l-3.4,1.8l-5.5,1.8c-1.1,0-2.2,0.1-3.2,0.4c-4,1.3-7.9,2.8-11.9,4c-3.2,0.9-6.6,1.3-9.8,2
			c-3.9,0.8-7.7,1.8-11.6,2.4c-3.4,0.5-6.8,0.9-10.2,1c-7,0.4-13.9,0.6-20.9,0.8c-1.4,0-2.8,0-4.3,0l-21.8-3.4
			c1.7,0,3.4,0.1,5.1-0.1c0.8-0.2,1.6-0.5,2.2-1c0-0.2-0.1-0.5-0.1-0.7c1,0.4,2,0.6,3.1,0.9c2.4,0.4,4.9,0.7,7.3,1
			c4.7,0.6,9.4,0.9,14,1.8c2.7,0.5,4.8-1.6,7.6-1.1c3.9,0.6,7.9,0.2,11.9,0.1c0.7-0.1,1.4-0.3,2-0.5c0-0.2-0.1-0.4-0.1-0.6h-9.8
			c0.5-0.9,1-1.7,1.4-2.5c2.5-0.6,5.1-1.2,7.7-1.7c1.4-0.3,2.4-1,2.3-2.7c-0.1-1.9,0.7-2.2,2.3-1.3c0.5,0.1,1.1,0.1,1.6,0
			c1-0.1,2-0.2,3-0.4c0.8,0.3,1.7,0.9,2.4,0.8c4.6-0.7,9.1-1.7,13.5-3c7.8-2.4,15.7-4.8,23.2-8.1c9.6-4.1,18.8-9.4,27.2-15.6
			l0.9-0.8l0,0c0.9,0.2,1.9-0.4,2.1-1.3c0-0.1,0.1-0.3,0-0.4h0.1l2.2-1.7h0.1c2.7-0.4,3.8-2.6,5.2-4.4c0.1-0.2,0.1-0.5,0.2-0.6
			c5.3-4.7,9.3-10.3,13-16.3c1.5-0.7,2.9-1.5,2.6-3.6l0,0c0.1,0,0.2,0,0.2,0c2.9-2.3,3.2-6.8,6.8-8.5c0.1,0,0.1-0.3,0.1-0.4
			c-0.3-2.4,1.6-3.8,2.6-5.6c0.9-1.5,3.5-2.5,2.3-5l0.2-0.8c0.6-0.3,1.3-0.4,1.6-0.8c1.5-2.2,2.9-4.5,4.2-6.9
			c0.3-0.8,0.5-1.7,0.5-2.5l0,0c0.7-0.6,1.3-1.3,1.8-2.1c1.3-2.4,2.5-4.9,3.6-7.4c0.9-1.9,1.7-3.9,2.4-5.9c1-3.1,1.9-6.3,2.9-9.4
			c0.9-3.3,1.8-6.7,2.8-10.1l0,0c0.6-2,1.2-4.1,1.7-6.1c1-5,1.8-10.1,2.7-15.2c2.5,0.2,4.4,2.1,4.8,4.5c0.6,3.1,0.8,6.3,0.6,9.4
			c-0.9,9.8-2.6,19.4-6.2,28.6c-1.2,3-2.3,5.9-3.5,8.9l0,0c-1.1,1.8-2.1,3.6-3.2,5.4c-1.4,2.3-1.4,5.5-5.1,6.4l1.4,0.8l-1.2,4.2l0,0
			l-0.8,1.4l0,0c-2.2,0.9-2.5,2.8-2.7,4.9l0,0c-2.1,1-3.4,3.1-3.5,5.3l0,0c-0.3,0.1-0.8,0.1-0.9,0.4c-1.5,2.2-3,4.4-4.5,6.6
			c-1,1.6-1.8,3.2-2.7,4.9l-0.4,0.5l-1.2,1.4v-0.1c-1.9,2.2-3.9,4.5-5.8,6.7l0.1,0.1c-2.1-1-1.2,0.8-1.5,1.5
			c-0.6,0.7-1.1,1.5-1.8,2.2c-3,3-6,5.9-8.9,8.8l0,0c-0.6,0.5-1.1,1-1.7,1.4l-17.8,13.1l-1.5,0.9l0,0l-3.1,1.8l0,0l-2.2,1.4v-0.1
			l-0.5,0.4l0,0l-1.7,1l0,0c-3.2,0.2-5.5,2-7.6,4.3l-0.6,0.7h0.1h-0.1C329.8,567.3,328.5,568,327.2,568.6z"/>
		<path class="st4" d="M277.7,66.4c-0.6,0.3-1.1,0.9-1.7,0.9c-1.3-0.1-1.9,0.5-2,1.8c-0.2,1.9-0.4,3.9-0.6,5.8
			c1.8-0.1,2.2,0.4,2.8,4.7l2.7-1.3c0.6,1.3,1.1,2.6,1.5,3.9c0.8,3,1.5,6,2.2,9.1c0.2,0.8,0.4,1.7,0.5,2.6c0.1,2.2-0.1,4.4,0.1,6.5
			c0.5,5.1,1.1,10.1,1.6,15.2c0.3,3.2,0.7,6.5,1,9.7c0.3,4,0.6,8,0.9,12c0.3,3.1,0.6,6.2,0.9,9.3c0.3,3.9,0.5,7.9,1,11.8
			c0.2,1.5,1,2.9,1.2,4.4c0.1,1.3,0.1,2.7-0.1,4c0,0.4-0.3,0.7-0.2,1c0.2,1.9,0.5,3.7,0.8,5.5c0.1,0.3,0.5,0.6,0.9,1.2
			c0,2.3-0.1,5.1,0,7.9c0.2,3.8,0.5,7.7,0.9,11.5c0.2,2,1.1,4.1,0.7,6c-0.8,3.9-0.2,8.2-2.4,11.8c-1.6,2.6-2.9,5.9-6.2,6.7
			c-2.8,0.7-5.3,2.1-8.3,2.6c-8.1,1.4-16.1,0.2-24.2,0.6c-0.7,0-1.5-0.5-2.2-0.9c6,0,12,0,17.9,0c2.5,0,5.1-0.4,7.7-0.7
			c2.1-0.6,4.2-1.2,6.2-2c2.9-1,5.4-2.9,7.2-5.5c2.2-3.4,3.2-7.4,2.9-11.4c-0.6-10.4-1.3-20.8-2.3-31.1c-2.1-22.2-4.2-44.4-6.5-66.5
			c-0.7-6.9-1.9-13.7-2.9-20.6c-0.2-0.6-0.4-1.2-0.7-1.8l-0.6,0.1c0,2-0.1,4,0,6c0.5,7.7,0.9,15.5,1.6,23.2
			c1.8,21.8,3.8,43.5,5.5,65.3c0.7,9,1.2,18.1,1.7,27.1c0.3,5.8-3.4,12.1-11.3,15.1c-4.2,0.5-8.5,1-12.7,1.3
			c-3.7,0.3-7.5,0.3-11.2,0.5c-0.9,0.2-1.8,0.5-2.6,0.9c-0.3-0.4-0.9-1-0.8-1.2c0.3-0.6,0.8-1.1,1.5-1.4c0.9-0.1,1.9-0.2,2.8-0.1
			c0.3,0.3,0.6,0.8,0.8,0.8c3.7,0,7.4-0.1,11.2-0.2c0-0.2,0.1-0.4,0.1-0.6h-12c-0.7-2.7,1.4-2.7,3-3.5h-4.3l-0.2-0.3l3.8-1l4.5-0.3
			c3-0.9,5.9-1.9,8.8-3.1c1.6-0.8,2.7-2.4,4-3.7l0,0l0.6-0.6l0.3-0.6l1.8-2.3l0,0c0.3-0.3,0.5-0.6,0.8-1c2.4-4.9,2.8-10.2,2.6-15.5
			c-0.9-25.4-1.8-50.7-2.7-76.1c-0.4-10.5-0.8-20.9-1.2-31.4c-0.1-1.6-0.5-2.5-2.3-2.8c-9.3-1.7-18.7-2.3-28.1-1.9
			c-3.9,0.2-7.8,0.7-11.6,1l-2.3,0.5c-0.6-1-0.5-1.6,0.8-1.8c0.7-0.1,1.4-0.3,2.2-0.4c-0.9-1.2-1.5-2.4-2.4-3
			c-2-1.3-0.9-3.1-0.8-4.6c0-0.6,1.6-1.5,2.6-1.6c2.6-0.5,5.2-0.6,7.8-1c0.5-0.1,0.9-0.8,1.6-1.4c-2.6,0.2-4.7,0.4-6.7,0.6
			c-0.5,0-1,0.1-1.5,0.3c-1.4,0.9-2.2,0.5-2.5-1.4c-1.5,2.5-3.3,1.2-5,1l-1.8,0.4v0.4h-0.9c-0.9-2.1-1.8,0.1-2.7,0l-1.7-0.7
			l28.2-4.3c13.3-0.1,26.6,0.6,39.6,4c1.2,0.3,2.4,0.1,2.6-1.5l0.7,0.8c-0.7,0.6-1.4,1.6-2.1,1.6c-2.2-0.2-4.4-0.5-6.6-1
			c-1.4-0.2-2.8-0.6-4.4-1c0.1,0.9,0.2,1.4,0.3,2.1h-7l3.7,2c-2.4-0.2-4.8-0.6-7.2-0.7c-5.8-0.2-11.7-0.3-17.5-0.4L232.7,65
			c-1.4,0.1-2.5,0.4-2.2,2.2c0.3,1.7,1.3,1.7,2.6,1.5c5-0.5,9.9-1,14.9-1.6C258,67,267.8,66.7,277.7,66.4z"/>
		<path class="st3" d="M102.4,450.9l1.9,6.3l3.3,9.2c0.8,2.1,1.5,4.2,2.5,6.2c0.6,0.8,1.3,1.6,2.1,2.2c2.1,2.9,3.9,6.1,6.3,8.7
			c4.7,5.2,9.7,10.1,14.6,15.1l-3.2-1.2l-1.6,1.8l-2.1-4l0.3-0.4l-0.2-0.1c-0.1,0.2-0.1,0.4-0.2,0.5h-0.4c-2.1,0-4.5,0.4-3.9-3
			c0-0.2-0.3-0.4-0.5-0.6c-1-1-1.9-2.1-2.9-3.1c-0.5,0.3-0.9,0.6-1.4,0.8c-3.4,1.5-3.9,4.3-1,6.5c2.1,1.7,3.8,3.8,4.8,6.3
			c2,4.5,2.2,4.5-2.7,4.6c-0.5-0.5-0.9-1.1-1.3-1.6s-0.6-1-0.9-1.5l-0.2-0.1l0.1,0.1l-0.6,1.1l-2.7-1.8l0.1-0.1l0.6-2.4
			c-4-2.5-4.7-7.3-7.2-10.8c-0.6-0.9-0.1-2.6-0.1-4.1l-1.4,0.4l-4.4-7l0,0c-0.1-0.8-0.2-1.5-0.3-2.3c-0.5-1.7-1.2-3.4-1.7-5.1
			c-0.3-1.4-0.2-3-1.6-4c-0.3-0.3-0.5-0.7-0.6-1.1c-0.4-1.8-0.5-3.6-1-5.3c-0.5-1.4-1-2.7-1.7-4c-1.4-7.1-2-14.2,0-21.3
			c0.9-0.9,1.6-2,2.2-3.1c0.4-1.5,2-2.4,3.6-2c0,0,0,0,0.1,0c0.4,4.3,0.7,8.5,1.1,12.7c0.2,2.3,0.6,4.6,1,6.8
			C101.6,450.5,102.1,450.7,102.4,450.9z"/>
		<path class="st2" d="M226.4,62.1c1.7,0.1,3.5,1.5,5-1c0.4,1.9,1.2,2.3,2.5,1.4c0.5-0.2,1-0.3,1.5-0.3c2.1-0.2,4.1-0.4,6.7-0.6
			c-0.7,0.6-1.1,1.3-1.6,1.4c-2.6,0.4-5.2,0.5-7.8,1c-1,0.2-2.6,1-2.6,1.6c-0.1,1.5-1.2,3.3,0.8,4.6c0.9,0.6,1.5,1.8,2.4,3
			c-0.7,0.1-1.4,0.3-2.2,0.4c-1.3,0.1-1.4,0.8-0.8,1.8c-2.4,2.4-2.5,5.6-3,8.6c-3.6,20.6-7.1,41.2-10.6,61.8c-1.8,11-3.8,21.9-5,33
			c-1.1,8.5,1.7,17.1,7.7,23.4c3.4,4,7.8,7,12.7,8.8l1.9,1.3l-0.5,0.1c-0.6,0.2-1.2,0.4-1.8,0.6c-1.3,0.2-2.7,0.3-4,0.4
			c-0.1,0-0.3-0.7-0.2-0.7c0.5-0.4,1-0.8,1.6-1.1c-1.4-1.5-2.7-3.4-5.4-2.4c-0.6,0.1-1.2-0.1-1.6-0.5c-1.6-1.8-3.9-2.9-4.6-5.6
			c-0.4-1.5-1.8-2.7-2.8-4c-0.2-0.2-0.3-0.5-0.5-0.8c-1.1-2.8-1.1-2.8-3.2-0.9c-0.9-1.9-0.8-2,1.1-3c-0.6-3.9-3.2-7.4-2.7-11.6
			c0.1-0.6-0.9-1.3-1.4-2c-0.5,0.6-0.8,1.3-1.1,2c-0.3,1.4-0.3,2.9-0.5,4.7l-1.1,0.6c0.2,0.4,0.4,0.9,0.6,1.3l-2.5,1
			c4.8-25.5,9.7-51,14.3-76.5c2.5-13.5,4.5-27.2,6.6-40.8c0.3-2.7,0.4-5.3,0.4-8l-5.9,1.2c-1.6-0.6-1.7-1.7-1-3.1
			c0.2-0.4,0.3-0.8,0.5-1.2l0.4-0.1l0.5,0.2L221,63c0.9,1.7,1.4,1.7,2.7,0h0.9c0.1,0.5,0.2,1,0.3,1.9c0.6-0.7,0.9-1.1,1.4-1.7
			l-1.7-0.2v-0.4L226.4,62.1z M230.5,211.1l-0.2-0.1c0,0-0.1,0.1,0,0.1s0.1,0,0.2,0.1S230.4,211.1,230.5,211.1L230.5,211.1z"/>
		<path class="st2" d="M390.8,495.2l-0.2,0.8c-0.1,0-0.2,0-0.3,0.1L384,502c-0.5-0.9-1.1-2-1.9-3.3c0.4,0.1,0.3,0,0.2,0.1
			c-2.1,0.7-2.4,1.6-0.8,3.2c2,2.2,2,2.2-0.5,3.3c-0.1,0-0.2,0-0.3,0l-2.5-1.7c0.5-2.1,0.9-3.8,1.3-5.6c0.2-0.6,0.5-1.2,0.8-1.8
			c8.9-19.2,14.8-39.2,15.7-60.5c1.7-0.2,2.1,0.2,2,2.2c-0.2,2.3,0.8,4.8,1.3,7.2c0.3,1.4,0.7,2.8,1,4.1l-0.9-0.1
			c-0.4,0.8-1.1,1.6-1.1,2.5c0,3.6,0.2,7.2,0.5,10.7c0.1,0.7,1,1.3,1.6,1.9c0.7,0.5,1.4,1,2.1,1.3c0.1-0.5,0.2-1,0.2-1.5
			c0.3-0.3,0.7-0.7,0.8-1.1c0.5-1.9,0.9-3.8,1.3-5.6c-0.9-0.3-2.6-0.5-2.7-1.1c-0.3-1.8-0.3-3.6,0-5.4c0-0.4,1-0.8,1.5-1
			c2.2-0.5,5,0,5.3-3.9l1.8,4c-0.9,3.3-1.8,6.7-2.8,10.1c-2.2,5.4-4.5,10.9-6.8,16.3c-1.2,2.9-2.6,5.7-3.9,8.6l0,0
			C395.1,488.4,392.9,491.8,390.8,495.2z M395.7,449.7h0.4v-2.9h-0.4V449.7z M396.6,445.3h0.7c-0.1-0.7-0.1-1.3-0.2-2h-0.5V445.3z
			 M381.7,503.8c-0.2-0.2-0.4-0.4-0.5-0.4c-0.2,0.1-0.3,0.2-0.4,0.4c0.1,0.2,0.2,0.3,0.4,0.4C381.3,504.2,381.4,504,381.7,503.8
			L381.7,503.8z"/>
		<path class="st4" d="M224.5,579.4l21.8,3.4c9.1,1.2,18.4,1.1,27.5-0.1c9.6-1.2,19.1-3.2,28.5-5.3c5.4-1.2,10.6-3.4,15.9-5.1
			l5.5-1.8l-0.9,1.3l-0.4-0.3l-0.1,0.2l0.5,0.2l-6,2.7l1.4,0.7l-0.1,0.4c-0.5-0.1-1-0.1-1.5-0.1c-0.6,0.2-1.2,0.4-1.7,0.8
			c-0.8,0.4-1.5,0.8-2.2,1.2l0.5-0.8l0.5-0.3c0,0-0.1-0.1-0.1-0.1c-0.2,0.1-0.3,0.2-0.5,0.3l-16.8,6.2l-0.8,0.1l-2.7,0.8
			c-34,8.3-66.3,4-97-12.1c0-0.3,0.1-0.5,0.1-0.8l10,3.2l0,0L224.5,579.4L224.5,579.4z"/>
		<path class="st4" d="M280.4,589.5c-4.1,0.4-8.3,0.5-12.3,1.5c-4.7,1.1-9.3,0.7-13.9,0.4c-4-0.3-8.1-0.3-12.1-0.6
			c-2.8-0.2-5.7-0.9-8.5-0.8c-2.5,0.1-4.6-1.3-6.9-1.5c-2.3-0.2-4.7-1.7-6.9,0.3c-0.4,0.3-1.2,0.1-1.9,0.2c0.2-2.2-0.5-2.9-2.8-2.8
			c-0.3,0-0.6-0.1-0.8-0.3c-1.7-2.4-4.3-2.6-6.9-2.7c-0.8-0.2-1.5-0.4-2.2-0.8l-4-1.8c-1-1.2-2-2-3.5-0.6c-0.4,0.1-0.8,0-1.1-0.2
			c-1.1-3.3-4.1-3.7-6.6-4.7l-1.8,2c-0.3-2.9-1-4-3.4-5c-1.5-0.7-2.9-1.7-4.5-2.4c-0.8-0.3-1.5-0.5-2.3-0.7
			c-0.4-0.1-0.8-0.3-1.1-0.5c-1.9-1.4-3.7-2.9-5.6-4.2c-0.8-0.6-1.6-0.8-0.6-1.8l1.6,0.6l0,0l0.6,0.4h0l1.3,0.9l0,0l2.7,1.8
			c0.2,0.2,0.3,0.5,0.6,0.7c10,6.1,20.5,11.2,31.5,15.2c10.5,3.9,21.5,6.4,32.7,7.4c7.2,0.7,14.4,1,21.6,0.9
			c11.9-0.6,23.7-2.6,35.2-6.1l4.4-1.3c0,0.1,0,0.4-0.1,0.4c-2.1,1.2-4,2.7-6.2,3.4c-1.9,0.7-4.2,0.4-6.2,0.6
			c-1.1,0.1-2.2,0.6-3.4,0.8C284.5,588.7,282.4,589.1,280.4,589.5L280.4,589.5z"/>
		<path class="st4" d="M118.6,479.5c0.8-0.9,2.1-1.3,2.2,0.2c0.2,2.4,2,3.2,3.1,4.6l0.6-0.3c-0.8-1.8-1.7-3.5-2.6-5.5l1.7-0.2
			c0.9,2.5,1.8,0.2,2.7,0v1.7c-2.2,0.3-1.5,1.8-0.9,2.8c0.9,1.2,2,2.3,3.2,3.2c2.5-2.3,2.5-2.3,4,0c0.1-1.1,0.1-2.3,0.2-3.4
			c1.1,2.3,2.1,4.6,3.2,6.9l2.7,5.3c1.3,2.4,2.7,4.9,4,7.3c-0.1,0-0.3,0-0.3,0.1c-2.8-1.9-5.8-3.5-8.2-5.8c-4.9-4.7-9.3-9.8-14-14.7
			L118.6,479.5z"/>
		<path class="st2" d="M126.2,478.4c-0.9,0.2-1.8,2.5-2.7,0c0-2.1,0.6-4.3,0-6.2c-1.3-4-0.6-8-0.7-12c-0.1-1-0.3-2-0.5-3
			c-0.2-1.1-0.6-2.2-1.1-3.3l-0.6,3.2l-1-0.2c0.6-2.3,1.2-4.5,1.7-6.8c0.1-0.3,0.4-0.7,0.4-1c0.2-3.2,0.3-6.4,0.5-9.7l0,0
			c0.4-2,0.9-3.9,1.3-5.9c0.5-2.5,1.2-3.1,3.6-2.8c-1.9,1-3,2.9-3.1,5c-0.1,4.2,0.2,8.3,0.3,12.5c0,0.6,0,1.2-0.1,1.7
			c-1.6-0.2-1.9,0.7-1.6,2s0.5,2.5,0.8,3.8c0.2,0.5,0.5,0.9,0.9,1.3c0.4,1.5,0.7,2.9,0.8,4.4c0.2,3.7,0.3,7.4,2.5,10.7
			c-2.2,0.3-2.7,1.7-1.7,3.5l3.1,0.9l-1.2,0.8L126.2,478.4z"/>
		<path class="st3" d="M289.5,60.4c-0.2,1.6-1.4,1.8-2.6,1.5c-13-3.4-26.2-4.1-39.6-4l10.1-0.5c0-0.3,0-0.6,0-0.8h-9.9v-0.7
			c2,0,3.9,0.1,5.9,0c3-0.2,5.9-0.5,8.9-0.8l1.3,0.1l5.3,0.8l1.8,0.1l5.3,0.8l0.9,0.1h0.5l5.7,1C285.2,58.6,287.4,59.5,289.5,60.4z"
			/>
		<path class="st5" d="M396,435.8c-1,21.3-6.8,41.3-15.7,60.5c-0.3,0.6-0.5,1.2-0.8,1.8l-3.5,6.4c0-0.7,0-1.3,0.2-1.9
			c1.6-4.4,3.3-8.8,4.9-12.9c0.5-0.3,1.3-0.6,1.4-1c1.4-4.1,2.8-8.2,4.1-12.3c0.2-0.5,0.3-1.2,0.6-1.3c1.4-0.6,1.3-1.3,0.5-2.4
			c-0.2-0.3,0.1-1,0.2-1.5l0.8,0.5l-0.1,0.2l0.1-0.2c0.2-1.5,0.1-3.1,0.7-4.5c2.5-5.6,3.7-11.7,3.3-17.9c0-0.4,0-0.7,0.1-1.1
			c0.6-3.5,1.2-6.9,1.6-10.4c0.1-0.8-0.6-1.7-0.9-2.6c0.2-0.5,0.6-1.3,1-2.1l-1.8-1.7c2.7,0,2.9,0.3,3.1,3.9
			C396,435.5,396,435.7,396,435.8z"/>
		<path class="st3" d="M277.7,66.4l-29.6,0.8c0-0.2,0.1-0.5,0.1-0.8l-2.4-0.3c2-2.4,4.7-1.1,6.6-2.3l-3-0.2
			c5.8,0.1,11.7,0.2,17.5,0.4c2.4,0.1,4.8,0.5,7.2,0.7L277.7,66.4z"/>
		<path class="st4" d="M107.6,466.4l-3.3-9.2l2.2,3.3c0.2-1,0.3-2,0.4-3l0.5-0.1l2.8,8.7l9.3,16.2l2.1,2.8l0.5,0.6l15,15.8l-1-0.3
			v0.1l-0.9-0.6h0.1l-0.9-0.9v0.1l-1-1.2c0-0.1,0-0.2-0.2-0.2c-4.9-5-9.9-9.9-14.6-15.1c-2.4-2.7-4.2-5.8-6.3-8.7L107.6,466.4z"/>
		<path class="st5" d="M124.5,448.3c-0.1-4.2-0.4-8.3-0.3-12.5c0-2.1,1.2-4.1,3.1-5l0,0c8.9,0,17.8,0,26.7-0.2c1.7,0,1.9,1,2.3,2.1
			c3.2,8,6.1,16.2,9.8,24.1c2.4,5.1,5.8,9.7,8.8,14.5c-0.7-0.3-1.4-0.7-2-1.2c-1.2-1.4-2.2-3-3.2-4.5l-1-2.2l-1.7-1.8
			c-0.9-1.7-1.9-3.4-2.7-5.2c-1.2-2.7-2.3-5.4-3.4-8.2c-0.7-1.7-1.3-3.3-2-5c-1.2-3-2.4-6.1-3.5-9.1c0.2-2-0.5-2.8-2.6-2.7
			c-3.3,0.2-6.6,0-9.9,0h-14.5c-2.4,0.8-4.1,3.1-4,5.6C124.5,440.8,124.5,444.5,124.5,448.3z"/>
		<path class="st4" d="M283,57.8l-5.7-1h-0.5l-0.9-0.1l-5.3-0.8l-1.8-0.1l-5.3-0.8h-1.3c-1.8-0.1-3.5-0.4-5.3-0.4
			c-8.1-0.1-16.3-0.1-24.3,1.7c-3.9,0.9-7.9,1.6-11.8,2.5c-1.4,0.1-2.4,1.3-2.2,2.7c0,0.2,0.1,0.4,0.1,0.6c-0.1,0-0.3,0-0.4,0.1
			c-1.3-2-1-2.6,1.1-3.6c7.8-3.7,16.2-3.7,24.5-4.4c4-0.3,8-0.8,12.1-0.8c3,0,5.9,0.6,8.8,0.8c4,0.3,7.9,0.4,11.9,1
			c3.5,0.5,3.4,0.7,5.8,0C282.6,56,282.8,56.9,283,57.8z"/>
		<path class="st2" d="M415,428.7c-0.9,5.1-1.7,10.1-2.7,15.2c-0.4,2.1-1.1,4.1-1.7,6.1c0-2.6,0.1-5.2-1.6-7.6
			c-0.4-0.8-0.4-1.7-0.1-2.5c1.1-2.4,1.1-5.2,0-7.6c-0.3-1.1-0.1-2.3,0.4-3.3c0.1,0.5,0.2,1,0.3,1.4c0.2,0.6,0.5,1.2,0.8,1.8
			c0.3-0.5,0.9-1.1,0.9-1.7c-0.1-1.3,0.5-1.9,1.8-1.7c0.1,0.8,0.2,1.5,0.2,2.3h0.6c0-0.8,0.1-1.6,0.2-2.4
			C414.4,428.7,414.7,428.7,415,428.7z M411.8,439h0.7c-1.2-1.7,1.8-3.4-0.7-5.2V439z"/>
		<path class="st4" d="M348.4,556.3c5.9-4.5,11.9-8.9,17.8-13.3c0.6-0.4,1.1-0.9,1.7-1.4c1.4,1.6,1.2,2.6-0.7,3.2s-3.2,1.1-2.2,4
			c-2.8-2.5-4.1,0.2-5.6,1c-3,1.7-5.5,4.1-8.3,6.3l0.7,0.7l-5,2.6l3,2.1l-5.5,0.8l-1.2-1l-2.4,0.6l-0.2-0.2l0.6-0.7l0,0l0.5-0.4v0.1
			l2.2-1.4l0,0l1-0.2l0.3,0.2l-0.3-0.3l1.9-1.6l0,0L348.4,556.3z"/>
		<path class="st4" d="M387.2,520.9l0.4-0.5l8.1-11.8l0,0l1.7-1.9l0.1,0.1c-0.2,0.9-0.5,1.9-0.7,2.8c-0.2,1.2-0.5,2.5-0.7,3.8
			l-2.9,2.9l0.3,0.2l-2.2,0.6l1,1.5l-5.7,5.5c0.5,1.5,0.8,2.5,1.3,3.8l-3.7-2l-0.4-0.4c0.7-1,1.5-2.1,2.2-3.1v0.1L387.2,520.9z"/>
		<path class="st4" d="M367.9,541.5c3-2.9,6-5.9,8.9-8.8c0.7-0.7,1.2-1.4,1.8-2.2l1.5-1.5l-0.1-0.1l3.6-3.5l0.4,0.4
			c1,2.2-0.9,3.5-1.9,4.7c-0.6,0.7-1.5,1-1.8,2.2c-0.2,0.7-1.7,1.1-2.4,1.7c-2.7,2.1-5.3,4.3-8,6.4
			C369.2,541.1,368.6,541.4,367.9,541.5z"/>
		<path class="st4" d="M111.6,502.3c-0.9-0.3-1.7-0.7-2.5-1.2c-0.4-0.3-0.2-1.2-0.5-2.4c-0.5-0.7-1.4-1.9-2.1-3.3
			c-1.3-2.3-2.5-4.7-3.8-7.1c0-0.1-0.1-0.1-0.1-0.2c-1-2.7-2-5.4-2.9-8.2c-0.1-0.6-0.1-1.2,0.1-1.8l0.7,0.7l0,0
			c0.2,0.8,0.5,1.7,0.9,2.5c3.5,6.9,7.1,13.7,10.7,20.6C111.9,502.1,111.7,502.2,111.6,502.3z"/>
		<path class="st5" d="M102.4,450.9c-0.3-0.2-0.8-0.4-0.8-0.6c-0.4-2.3-0.8-4.5-1-6.8c-0.4-4.2-0.8-8.4-1.1-12.7
			c-1.5-0.5-3.2,0.4-3.6,1.9c0,0,0,0,0,0.1c-0.6,1.1-1.4,2.1-2.2,3.1c0.9-3.9,3.8-7.1,7.7-8.2c-0.4,3.1-1.2,5.9-1.1,8.7
			c0.3,3.7,0.8,7.4,1.5,11.1C102,448.6,102.2,449.7,102.4,450.9z"/>
		<path class="st5" d="M116.1,503.6c0.3,0.5,0.5,1,0.9,1.5s0.9,1.1,1.3,1.6c0,0.3,0,0.6,0,0.9c0.5,0.4,1,1,1.4,1.6
			c0.4,0.8,0.3,1.7,0.7,2.5c1,2.2,2.2,4.4,3.3,6.5l-0.2,0.2l-6.8-9l-0.3-0.4l-0.4-0.5l-3.3-5.5l2.7,1.8
			C115.6,504.4,115.8,504,116.1,503.6L116.1,503.6z"/>
		<path class="st1" d="M302.6,582.9l-4.4,1.3l0.5-0.8l-2.3-0.5l16.8-6.2l0.1,0.1c-0.2,0.3-0.3,0.5-0.5,0.8L302.6,582.9z"/>
		<path class="st5" d="M100.5,478.9l-0.7-0.7c-2-6.6-4.1-13.2-6.1-19.7c-0.1-0.4-0.1-0.9-0.2-1.3c0.6,1.3,1.2,2.6,1.7,4
			c0.5,1.7,0.7,3.5,1,5.3c0.1,0.4,0.3,0.8,0.6,1.1c1.5,1,1.3,2.6,1.6,4c0.4,1.7,1.2,3.4,1.7,5.1
			C100.3,477.4,100.4,478.1,100.5,478.9z"/>
		<path class="st5" d="M149.5,545.9L132.4,529l0.2-0.2c2.1-0.7,1.7,1.5,2.5,2.3c2.3,2.1,4.5,4.3,6.7,6.6c2.6,2.8,6.1,4.6,8,8
			L149.5,545.9z"/>
		<path class="st3" d="M119.5,482.3l-9.3-16.2l0,0l0.7,1l0,0c0.9,1.5,1.9,3,2.8,4.4l4.8,8l1.3,2.3
			C119.8,482,119.7,482.1,119.5,482.3z"/>
		<path class="st5" d="M402.6,497l1.2-4.2l-1.4-0.8c3.6-0.9,3.7-4.1,5.1-6.4c1.1-1.8,2.1-3.6,3.2-5.4l-6.4,14.3
			C403.7,495.3,403.2,496.1,402.6,497z"/>
		<path class="st4" d="M233.4,212.2l0.5-0.1c0.4,0,0.7,0,1.1,0c5.3,1.7,10.8,2.3,16.3,2l0.2,0.3l-3.5,0.6l1.5,0.5
			c-1.4,1-1,0.8-5.2-0.3c-1.9-0.5-3.9-0.5-5.7-1C236.9,213.7,235.1,213,233.4,212.2z"/>
		<path class="st4" d="M331.1,566.7l0.6-0.7l7.6-4.3l0,0l1.1-0.3l0.2,0.2c0,0.2,0.1,0.6,0,0.6c-1.4,1-2.8,1.9-4.3,2.8
			c-0.6,0.3-1.2,0.6-1.8,0.8l1.6,2C334.2,567.5,332.6,567.1,331.1,566.7z"/>
		<path class="st2" d="M201.1,580.7l4,1.8c-0.4,0.4-0.8,1.2-1.3,1.3c-2,0.3-3.4-0.8-5-2.2L201.1,580.7z"/>
		<path class="st4" d="M112.8,502.9l3.3,5.5l0.4,0.5l0.3,0.4c-1.2-1-2.3-2-3.5-3c-0.6-0.5-1.2-1.1-2.1-2c0.1-0.3,0.2-1.1,0.4-1.9
			l0.4-0.4L112.8,502.9L112.8,502.9z"/>
		<path class="st5" d="M129.6,525.9l-6.1-7.6l0.2-0.2c0.6,0.3,1.2,0.7,1.7,1.1c0.5,0.5,0.9,1.1,1.3,1.7c1.1,1.6,2.2,3.2,3.2,4.8
			L129.6,525.9z"/>
		<path class="st5" d="M159,553.7l-8.5-7l0.2-0.2l6.6,4.5C157.9,551.9,158.5,552.7,159,553.7L159,553.7z"/>
		<path class="st4" d="M401.8,499.6c-0.4,1.2-1,2.3-1.3,3.5c-0.2,1.1-0.4,2.2-0.6,3.3l-2.6,0.3l-0.1-0.1c0.6-1.2,1.2-2.3,1.8-3.5
			l0,0l2.5-3.7C401.6,499.5,401.7,499.6,401.8,499.6z"/>
		<path class="st5" d="M410.6,480.2c1.2-3,2.3-5.9,3.5-8.9C412.9,474.2,411.8,477.2,410.6,480.2z"/>
		<path class="st4" d="M402.6,497l1.7-2.5c0.5,2.4-0.7,4.8-2.5,5.2l-0.2-0.2c0.1-0.4,0.2-0.8,0.2-1.2l0,0L402.6,497L402.6,497z"/>
		<path class="st4" d="M280.4,589.5l0.7,1.9H278c0-0.2,0.1-0.3,0.1-0.5C278.8,590.4,279.6,590,280.4,589.5
			C280.4,589.5,280.4,589.5,280.4,589.5z"/>
		<path class="st2" d="M402.1,464.1v-4.9h0.3v5L402.1,464.1z"/>
		<path class="st4" d="M327.2,568.6l3.9-2C330.5,568.8,328.9,568.8,327.2,568.6z"/>
		<path class="st4" d="M113.8,471.5c-0.9-1.5-1.9-3-2.8-4.4C113.4,467.6,113.5,469.6,113.8,471.5z"/>
		<path class="st5" d="M162.8,556.6l-3.1-2.3l0.2-0.2c1.5,0.1,2.8,0.5,3.1,2.2L162.8,556.6z"/>
		<path class="st2" d="M401,446.1v-2.9h0.4v2.9H401z"/>
		<path class="st4" d="M226.6,590.1c-0.6,0.3-1,0.7-1.2,0.7c-0.3-0.2-0.6-0.5-0.7-0.8c0-0.2,0.4-0.7,0.5-0.7
			C225.7,589.5,226.2,589.8,226.6,590.1z"/>
		<path class="st5" d="M166.1,559l-2.9-2c0.1-0.1,0.2-0.2,0.3-0.2L166.1,559L166.1,559z"/>
		<path class="st4" d="M169.5,566.6l-0.6-0.9c0.3-0.2,0.6-0.5,0.8-0.5s0.4,0.4,0.7,0.7L169.5,566.6z"/>
		<path class="st5" d="M131.5,528l-1.5-1.6l0.4-0.3l1.3,1.8L131.5,528z"/>
		<path class="st5" d="M169.9,561.8l-2.6-1.8l0.1-0.1l2.7,1.8L169.9,561.8z"/>
		<path class="st5" d="M172.1,563.1l-1.6-0.6l-0.6-0.7l0.2-0.2L172.1,563.1z"/>
		<path class="st5" d="M132.4,529l-0.8-1l0.1-0.1l0.9,0.8L132.4,529z"/>
		<path class="st2" d="M196.9,583.2c0,0.1-0.1,0.3-0.2,0.3s-0.2-0.1-0.3-0.1c0-0.1,0.1-0.3,0.2-0.3S196.8,583.2,196.9,583.2z"/>
		<path class="st4" d="M111,467l-0.7-1L111,467z"/>
		<path class="st2" d="M122.3,439.4l-0.3-0.4L122.3,439.4z"/>
		<path class="st5" d="M166.8,559.6l-0.7-0.6l0.1-0.1l0.9,0.4L166.8,559.6z"/>
		<path class="st5" d="M159.7,554.3l-0.8-0.6l0.1-0.1l0.9,0.5L159.7,554.3z"/>
		<path class="st5" d="M167.4,559.9l-0.6-0.3l0.2-0.2l0.5,0.4L167.4,559.9z"/>
		<path class="st5" d="M163.2,557l-0.4-0.3l0.2-0.4l0.4,0.4C163.4,556.8,163.3,556.9,163.2,557z"/>
		<path class="st5" d="M130,526.4l-0.4-0.5l0.3-0.2l0.4,0.4L130,526.4z"/>
		<path class="st5" d="M150.5,546.7l-0.5-0.4l0.2-0.2l0.5,0.4C150.6,546.6,150.5,546.6,150.5,546.7z"/>
		<path class="st5" d="M150,546.3l-0.5-0.4l0.2-0.2l0.4,0.5C150.1,546.2,150,546.2,150,546.3z"/>
		<path class="st0" d="M338,89.1l-1.4-0.9h0.5L338,89.1z"/>
		<path class="st0" d="M336.7,88.2l-1.3-0.1L336.7,88.2z"/>
		<path class="st2" d="M182,348.6l6.3-9.2v-0.1l4.6-5.6l0.7-0.8l2.7-2.8l0.4-0.3l2.3-2.1l3.1-2.7l1.9-1.6c0.1,0,0.3-0.1,0.3-0.2
			l5-3.7l1.5-1l9.8-5.9l0.9-0.4l0.9-0.4l2.6-1.2l3-1.3l2.7-1.1l1.3-0.5l4-1.4l1.3-0.4l3.5-1l9.3-2.1l3.2-0.4l2.7-0.3
			c8.5-0.7,17.1-0.5,25.5,0.6l5.8,1l19.9,6.3l0.9,0.5h0.7l0,0.1c0.1,0.2,0.1,0.5,0.2,0.6c3.1,1.6,6.2,3.1,9.2,4.6l1.2,0.7l1,0.6
			l1.7,1.1l5.7,3.7l0.9,0.7l1.4,1l1.1,1l1.7,0.8v0.1c0.7,0.8,1.5,1.7,2.2,2.5c0.5,0.5,1.1,1.1,1.6,1.6l3.6,3.8l0.9,1l4.2,4.9
			l0.1,0.1l0.6,1.1l0.4,0.5l1,1.3l1.8,2.6c0.2,0.3,0.4,0.7,0.6,1v0.1c0.3,0.4,0.6,0.7,0.8,1.1l1,1.7l0.3,0.5l0.8,1.4l0.2,0.4
			l2.5,4.9l0.5,0.9l0.8,1.8l0.8,1.8c0.3,0.9,0.7,1.8,1,2.6c0.2,0.6,0.4,1.2,0.6,1.8c1.5,7.3,3,14.5,4.5,21.8l0.3,3.9
			c0,0.4,0,0.9,0,1.3v3.5c0,0.7,0,1.5,0,2.2l-0.3,3l-1,8c-0.5,2.8-1,5.6-1.5,8.3c-0.1,0.4-0.1,0.8-0.2,1.2c-0.3,1.2-0.6,2.5-0.9,3.7
			c-0.1,0.3-0.1,0.6-0.2,0.9l-1.6,6.2l-5.3,14.6l-0.1,0.1v0.2l-0.5,1l-1,1.8l-2.1,4.1l-0.3,0.7l-1.4,2.3l0,0l-1.2,1.7l-4.3,6.3
			l-1.2,1.6l-1.1,1.5l-2,2.3l-0.1,0.1l-3.3,3.7l-1,0.9l-2.2,2.3c-0.3,0.3-0.6,0.5-0.8,0.8l-4.4,3.9l-0.1,0.1l-1.3,1.1l-0.9,0.7
			l-5.5,4.2l-2.7,1.8l-1.4,0.8l-2,1.2l-2.7,1.5l-4.3,2.1l-5.4,2.4l-8.3,2.8l-1,0.3l-0.5,0.1l-2.2,0.5c-1.6,0.3-3.3,0.6-4.9,1
			c-1.4,0.3-2.8,0.7-4.2,1.1l0,0l-3.6,0.1l-1,0.2l-7,0.3c-0.4,0-0.9-0.1-1.3-0.1c-22.4,0.3-42.1-7.1-59.2-21.2
			c-6.6-5.4-12.2-11.9-18.3-17.8l-1.3-1.7l-4.6-6.9l0,0l-0.7-1.1l-0.7-1.3l0,0l-0.5-0.9l-0.7-1.4c-0.6-1.1-1.1-2.2-1.7-3.3l-0.8-1.5
			l-3.6-9.3l-0.3-1c-0.4-1.6-0.8-3.2-1.2-4.8c-0.7-5.7-1.5-11.4-1.9-17.1c-0.2-3.3,0.2-6.6,0.4-9.9l-0.1-0.9
			c-0.4-1.6-0.8-3.3-1.1-4.9c-0.1-0.6-0.1-1.2-0.2-1.7l1-13.7l0.5-2.7c0.1-0.3,0.1-0.5,0.2-0.8c0.1-0.6,0.2-1.2,0.4-1.8
			c0.1-0.3,0.1-0.6,0.2-1c0.2-0.7,0.3-1.5,0.5-2.2l3.2-9.4l0.9-2.1l4.7-9.3C181.1,350.1,181.5,349.3,182,348.6z M214.2,476.7l1,0.8
			l0,0l2.2,1.8l0,0l6.1,4.1l0,0l11.7,5.6c1.2,0.4,2.3,0.9,3.5,1.3c11.6,3.8,23.4,5.5,35.5,3.8c9.6-1.2,18.9-4.2,27.4-8.8
			c0.8,0.1,1.7-0.1,2.5-0.3c0.9-0.6,1.5-1.5,2.7-0.6c0.3-0.4,0.9-0.8,0.9-1.2s-0.5-1-0.8-1.5l0,0l2.3,0.6l6.1-6.9l1-2.2
			c2.5,1.5,1.9-1.1,2.7-1.9s0.1-2.4,1.9-2.1c0.2-0.6,0.2-1.2,0.1-1.8l0.5,0.5l1.6-1.3l-0.6-0.6c-0.5,0.5-0.9,1.1-1.1,1.8
			c-0.2-0.6-0.7-1.3-0.5-1.8c0.6-1.7,1.7-3.3,2.2-5c1-3.3,2-6.7,2.7-10.1c0.5-2,0.8-4.1,0.8-6.2c-0.1-1.5-1.2-2.8-1.8-4.3l-0.5-0.8
			l0.4-0.7l-1.2-0.2c-1.4-0.5-2.8-1.5-4.3-1.6c-5.3-0.1-10.7,0.1-16,0.2c-0.6,0.1-1,0.4-1.3,0.9c-0.7,1.4-1.2,2.8-1.8,4.2l-1.8,3.5
			l-0.4,0.6l-2.2,2.7c-5.7,7-12.8,11.2-22,11.7c-5.6,0.4-11.2-0.6-16.3-2.9l-3.5-2l-2.3-1.6l-0.7-0.6c-5.2-4.1-8.2-9.8-10.4-15.9
			c-0.2-1-1.2-1.7-2.2-1.5c-2.8,0.1-5.6,0.1-8.3,0.1c-6.5,0.5-13.1,0.8-19.6,1.4c-9.5,0.9-17.8-0.9-24.3-8.6c-2.6-3.1-6-5.5-9-8.2
			c1,3.7,1.9,7.8,3.2,11.9c3.6,11.4,10.3,21.6,19.3,29.6l0.7,0.8l12.2,11.6l0,0L214.2,476.7L214.2,476.7z M349.5,411.1L349.5,411.1
			c0.5-1.1,1-2.1,1.4-3.2c1.1-3.5,1.1-3.5-2.3-4.9l-0.5-0.3l-2.6-1.6l0,0l-0.6-0.6c0.3-2.1-1-3-2.7-3.6l0,0l1.2-3.2
			c-0.1-1-0.2-2.1-0.3-3.2c0.7,1.1,1.4,2.2,2.2,3.3c1.5,2.1,4,3.2,6.5,2.9c2.4-0.2,2.8-2.5,3.4-4.4c0.3-0.8,0.5-1.7,0.5-2.6
			c-0.1-4.8,0.2-9.8-0.6-14.5c-3.2-19.2-13.6-34.5-28.7-46c-32.2-24.6-67-28.9-103.6-10.5c-18.2,8.9-32.7,24-40.7,42.6
			c-4.4,10-5.5,20.2-0.4,30.3c1.1,2.3,3,4.2,4.4,6.2c-8.1,4.5-8.3,14.4-3.7,20.6c6.5,8.8,15.3,13.5,26.6,12c5.9-0.8,7.8-2.6,8.7-7.5
			l-2.7-8.4c-0.6,7.1-0.6,7.1-2.2,7.5c0.5-9.7-3.3-17.4-10.9-23.3c0.4-0.1,0.8,0,1.2,0.1c5.1,1.2,8.3,4.8,11.2,8.7l1.5,3.2l2,6.4
			l0,0l0.5,0.7c0,0.5,0.1,1.1,0.1,1.6c0.5,0.2,1.1,0.4,1.7,0.5c3.7-0.1,7.4-0.3,11-0.4c1.7,0,3.5,0,5,0c0.4-2.5,0.9-5,1.6-7.4
			c3.2-9.4,10.3-16.9,19.4-20.7c10.4-4.5,20.5-4.2,30.2,1.8c8.5,5.2,13,13.2,14.8,22.8c0.6,3.3,0.6,3.2,4.1,3.4
			c2.8,0.1,5.5,0.5,8.3,0.8l6.9,6.8c2,2.9,2,2.9,4.6,1.8l0,0c1.4-0.8,3-1.4,4-2.5c3.5-3.8,8.1-6.5,13.2-7.6c1.5-0.4,2.3-1.2,1.8-2.8
			c0-0.1,0.1-0.2,0.2-0.3l0.9,1l1.1-1.9l0,0L349.5,411.1z M248.5,417.6c-0.4,4.3-0.9,8.6-1.3,12.8c0.9,2.7,1.5,5.5,2.9,8
			c1.9,3.7,5.1,6.6,9,8.2c2.1,0.8,4.3,2.1,6.4,1.9c3.8-0.4,7.8,0.2,11.5-1.5c1.2-0.6,2.4-1.3,3.6-1.3c2.4,0.1,4.7-0.9,6.3-2.6
			c1.3-1.3,2.6-2.7,4.7-2.7c0.6-0.1,1.1-0.5,1.4-1c1.4-2.9,3.5-5.7,3-9.2c-0.5-4-0.7-8.1-1.5-12.1c-0.9-4.1-3.1-7.9-6.3-10.7
			c-5.1-5-12.1-7.7-19.2-7.4c-3.4,0.2-3.4,0-4,3.5c-0.8,0-1.6-0.1-2.4,0c-5.7,0.3-9.7,4.4-9.7,9.8l-1.2-0.5l-0.9-2
			C249.8,413.4,249.1,415.5,248.5,417.6L248.5,417.6z M338,438.3c0.2,1.8,0.6,3.7,1,5.5c0.3,0.9,1.3,2.2,2,2.3c0.9,0,1.8-1,2.7-1.7
			c0.4-0.4,0.8-0.9,1.1-1.4c3.1-4.5,5.1-9.4,4.4-15.1c-0.1-1.7-1.2-3.1-2.9-3.5c-1.7-0.5-3.5,0.1-4.5,1.6
			C339.3,429.4,338.1,433.2,338,438.3L338,438.3z M252.7,400.9l-0.2-0.4c-1.7,0.9-3.7,1.4-4.9,2.7c-2.7,2.8-4.5,6.3-5.2,10.1
			c-0.3,1.8-0.4,3.7-0.5,5.6c1.8-3.2,2.9-6.5,4.6-9.4C248.3,406.4,250.4,403.6,252.7,400.9L252.7,400.9z M344.8,395.3h-0.5l0.1,1.2
			h0.4V395.3z M261.8,401.3c0,0.1,0,0.2,0,0.4l1.2-0.1c0-0.1,0-0.2,0-0.2H261.8z M262.1,402.3v0.2h0.6v-0.2H262.1z"/>
		<path class="st0" d="M387.9,340.3c-0.1-0.2-0.1-0.4-0.2-0.6l0.5,0.2L387.9,340.3z"/>
		<path class="st0" d="M339.8,89.9l-1.8-0.9L339.8,89.9z"/>
		<path class="st6" d="M207.2,501.7l4,2.3c1.7,2.2,3.3,4.5,6.2,5.3l0,0c0,1.3,0.1,2.3,1.9,1.3c0.6-0.4,1.4-0.5,2.1-0.4
			c1.1,0.3,2,1.1,3.1,1.4c5,1.6,10,3.1,15,4.7l1.8,0.9c-1.9-0.3-3,0.5-3.2,2.2l2.3,0.5l-0.1,0.5H232c0.8-0.7,1.7-1.2,2.7-1.5
			c0.7-0.2,1.5-0.4,2.2-0.7c0,0,0-0.8-0.1-0.8c-0.9-0.1-1.8-0.2-2.8-0.2c-0.3,0-0.6,0.6-0.9,0.5c-0.5,0-1-0.3-1.3-0.7
			c-0.2-0.5-0.3-1-0.3-1.6l-1.9-0.4c-1.5-0.3-3.9,1-4,2.1c-0.3,1.8,0.8,2.9,3.1,3.1c0.9,0.1,2.3,0.3,2.6,0.9c1.2,2.4,3.2,2,5.1,2.1
			c0.6,0,1.2,0.1,1.8,0.2c0,0.2,0,0.5,0.1,0.7c-1,0.4-2.1,0.7-3.2,0.8c-1.9,0-3.2,0.6-3.6,2.7c-0.3,2-1.5,2.6-3.7,2.8
			c-5.1,0.4-9.5-2.1-14.1-3.3c-1.5-0.4-2.7-1.5-4-2.4s-2.6-2.2-4-2.8c-2-0.8-4.2-0.9-6.3-1.5c-0.5-0.1-0.8-0.9-1.1-1.4
			s-0.6-0.9-0.9-1.4c-0.3,0.5-0.6,1-1,1.5s-0.8,1.5-1.4,1.7c-0.6,0.3-1.8-0.1-1.9-0.5c-0.6-1.8-1.9-2.5-3.4-3.4
			c-0.5-0.3-0.6-1.3-0.8-2c-0.6-1.9-0.8-4-1.8-5.5c-1.6-2.5-2.3-5.9-5.8-7c-0.2-0.1-0.3-0.6-0.4-1c-0.3-1-0.6-2.1-1-3.1
			c-1.5-3.3,0.1-6.1,3.8-6.2c0.6,0,1.2-0.1,2.1-0.2c-0.5-0.6-0.7-0.8-0.9-1.1c-1-1.4-3.6-2.3-1.8-4.8c0.1-0.1-0.1-0.6-0.3-0.7
			c-0.9-0.6-1.8-1.2-2.7-1.9c-0.5-0.4-1.4-1.3-1.2-1.6c0.3-0.7,1.1-1.1,1.7-1.6c2.5,2.6,5,5.2,7.6,7.7c1.1,0.7,2.2,1.3,3.4,1.7
			c0.1,0.1,0.1,0.2,0.1,0.3l1.3,1.9l0.9,1.3c-0.3,0.7-0.5,1.4-0.8,2.1c0.6,0.2,1.1,0.4,1.8,0.5c0.6-0.1,1.1-0.2,1.7-0.4l0,0
			c0.1,0.4,0.2,0.7,0.3,1.1l0.6-0.7l4.4,3.1l-0.1,0.1l0.1-0.2c0.6,0.5,1.2,0.9,1.8,1.2C204.6,501,205.4,502.8,207.2,501.7z"/>
		<path class="st3" d="M392.9,431.5l1.8,1.7l-5.8-0.8c-0.1,0.6-0.2,1.1-0.3,1.7c-4.5,0-8.8,0-13.2,0c-1.6,0-3.1,0.1-2,2.5
			c0.3,0.6,0.2,2,0,2.1c-2.1,0.6-1.6,2.8-2.7,4c-0.8,0.9-1.1,1.5,0.3,2.2c0.4,0.2,0.8,1.8,0.5,2c-2.2,1.8-1.8,5.3-4.6,6.7
			c-0.7,0.3-1.6,1.1-0.7,2.3c0.3,0.3-0.1,1.2-0.2,2.2l-0.9-1.6l-0.3,0.1c0.1,1.1,0.2,2.2,0.3,3.3l0,0c1,1.7-0.8,2.5-1.4,3.6
			c-1.9,3.7-3.7,7.6-6.3,10.8c-1.2,1.5-1.6,5.4-5,3.7c-0.5,2.8-1.9,5.4-3.9,7.4c-0.2,0.2-0.5,0.3-0.8,0.3c-2.2-0.1-2.8,1.2-2.7,3.2
			l-2.2-1.2c-1.7,1.9-2.1,5-5.5,5.2c2.2,3.8-1.9,1.8-2.6,3.1l1.7,1l-5.2,1.5c0.1,0.3,0.2,0.8,0.4,1.6l-2-0.7l0.5-1.4
			c6.6-6.3,13.2-12.6,19.8-19c1.3-1.4,2.5-2.9,3.6-4.4l1,1.2l0.5-0.5l-1.3-1.2c0.1-0.3,0.2-0.6,0.3-0.9l1.9-0.9
			c0.9-0.3,1.7-0.8,2.4-1.4c0.3-0.3-0.4-1.4-0.6-2.1l-0.3-0.6h0.1l1-1.9c3.4-6.9,6.9-13.7,10-20.7c1.8-4,2.9-8.3,4.4-12.4
			c0.8-0.6,1.7-1.6,2.5-1.7c5.4-0.2,10.8-0.1,16.2-0.1L392.9,431.5z M380.6,432.4c-0.4-0.2-0.7-0.5-0.9-0.4s-0.3,0.4-0.5,0.6
			c0.2,0.2,0.4,0.5,0.6,0.5S380.2,432.7,380.6,432.4z M372.2,438.6c0.1-0.1,0.1-0.2,0.2-0.3c0,0,0-0.1-0.1-0.2s-0.2,0.1-0.2,0.1
			C372.1,438.3,372.2,438.4,372.2,438.6z"/>
		<path class="st5" d="M241.4,517.3l-1.8-0.9l0.1-0.8c11.1,2.7,22.5,3.7,33.8,2.9c19.2-1.3,36.9-7,52.7-18.3
			c0.4-0.2,0.8-0.4,1.2-0.6l0,0c-0.6,0.9-1.2,1.8-1.8,2.6c-0.7,0.2-1.5,0.5-2.2,0.9c-1.2,1-2.5,1.9-3.8,2.7
			c-4.9,2.4-9.9,4.6-14.9,6.9c-1.2,0.7-2.4,1.3-3.7,1.8c-2,0.7-4,1.1-6,1.6c-1.7,0.4-3.5,0.9-5.2,1.2c-2.7,0.4-5.4,0.6-8.2,1
			c-0.2,0-0.3,0.4-0.5,0.7l-3.5,0.1l-4,0.5h-0.9c-0.6-0.2-1.2-0.4-1.8-0.4c-4.5,0-9.1,0-13.7,0l-6.1-0.1l-7.2-1.7
			C243.2,517.3,242.3,517.3,241.4,517.3z"/>
		<path class="st6" d="M169.6,465.5c1.1,1.5,2,3.1,3.2,4.5c0.6,0.5,1.3,0.9,2,1.2l0.7,1.3c-1.1,1.7,0.5,1.2,1.2,1.3l0,0
			c0.4,0.8,0.7,1.6,1.1,2.4s0.8,1.6,1.2,2.4l-3.5,4l-0.6-0.4c0.2-1.4,0.5-2.8,0.7-3.9c-1.1-0.5-2.1-1.1-3.1-1.8
			c-1.1-0.9-1.9-2.4-3.2-3.1c-1.2-0.6-1.8-1.9-1.4-3.1C168.4,468.7,169,467.1,169.6,465.5z"/>
		<path class="st3" d="M239.7,515.7l-0.1,0.8c-5-1.6-10-3.1-15-4.7c-1.1-0.3-2-1.1-3.1-1.4c-0.7-0.1-1.5,0-2.1,0.4
			c-1.7,1-1.9,0-1.9-1.3l1.3-0.4l-0.4-0.7l-1,1c-2.9-0.7-4.5-3.1-6.2-5.3c3.7,1.8,7.4,3.9,11.2,5.4
			C228.1,511.7,233.9,513.6,239.7,515.7z"/>
		<path class="st5" d="M179,478.8c-0.4-0.8-0.8-1.6-1.2-2.4s-0.7-1.6-1.1-2.4c3.6,4,7.2,8,10.9,12c1.2,1.3,2.5,2.6,3.7,3.9
			c-1.2-0.4-2.4-1-3.4-1.7c-2.6-2.5-5.1-5.1-7.6-7.7C179.8,480,179.4,479.4,179,478.8z"/>
		<path class="st5" d="M193.6,493.4l-0.9-1.3l-1.3-1.9c0.3,0,0.6,0.1,0.8,0.2c4.9,3.6,9.8,7.2,14.7,10.8c0.1,0.2,0.3,0.3,0.3,0.5
			c-1.8,1.1-2.6-0.8-3.8-1.3c-0.6-0.4-1.3-0.8-1.8-1.2l0,0l-4.4-3.1l-0.9-0.4l0,0L193.6,493.4z"/>
		<path class="st5" d="M391.4,431.4c-5.4,0-10.8-0.1-16.2,0.1c-0.9,0-1.7,1.1-2.5,1.7c0.2-0.6,0.3-1.3,0.5-2.1c4.8,0,9.6,0,14.4,0
			C388.9,431.1,390.2,431.3,391.4,431.4z"/>
		<path class="st5" d="M355.7,472.1l-1.9,0.9l3.4-5l0.3,0.6L355.7,472.1z"/>
		<path class="st0" d="M371.6,430.5v3.6h-0.7C370.9,432.9,369.9,431.6,371.6,430.5L371.6,430.5z"/>
		<path class="st5" d="M176.7,473.9c-0.7-0.2-2.3,0.4-1.2-1.3L176.7,473.9z"/>
		<path class="st6" d="M353.5,473.9l1.3,1.2l-0.5,0.5l-1-1.2C353.4,474.2,353.4,474,353.5,473.9z"/>
		<path class="st5" d="M330,497.7l-0.5,1.4l-0.4,0h-0.4c0-0.2,0-0.3,0-0.5L330,497.7z"/>
		<path class="st5" d="M358.3,466.2l-1,1.9C357.6,467.5,358,466.8,358.3,466.2z"/>
		<path class="st0" d="M163.1,432.9l-0.3-0.7l0.2-0.1l0.4,0.7C163.3,432.8,163.2,432.8,163.1,432.9z"/>
		<path class="st5" d="M327.4,499.6l0.8-0.5l0.5,0.1l0,0c0,0.2,0,0.3,0,0.5l0,0L327.4,499.6z"/>
		<path class="st3" d="M328.6,499.2l-0.5-0.1l0.5-0.4C328.6,498.9,328.6,499,328.6,499.2z"/>
		<path class="st7" d="M179,478.8l1.3,1.8c-0.6,0.5-1.4,1-1.7,1.6c-0.1,0.3,0.7,1.2,1.2,1.6c0.8,0.7,1.8,1.2,2.7,1.9
			c0.2,0.2,0.4,0.6,0.3,0.7c-1.7,2.5,0.8,3.4,1.8,4.8c0.2,0.3,0.4,0.5,0.9,1.1c-0.9,0.1-1.5,0.2-2.1,0.2c-3.7,0.1-5.3,2.9-3.8,6.2
			c0.4,1,0.7,2,1,3.1c0.1,0.3,0.2,0.9,0.4,1c3.4,1.1,4.2,4.5,5.8,7c1,1.6,1.2,3.7,1.8,5.5c0.2,0.7,0.3,1.7,0.8,2
			c1.4,0.9,2.8,1.6,3.4,3.4c0.1,0.3,1.4,0.7,1.9,0.5s1-1.1,1.4-1.7s0.6-1,1-1.5c0.3,0.4,0.6,0.9,0.9,1.4c0.3,0.4,0.7,1.3,1.1,1.4
			c2.1,0.6,4.3,0.8,6.3,1.5c1.5,0.6,2.7,1.9,4,2.8s2.6,2,4,2.4c4.7,1.2,9,3.7,14.1,3.3c2.2-0.2,3.4-0.8,3.7-2.8
			c0.4-2.1,1.6-2.7,3.6-2.7c1.1-0.1,2.2-0.4,3.2-0.8c0-0.2,0-0.5-0.1-0.7c-0.6-0.1-1.2-0.2-1.8-0.2c-2,0-4,0.3-5.1-2
			c-0.3-0.6-1.7-0.8-2.6-0.9c-2.3-0.3-3.4-1.3-3.1-3.1c0.2-1.2,2.5-2.4,4-2.1c0.6,0.1,1.2,0.2,1.9,0.4c0,0.5,0.1,1.1,0.3,1.6
			c0.3,0.4,0.8,0.6,1.3,0.7c0.3,0,0.6-0.5,0.9-0.5c0.9,0,1.9,0.1,2.8,0.2c0.1,0.2,0.2,0.5,0.1,0.8c-0.7,0.3-1.5,0.4-2.2,0.7
			c-1,0.3-1.9,0.8-2.7,1.5h8.3l0.3-0.6l-2.1-0.6c0.1-1.4,1.2-2.4,2.6-2.4c0.2,0,0.5,0.1,0.7,0.1h2.6c-0.1,0.3-0.3,0.5-0.4,0.7
			c-0.4,0.4-0.8,0.8-1.2,1.2c0.6,0.3,1.2,0.6,1.8,0.7c1.7,0.1,3.5,0,5.2,0c0.7,0.4,1.4,0.7,2.2,0.8c5.7,0.2,11.4,0.4,17.1,0.4
			c1.4,0,2.8-1.1,4.2-1.7h0.9c1.5,1.7,2.6-0.5,4-0.5l3.5-0.1c7,1.1,13.9,2.3,21.2,1.1l-0.8-2.3c1.2-0.1,2.5-0.1,3.7,0.1
			c0.6,0.1,1.1,1,1.6,1.5c-1,1.1-2.2,2-3.6,2.5c-0.8,0.4-1.7,0.8-2.5,1.1c-1.4,0.4-2.7,0.9-4,1.6c-0.5,0.4-0.1,1.9-0.5,2.6
			c-0.4,0.7-1.1,1.3-1.9,1.4c-3.2,0.2-6.3,0.1-9.5,0.1h-7.7c-1.7,0-2.2,1-2,2.5c0.1,1.2-0.4,2.9,1.5,2.8c2.9-0.1,5.8,0.7,8.6-0.9
			c1.3-0.7,3.1-0.6,4-2.2c0.4-0.3,0.9-0.4,1.4-0.2c1.9,0.9,4.1,0.9,6,0c0.5-0.2,1.1,0.1,1.7,0.2l5.2,0.6c1.1,0.1,1.6-0.3,1.6-1.5
			c0-1.6,0.9-2.9,2.5-2.8c3.3,0,6.5,0.4,9.8,0.6c1.8,0.1,3.7,0.1,5.5,0.1c0.5-0.1,0.9-0.5,1-1c0-2.9,2-2.4,3.8-2.5
			c0.8,0,2.4-0.5,2.4-0.9c0.1-3.6,2.6-3,4.9-3.1c0.9,0,2.4-0.4,2.5-0.9c0.5-2.7,2.5-2.2,4.3-2.2c1.6,0,3,0,3.3-2
			c0.1-0.4,0.9-0.9,1.4-1c0.9-0.2,1.9,0,2.9-0.1c1.7-0.2,2.3,0.6,2.7,2.1c0.2,0.9,1.2,2.2,1.8,2.2c1.1-0.2,2.1-0.8,2.7-1.7
			c1.2-1.7,1.8-3.7,2.9-5.4c0.5-0.8,1.7-1.9,2.2-1.8c1,0.4,1.7,1.3,2.1,2.3c0.2,1,0.1,2-0.1,3c-0.1,0.5-0.6,1.1-0.4,1.4
			c2,3.5-0.1,4.6-3,5.4c-0.1,0-0.2,0-0.2,0.1c-0.3,0.4-0.5,0.8-0.8,1.3c0.6,0,1.4,0.2,1.6-0.1c0.8-1.1,2.3-1.5,3.5-0.8
			c0,0.2,0,0.3,0,0.4l-0.4,0.9h-0.4c-2.2-0.5-1.5,1.6-2.3,2.8l-3.3-2.1c-0.3,1.7-0.6,3.2-0.9,4.7c-2.5,0-2.5,0-1.6,2.3
			c0.1,0.4,0.2,0.9,0.2,1.3l-0.1-0.1l0.1,0.1c-0.7,0.1-1.5,0-2.2-0.2c-1-0.6-1.8-1-2.6,0.1c-0.6,0.8-1.1,1.7-1.5,2.5
			c-0.2,0.6-0.4,1.2-0.6,1.8l-2-0.9c0.2-0.4,0.3-0.6,0.4-0.7c0.3-0.6,0.5-1.2,0.6-1.8c0-0.3-0.7-0.6-1-0.9c-0.3,0.5-0.6,1-0.9,1.5
			c-0.3,0.5-0.8,0.8-1.3,1.1c-1.8,0.7-3.7,1.4-5.6,2.1c2.8,3.6,2.8,3.6,1.2,5.2l-2.2-2.4c0.4,2.9-0.9,3.4-2.7,3.2
			c0-0.2,0.1-0.4,0.2-0.6l-2.5-0.7c-0.1,0.3-0.1,0.6-0.2,0.9c0.9,0.1,1.7,0.3,2.6,0.3c0.2,2.4-1.7,1.9-2.8,1.6
			c-1.2-0.4-2.4,0.2-2.8,1.4c0,0,0,0,0,0c-1.5,3.2-4,4.2-7.3,4c-1.5-0.1-3,0.5-4.1,1.7c-1.8,1.6-3.6,3.6-6.6,2.4
			c-0.5-0.1-1,0.1-1.4,0.4c-1,0.8-1.9,1.6-2.7,2.3l3.5,2.5l-0.5,1.4l0,0l-2.4-0.2c0.1-0.6,0.2-1,0.3-1.6c-1.6,0-3.1-0.1-4.5,0
			c-0.4,0-0.8,0.5-1.3,0.8c0.4,0.3,0.8,0.8,1.2,0.9c1,0.1,1.9,0.2,2.9,0.2l0.1,0.9c-1.3,0.2-2.7,0.4-4,0.5c-0.4,0-0.9-0.2-1.3-0.1
			c-1.9,0.7-3.7,1.4-5.5,2.1c-1.5,0.7-2.8,1.5-2.3,3.5l-7.8,2.7c-1,0.1-2,0.3-3,0.4c-0.5,0.1-1.1,0.1-1.6,0
			c-1.6-0.9-2.4-0.6-2.3,1.3c0.1,1.7-0.9,2.3-2.3,2.7c-2.6,0.6-5.2,1.2-7.7,1.7l-1.5,2.6h9.8c0,0.2,0.1,0.4,0.1,0.6
			c-0.6,0.3-1.3,0.4-2,0.5c-4,0-8,0.5-11.9-0.1c-2.8-0.5-4.8,1.6-7.6,1.1c-4.6-0.8-9.3-1.2-14-1.8c-2.4-0.3-4.9-0.6-7.3-1
			c-1-0.2-2.1-0.5-3.1-0.9c0,0.2,0.1,0.5,0.1,0.7c-0.7,0.5-1.5,0.8-2.2,1c-1.7,0.2-3.4,0.1-5.1,0.1l0,0c0.5-0.4,1.1-0.7,1.7-0.9
			c0.9-0.2,1.9,0.1,2.9-0.1c0.5-0.1,0.8-0.7,1.2-1.1l-0.5-0.5c-1.2,0.3-2.4,0.5-3.7,0.6c-2.2,0.1-4.6,0.5-6.7-0.1
			c-1.8-0.5-3.3-2.2-5.4-1.3c-0.2,0.1-0.6-0.4-0.8-0.6l4.4-1.9c-3.2-0.5-5.9-1-8.5-1.4c-3.2-0.5-6.3-1.1-9.5-1.7l0,0
			c-0.2-2.5-2.4-4.2-3.6-2.8c-1.6,1.9-2.2,0.3-3.4-0.2c0.2-0.2,0.2-0.4,0.3-0.5c1-0.7,1.9-1.3,2.9-2c-1.2-0.1-2.4-0.1-3.6,0.1
			c-1.3,0.3-3.3-0.7-3.6,1.4c-1.6-0.8-3-1.5-4.5-2.2c-0.7-0.3-1.7-0.1-2.2-0.6c-1.5-1.4-2.7-3-4.1-4.5c-0.8-0.8-1.6-1.4-2.6-1.8
			c-1.4-0.6-2.3-0.2-2.1,1.5c-1-0.4-2-0.7-1.1-2.2c0.2-0.5,0-1.1-0.3-1.5c-0.8-0.7-1.7-1.2-2.8-1.4c-0.5,0-1.1,1.4-1.7,2.1
			c-1.5-5.4-3.2-6.7-6.1-5.7l-2.2-1c-1-3-3.7-5.1-6.8-5.5c0.1-0.6,0.2-1,0.3-1.6l-2.3,0.2c0.1-3.1-1.8-4-4.5-3.9
			c0.2-2-0.8-2.7-2.1-3.4s-3.4-2-3.8-3.4c-0.5-1.8-1.8-3.1-3.6-3.5l2.8-0.7c-1.3-1.5-2.4-2.7-3.5-4c-0.5-0.7-1.5-1.6-1.3-2.1
			c0.9-3-1.2-3.5-3.2-4.2c-1.9-0.7-4.2-4.6-3.8-6.7c0.4-2-1.1-3.7-3.4-3.6l1.5,3.3l-0.7,0.4c-0.8-0.9-1.7-1.7-2.8-2.3
			c-1.2-0.4-2.5-0.7-3.7-0.8c0-0.3,0-0.6,0-0.9c4.8,0,4.7,0,2.7-4.6c-1.1-2.5-2.7-4.7-4.8-6.3c-2.9-2.3-2.4-5,1-6.5
			c0.5-0.2,1-0.5,1.4-0.8l2.9,3.1c0.2,0.2,0.5,0.4,0.5,0.6c-0.6,3.5,1.8,3,3.9,3h0.5l2.1,4l1.6-1.8l3.2,1.2c0.1,0,0.2,0.1,0.2,0.2
			l1,1.2v-0.1l0.9,0.9h-0.1l0.9,0.6v-0.1c0,0.5,0.1,1.1,0.2,1.6c1.7,0.2,3.5,0.2,5.2,0.2c0.2,0,0.4-0.5,0.7-0.7
			c0.1-0.1,0.2-0.2,0.3-0.1c0.2-0.3,0.6-0.8,0.5-1c-0.8-1.7-1.7-3.4-2.6-5.1c0.2-0.6,0.3-1.3,0.4-1.9c0-0.8,0.2-2.1-0.3-2.5
			c-2.2-2.1-2.3-4.9-2.6-7.5c-0.2-1.8,0.6-3.7,0.9-5.8h-1.9c0.1-2.1,0.3-4.2,0.3-6.3c0-1.6-0.6-3.3-0.7-4.9s0-3.2-1.7-3.7
			c-0.9-0.3-2.2,0.4-3.2,0.7l0,0v-4c0.6,0.2,1.1,0.3,1.7,0.4c0.5,0,1.1-0.2,1.2-0.5c0.2-0.5,0.3-1.6,0-1.8c-2.3-1.4-2.1-3.4-1.8-5.6
			c0-0.8-0.2-1.6-0.4-2.3c-0.7-4.1-2.6-7.9-2.2-12.3c0.1-1.7,0.4-2.5,2.2-2.3c0.9,0,1.9,0,2.8-0.1v-0.5l-3.4-0.4
			c0-0.1,0-0.2,0.1-0.4l21.5-1.1c0,0.2,0,0.4,0,0.6l-0.8,0.3c-0.5,0.2-1,0.4-1.5,0.7c-0.1,0,0.1,0.9,0.3,0.9c0.6,0.2,1.3,0.2,1.9,0
			c0.8-0.4,1.5-0.9,2.1-1.5c1.2,3,2.4,6.1,3.5,9.1c0.7,1.7,1.3,3.3,2,5c1.1,2.7,2.2,5.5,3.4,8.2c0.8,1.8,1.8,3.5,2.7,5.2v2.5
			l1.7-0.8l1,2.2c-0.6,1.6-1.3,3.2-1.7,4.9c-0.4,1.2,0.2,2.6,1.4,3.1c1.2,0.7,2,2.2,3.2,3.1c1,0.7,2,1.3,3.1,1.8
			c-0.2,1.2-0.5,2.5-0.7,3.9l0.6,0.4C176.7,481.4,177.8,480.1,179,478.8z M171.2,499.2c2.8,0,2.9,0,2.9-2.8c0-2.5-0.7-2.9-4.1-3
			c-2.3-0.1-1.7,1.6-1.7,2.8C168.3,499.1,168.4,499.2,171.2,499.2z M259.7,579.2c0-0.1,0-0.3,0-0.4h-6.4c0,0.1,0,0.3,0,0.4H259.7z
			 M280.9,520.7v-0.4h-4.2c0,0.2,0,0.3,0,0.4H280.9z M177.6,484.3l-0.6-0.6l-1.1,1.2l0.6,0.6C176.9,485.1,177.3,484.7,177.6,484.3z
			 M302.8,556.5c0,0.1,0,0.3,0,0.4h2c0-0.1,0-0.3,0-0.4H302.8z M118.5,492.2c0.1,0,0.2,0.2,0.3,0.1s0.1-0.2,0.2-0.3
			c-0.1,0-0.2-0.2-0.3-0.1S118.5,492.1,118.5,492.2z"/>
		<path class="st5" d="M378.6,515.5l0.5-2.2l0.1-0.1l-0.1,0.1c-1.8,1.8-3.6,3.6-5.5,5.3c-1,0.8-2.1,1.6-3.3,2.2
			c0.1-0.4,0.2-0.8,0.4-1.2l4-4.9c1.2-1.3,2.4-2.6,3.5-3.9c3.6-4.2,7.1-8.5,10.7-12.7l0.8-0.9l0.5-1.3c0.1,0,0.2,0,0.3-0.1
			c1.3,2.5-1.4,3.5-2.3,5c-1,1.8-2.9,3.1-2.6,5.6c0,0.1,0,0.4-0.1,0.4c-3.7,1.7-3.9,6.1-6.8,8.5
			C378.8,515.5,378.7,515.5,378.6,515.5z"/>
		<path class="st5" d="M318.2,572.3c-5.3,1.7-10.5,3.9-15.9,5.1c-9.4,2.1-19,4-28.5,5.3c-9.1,1.2-18.4,1.3-27.5,0.1
			c1.4,0,2.8,0.1,4.3,0c7-0.2,13.9-0.5,20.9-0.8c3.4-0.1,6.8-0.5,10.2-1c3.9-0.6,7.8-1.6,11.6-2.4c3.3-0.7,6.6-1.1,9.8-2
			c4-1.1,7.9-2.7,11.9-4C316.1,572.3,317.2,572.3,318.2,572.3z"/>
		<path class="st5" d="M397.2,484.9c1.3-2.8,2.7-5.7,3.9-8.6c2.3-5.4,4.5-10.8,6.8-16.3c-1,3.1-1.8,6.3-2.9,9.4
			c-0.7,2-1.5,4-2.4,5.9c-1.1,2.5-2.3,5-3.6,7.4C398.5,483.6,397.9,484.3,397.2,484.9z"/>
		<path class="st5" d="M390.8,495.2l6.4-10.2c0,0.9-0.2,1.7-0.5,2.5c-1.3,2.3-2.7,4.6-4.2,6.9C392.2,494.8,391.4,494.9,390.8,495.2z
			"/>
		<path class="st5" d="M395.6,508.6l-8.1,11.8c0.9-1.6,1.7-3.3,2.7-4.9c1.4-2.2,2.9-4.4,4.5-6.6
			C394.8,508.7,395.3,508.7,395.6,508.6z"/>
		<path class="st5" d="M339.4,561.7l-7.6,4.3C333.8,563.8,336.1,561.9,339.4,561.7z"/>
		<path class="st5" d="M383.7,525.4l-3.6,3.5c1.9-2.2,3.9-4.5,5.8-6.7L383.7,525.4z"/>
		<path class="st5" d="M357.5,540.4l5.2-4.4C361.3,537.8,360.1,540,357.5,540.4z"/>
		<path class="st5" d="M399.1,503.2c-0.6,1.2-1.2,2.3-1.8,3.5l-1.7,1.9C395.7,506.2,397,504.2,399.1,503.2z"/>
		<path class="st5" d="M401.8,498.3c-0.1,0.4-0.2,0.8-0.2,1.2l-2.5,3.7C399.3,501.2,399.6,499.2,401.8,498.3z"/>
		<path class="st5" d="M376,519.1l2.6-3.6C378.9,517.5,377.5,518.3,376,519.1z"/>
		<path class="st5" d="M346.8,557.2l-1.9,1.6l-0.1,0.1l-1,0.2L346.8,557.2z"/>
		<path class="st5" d="M353.1,543.9l2.2-1.7c0,1-0.7,1.8-1.7,1.8C353.4,544,353.2,544,353.1,543.9z"/>
		<path class="st5" d="M380.1,529.1l-1.5,1.5C378.9,529.8,378.1,528,380.1,529.1z"/>
		<path class="st5" d="M355.3,542.1l2.2-1.7L355.3,542.1z"/>
		<path class="st5" d="M343.8,559l-2.2,1.4L343.8,559z"/>
		<path class="st5" d="M387.2,520.9l-1.2,1.4L387.2,520.9z"/>
		<path class="st5" d="M340.5,561.5l-1.1,0.3l1.7-1L340.5,561.5z"/>
		<path class="st5" d="M348.4,556.3l-1.5,0.9C347.4,556.9,347.9,556.6,348.4,556.3z"/>
		<path class="st5" d="M402.6,496.9l-0.8,1.4L402.6,496.9z"/>
		<path class="st5" d="M352.1,544.8l0.9-0.8L352.1,544.8z"/>
		<path class="st5" d="M341.6,560.3l-0.5,0.4L341.6,560.3z"/>
		<path class="st7" d="M273.4,204.8l-0.3,0.6l-0.6,0.6l0,0l-4.9,1.5c-0.1,0-0.2,0.2-0.2,0.3c-1.3,1.4-2.8,2.4-4.6,3
			c-2-0.3-4.2-1.2-5.9-0.6c-3.5,1.2-7.2,1.7-10.9,1.5l0,0c-1.1-1.7-2.8-1-4.1-0.6c-2,0.5-4.2-0.1-4.7-2.1c-0.8-3.1-3.7-4-5.4-6.1
			l0.1-0.1l-0.5-0.6l-0.3,0.3c0.2,0.2,0.4,0.3,0.7,0.5c0,0.5,0,1.1,0,1.7l-0.9,0.9l-2.3,0.6c0-0.9,0.1-1.8,0.4-2.6
			c0.8-1.9,0.3-3.4-0.5-5.2c-0.8-2.1-1.5-4.2-1.9-6.4c-0.3-1.1-0.2-2.3-0.3-3.5c-0.5-3.2-1-6.4-1.5-9.5l0,0c0.6-0.8,1.7-1.6,1.8-2.5
			c0.1-2.3,0.1-4.5,0-6.8l0,0c0.3-0.4,0.9-0.7,0.9-1.2c0.4-3.2,0.6-6.3,1-9.5c0.1-0.3,0.1-0.7,0.2-1h0.6c0,2.2-0.1,4.4,0,6.5
			c0.2,0.7,0.5,1.3,0.8,1.9c0.3-0.6,0.8-1.3,0.8-1.9c0.1-6.4,0-12.8,0-19.2c1.1-1.1,1.3-4,0-5.8v5.9c-0.3-0.5-0.8-1-0.8-1.5
			c-0.1-2.9,0-5.9,0-8.8h0.7l0.5,3.4c1.2-1.8,1.5-3.1,0.3-4.5c-0.8-1-1.2-2.1,0.2-2.6s1.3-1.3,1.4-2.4c0-1.7,0-3.4,0.2-5.1
			c0.3-3.7,0.7-7.4,1.2-11.1c0.1-1.1,0.6-2.2,0.6-3.4c0.1-2,0-4.1-0.1-6.1c-0.1-0.8-0.1-1.6,0-2.4c0.5-2.4,0.8-4.7,1-7.1
			c0.1-2-0.7-4-0.7-6c0.1-3.2,0.5-6.4,0.9-9.5c0.2-0.7,0.6-1.3,1-1.8c0.3,0.6,0.8,1.2,0.7,1.8c-0.2,1.9-0.7,3.8-0.8,5.8
			c-0.1,3.2,0,6.3,0,9.5c0,0.7,0.1,1.3,0.2,2.5c0.5-0.7,0.7-0.8,0.7-1c0.3-4.7,0.7-9.3,0.9-14c0.1-2.8,0.7-3.5,3.5-3.8
			c3.8-0.4,7.5-0.9,11.3-1.2c2.2-0.2,4.7-1.1,6.6,1c0.4,0.3,0.8,0.3,1.2,0.1c2.6-1.5,5.2-0.4,7.6-0.2l-2,1.3
			c-1.1,0.5-2.3,0.9-3.4,1.5c0,0.3,0.1,0.6,0.2,0.9c1.1-0.2,2.1-0.4,3.2-0.6c0.7,0.3,1.4,0.6,2.1,0.9s1.5,0.6,2.3,0.9
			c-0.2,2.9-0.3,5.9-0.4,8.8c0,2.1-0.7,4.9,0.3,6.4c2.5,3.6,2.9,7.4,2.8,11.5c0,0.6,0.5,1.2,0.8,1.8c0.3,8.7,0.5,17.4,0.9,26.1
			c0.4,9.3-0.8,18.6,0.8,27.9c0.8,4.9-0.2,10,0.8,15c0.7,3.6,0.2,7.5,0.1,11.2c-0.1,0.6-0.2,1.1-0.3,1.7c-0.1,1.5-0.4,3-0.7,4.4
			c-0.4,1.1-1,2.1-1.6,3l-0.2-0.1l0.2,0.1c0,1,0.1,2.1,0.1,3.2l0,0C274.5,203.3,273.9,204.1,273.4,204.8z"/>
		<path class="st3" d="M226.2,169.6c0.3-5.4,0.7-10.7,1-16.1c0.5-7.2,1.1-14.3,1.7-21.4c0.5-5.2,1-10.4,1.6-15.5
			c0-0.4,0-0.7,0.1-1.1c0.7-12.7,1.3-25.4,1.9-38.1c0-0.8,0-1.7,0-2.5c3.9-0.4,7.8-0.8,11.6-1c9.4-0.4,18.9,0.2,28.1,1.9
			c1.8,0.3,2.3,1.2,2.3,2.8c0.4,10.5,0.8,20.9,1.2,31.4c0.9,25.4,1.8,50.7,2.7,76.1c0.2,5.3-0.1,10.6-2.6,15.5
			c-0.2,0.4-0.5,0.7-0.8,1c0-1-0.1-2.1-0.1-3.2l0,0c0.6-1,1.2-2,1.6-3c0.3-1.5,0.6-2.9,0.7-4.4c0.1-0.6,0.2-1.1,0.3-1.7
			c0-3.8,0.6-7.6-0.1-11.2c-1-5,0-10.1-0.8-15c-1.5-9.3-0.4-18.6-0.8-27.9c-0.4-8.7-0.6-17.4-0.9-26.1c-0.3-6.6-0.6-13.3-0.8-20
			c-0.1-1.9-0.1-3.8,0-5.7c0.2-2.1-0.5-3-2.7-2.7c-0.8-0.3-1.6-0.6-2.3-0.9s-1.4-0.6-2.1-0.9l0,0c1.1,0,2.2,0.1,3.3,0
			c0.4,0,0.7-0.5,1-0.8c-0.3-0.3-0.7-0.8-1-0.8c-1.1-0.1-2.2,0-3.3-0.1l0,0l1.9-1.2c-2.4-0.2-5-1.4-7.6,0.2
			c-0.4,0.2-0.9,0.1-1.2-0.1c-2-2-4.4-1.1-6.6-1c-3.8,0.3-7.6,0.9-11.3,1.2c-2.8,0.3-3.4,1-3.5,3.8c-0.2,4.7-0.6,9.3-0.9,14
			c0,0.2-0.2,0.3-0.7,1c-0.1-1.2-0.1-1.9-0.2-2.5c0-3.2-0.1-6.4,0-9.5c0.1-1.9,0.6-3.8,0.8-5.8c0-0.6-0.5-1.2-0.7-1.8
			c-0.4,0.5-0.8,1.2-1,1.8c-0.4,3.2-0.8,6.3-0.9,9.5c0,2,0.8,4,0.7,6c-0.2,2.4-0.5,4.8-1,7.1c-0.1,0.8-0.1,1.6,0,2.4
			c0,2,0.2,4.1,0.1,6.1c0,1.1-0.5,2.2-0.6,3.4c-0.4,3.7-0.8,7.4-1.2,11.1c-0.2,1.7-0.2,3.4-0.2,5.1c0,1.1,0,1.9-1.4,2.4
			s-1,1.7-0.2,2.6c1.2,1.4,0.9,2.7-0.3,4.5l-0.5-3.4h-0.7c0,2.9,0,5.9,0,8.8c0,0.5,0.5,1,0.8,1.5l0,0c0,6.4,0,12.8,0,19.2
			c-0.2,0.7-0.4,1.3-0.8,1.9c-0.4-0.6-0.7-1.2-0.8-1.9c-0.1-2.2,0-4.4,0-6.5h-0.6c-0.1,0.3-0.2,0.7-0.2,1c-0.3,3.2-0.6,6.4-1,9.5
			C227.1,168.8,226.6,169.2,226.2,169.6z M229.2,152h0.5V147h-0.5V152z"/>
		<path class="st3" d="M275.9,217.9c7.9-2.9,11.6-9.2,11.3-15.1c-0.5-9-1-18.1-1.7-27.1c-1.8-21.8-3.7-43.5-5.5-65.3
			c-0.6-7.7-1.1-15.5-1.6-23.2c-0.1-2,0-4,0-6l0.6-0.1c0.3,0.6,0.5,1.2,0.7,1.8c1,6.9,2.2,13.7,2.9,20.6c2.3,22.2,4.4,44.3,6.5,66.5
			c1,10.4,1.7,20.7,2.3,31.1c0.3,4-0.7,8-2.9,11.4c-1.8,2.5-4.3,4.4-7.2,5.4c-2,0.7-4.1,1.3-6.2,2
			C275.3,219.2,275.6,218.6,275.9,217.9z"/>
		<path class="st6" d="M222.8,186c0.6-2.4,1.2-4.7,1.8-7.1c0.5,3.2,1,6.4,1.5,9.5c0.2,1.1,0.1,2.4,0.3,3.5c0.4,2.2,1.1,4.3,1.9,6.4
			c0.8,1.8,1.3,3.3,0.5,5.2c-0.2,0.8-0.4,1.7-0.4,2.6l2.3-0.6l0.5,0.6l0.5-1.5v-1.8c1.7,2.1,4.6,3.1,5.4,6.1c0.5,2,2.7,2.6,4.7,2.1
			c1.3-0.4,3-1.1,4.1,0.6l-1.1,0.4l0.4,0.5l0.7-0.9c3.7,0.2,7.4-0.3,10.9-1.5c1.8-0.5,3.9,0.4,5.9,0.6l0,0l-1.8,0.5
			c-0.1,0-0.2,0-0.4,0l-2.8-0.5c0,0.3,0,0.6-0.1,0.9h2.4c-0.1,0.4-0.3,0.7-0.4,1l-4.5,0.3c-0.3,0.2-0.7,0.3-1,0.4
			c-6.5,0.3-13.1,0.1-19.3-2.1l1.3-1.3c-0.8-0.2-1.8-0.7-2.5-0.5c-1.8,0.5-4.1-0.5-4.2-1.7l-3.5-1.8l0,0l-0.7-0.5
			c-0.1-1.2,0.2-2.6-0.3-2.9c-1.4-0.8-1.2-2-1.3-3.2c-0.2-1.7,1-3.9-1.5-4.9c-0.1,0-0.1-0.5-0.1-0.8
			C222.3,191.1,222.5,188.5,222.8,186z M231.5,207.6c-0.1,0-0.2-0.2-0.3-0.1s-0.1,0.2-0.2,0.3c0.1,0,0.2,0.2,0.3,0.1
			S231.4,207.8,231.5,207.6L231.5,207.6z"/>
		<path class="st5" d="M218.8,62c-0.4-1.3,0.3-2.7,1.6-3.1c0.2-0.1,0.4-0.1,0.5-0.1c3.9-0.9,7.9-1.6,11.8-2.5
			c8-1.8,16.2-1.8,24.3-1.7c1.8,0,3.5,0.3,5.3,0.4c-3,0.3-5.9,0.6-8.9,0.8c-2,0.1-3.9,0-5.9,0v0.7h9.9c0,0.3,0,0.6,0,0.8l-10.1,0.5
			l-28.1,4.3L218.8,62z M245.9,56.5c0-0.2,0-0.4,0-0.5l-1.2,0.2v0.4H245.9z"/>
		<path class="st5" d="M249.5,63.7l3,0.2c-1.9,1.2-4.6-0.1-6.6,2.3l2.4,0.3c0,0.2-0.1,0.5-0.1,0.8c-5,0.5-9.9,1-14.9,1.6
			c-1.3,0.1-2.3,0.1-2.6-1.5c-0.3-1.9,0.8-2.1,2.2-2.2C238.4,64.6,243.9,64.2,249.5,63.7z M244.8,66.3l0.2,0.1c0,0,0.1-0.1,0-0.1
			s-0.1,0-0.2-0.1C244.8,66.2,244.8,66.2,244.8,66.3z"/>
		<path class="st1" d="M275.9,217.9l-1,1.9c-2.5,0.2-5.1,0.6-7.7,0.7c-6,0.1-12,0-17.9,0l0,0c0.8-0.4,1.7-0.7,2.6-0.9
			c3.7-0.2,7.5-0.2,11.2-0.5C267.5,218.9,271.7,218.4,275.9,217.9z"/>
		<path class="st5" d="M259.6,212.8c0.1-0.4,0.3-0.7,0.4-1l0.4-0.4c0.1,0,0.2,0,0.4,0l1.8-0.5l0,0c1.8-0.6,3.4-1.6,4.6-3
			c0.1-0.1,0.1-0.3,0.2-0.3c1.6-0.5,3.3-1,4.9-1.5c-1.3,1.2-2.5,2.9-4,3.7C265.6,210.9,262.6,211.9,259.6,212.8z"/>
		<path class="st5" d="M234.8,211.3c6.3,2.2,12.8,2.4,19.3,2.1c0.4-0.1,0.7-0.2,1-0.4l-3.8,1c-5.5,0.4-11.1-0.3-16.3-1.9
			c-0.4-0.1-0.7-0.1-1.1,0l-1.9-1.3l1.4-0.1L234.8,211.3z"/>
		<path class="st0" d="M252.9,217.9h12c0,0.2,0,0.4-0.1,0.6c-3.7,0.1-7.4,0.2-11.2,0.2C253.5,218.8,253.2,218.2,252.9,217.9
			L252.9,217.9z"/>
		<path class="st0" d="M223.7,62.9c-1.2,1.7-1.7,1.7-2.7,0C221.9,63,222.8,60.8,223.7,62.9z"/>
		<path class="st3" d="M273.4,204.8l1.8-2.3C274.5,203.3,273.9,204.1,273.4,204.8z"/>
		<path class="st0" d="M226.4,62.1l-1.8,0.4L226.4,62.1z"/>
		<path class="st5" d="M272.4,206.1l0.6-0.6C272.8,205.6,272.6,205.8,272.4,206.1z"/>
		<path class="st5" d="M112.8,502.8l-0.9-0.9c-3.6-6.9-7.1-13.7-10.7-20.6c-0.4-0.8-0.6-1.6-0.9-2.5c1.4,2.3,2.9,4.6,4.4,7l1.4-0.4
			c0,1.5-0.5,3.2,0.1,4.1c2.5,3.5,3.2,8.3,7.2,10.8C113.4,501,113.1,501.9,112.8,502.8z"/>
		<path class="st5" d="M107.6,466.4l4.6,8.4c-0.8-0.6-1.5-1.4-2.1-2.2C109.2,470.6,108.5,468.4,107.6,466.4z"/>
		<path class="st7" d="M126.2,495.2c0.1-0.2,0.1-0.4,0.2-0.5l0.2,0.1L126.2,495.2L126.2,495.2z"/>
		<path class="st5" d="M116.1,503.6l-0.1-0.1L116.1,503.6z"/>
		<path class="st3" d="M233.5,210.8l-1.4,0.1c-4.9-1.8-9.3-4.8-12.7-8.8c-0.4-5.7,1.9-10.8,3.4-16.1c-0.2,2.6-0.5,5.1-0.7,7.7
			c0,0.3,0,0.8,0.1,0.8c2.6,1,1.3,3.2,1.5,4.9c0.1,1.2-0.1,2.4,1.3,3.2c0.4,0.3,0.2,1.7,0.3,2.9l0.7,0.5l-0.1,0.2l0.1-0.2l3.5,1.8
			c0.1,1.2,2.4,2.2,4.2,1.7c0.7-0.2,1.7,0.3,2.5,0.5L233.5,210.8z M223.9,204.3c0-0.1,0.1-0.2,0.1-0.2h-0.1
			C223.8,204.2,223.8,204.3,223.9,204.3z"/>
		<path class="st0" d="M224.6,62.9l1.7,0.2c-0.5,0.6-0.8,1-1.4,1.7C224.7,63.9,224.6,63.4,224.6,62.9z"/>
		<path class="st0" d="M230.4,211l0,0.1c-0.1,0-0.1,0-0.2-0.1c0,0,0-0.1,0-0.1L230.4,211z"/>
		<path class="st4" d="M388.9,498.3c-3.6,4.2-7.1,8.5-10.7,12.7c-1.1,1.3-2.3,2.6-3.5,3.9h-3.8l3.4-6.7l1.5-3.1h-0.1l0.4-0.5v0
			l3.5-6.4c-0.4,1.8-0.8,3.5-1.3,5.6l2.5,1.7c0.1,0,0.2,0,0.3,0c2.5-1.2,2.5-1.2,0.5-3.3c-1.5-1.6-1.3-2.5,0.8-3.2
			c0.1,0,0.1,0-0.2-0.1c0.8,1.3,1.4,2.4,1.9,3.3l6.3-5.9l-0.5,1.3L388.9,498.3z"/>
		<path class="st0" d="M395.7,449.7v-2.9h0.4v2.9L395.7,449.7z"/>
		<path class="st0" d="M396.6,445.2v-2h0.5c0.1,0.7,0.1,1.3,0.2,2H396.6z"/>
		<path class="st4" d="M381.7,503.8c-0.2,0.2-0.4,0.4-0.5,0.4s-0.4-0.3-0.4-0.4c0.1-0.2,0.2-0.3,0.4-0.4
			C381.3,503.4,381.4,503.6,381.7,503.8z"/>
		<path class="st3" d="M199.8,570.5c3.2,0.6,6.3,1.1,9.5,1.7c2.6,0.4,5.2,0.9,8.5,1.4l-4.4,1.9c0.2,0.2,0.6,0.7,0.8,0.6
			c2.2-0.9,3.6,0.8,5.4,1.3c2.1,0.6,4.4,0.2,6.7,0.1c1.2-0.1,2.5-0.3,3.7-0.6l0.5,0.5c-0.4,0.4-0.8,1-1.2,1.1
			c-0.9,0.2-1.9,0-2.9,0.1c-0.6,0.2-1.2,0.5-1.7,0.9L206,574l5.9,0.8c-1.1-0.8-2.3-1.5-3.6-2.1c-1.7-1-2.3-0.5-2.3,1.2l-10-3.2
			c0,0.3-0.1,0.5-0.1,0.8c30.8,16.1,63.1,20.4,97,12.1c1.1,0.3,2.2,0.9,2.7-0.8l0.8-0.1l2.3,0.5l-0.5,0.8
			c-11.4,3.5-23.2,5.6-35.2,6.1c-7.2,0.1-14.4-0.2-21.6-0.9c-11.2-1-22.1-3.5-32.6-7.5c-10.9-4.1-21.5-9.2-31.4-15.2
			c-0.2-0.1-0.4-0.4-0.6-0.7c-0.5-1.2-0.8-2.7-2.7-1.8l0,0l-1.3-0.9l0,0l-0.6-0.4l0,0l-2-1.5l-2.7-1.8l-0.5-0.4l-0.9-0.5l-2.7-2.2
			l-0.4-0.4c-0.4-1.7-1.6-2.1-3.1-2.2l-0.9-0.5c-0.6-0.9-1.2-1.8-1.8-2.6c0.6-0.6,1.2-1.2,1.8-1.8l2.2,1c2.9-1,4.6,0.2,6.1,5.7
			c0.5-0.7,1.1-2.1,1.7-2.1c1.1,0.2,2,0.7,2.8,1.4c0.4,0.4,0.5,1,0.3,1.5c-0.9,1.5,0.1,1.8,1.3,2l-0.3,0.3l1.3,1.5l0.5-0.5
			c-0.4-0.5-1-1-1.5-1.3c-0.3-1.6,0.6-2,2-1.4c1,0.5,1.9,1.1,2.6,1.8c1.4,1.4,2.7,3.1,4.1,4.5c0.5,0.5,1.5,0.3,2.2,0.6
			c1.5,0.6,3,1.4,4.5,2.2c0.3-2.1,2.3-1.1,3.6-1.4c1.2-0.1,2.4-0.2,3.6-0.1c-1,0.7-1.9,1.3-2.9,2c-0.1,0.1-0.2,0.3-0.3,0.5
			c1.1,0.5,1.8,2.1,3.4,0.2c1.2-1.4,3.4,0.3,3.6,2.8l-0.7,0.4l0.2,0.3C199.5,570.9,199.6,570.7,199.8,570.5z M259.6,590.2v-0.6
			l-33.3-4.2c3.4,1,6.8,1.8,10.2,2.4c3.2,0.6,6.3,1.3,9.5,1.6C250.6,589.8,255.1,589.9,259.6,590.2z M225,585v-0.2h-0.9v0.2H225z
			 M194.5,570.2l-0.2,0.2l0.8,0.4l0.1-0.2C195,570.5,194.8,570.3,194.5,570.2z"/>
		<path class="st1" d="M295.5,583c-0.5,1.6-1.7,1.1-2.7,0.8L295.5,583z"/>
		<path class="st1" d="M313.1,576.6c0.2-0.1,0.3-0.2,0.5-0.3c0.2-0.1,0.1,0.1,0.1,0.1l-0.5,0.3L313.1,576.6z"/>
		<path class="st0" d="M322.9,571.8l-0.5-0.2l0.1-0.2L322.9,571.8L322.9,571.8z"/>
		<path class="st5" d="M174,564.3c1.9-0.9,2.2,0.6,2.7,1.8L174,564.3z"/>
		<path class="st5" d="M172.7,563.4l1.3,0.9L172.7,563.4z"/>
		<path class="st5" d="M172.2,563l0.6,0.4L172.2,563z"/>
		<path class="st5" d="M142.1,502.3c-0.2,0.2-0.4,0.7-0.7,0.7c-1.7,0-3.5-0.1-5.2-0.2c-0.1-0.5-0.2-1.1-0.2-1.6l1,0.3l-15-15.8
			l-0.5-0.6l-2.1-2.8l0.4-0.4c4.6,4.9,9.1,10,14,14.7C136.4,498.8,139.4,500.4,142.1,502.3z"/>
		<path class="st2" d="M132.6,482.6c-0.1,1.1-0.1,2.3-0.2,3.4c-1.4-2.3-1.4-2.3-4,0c-1.2-1-2.2-2-3.2-3.2c-0.6-0.9-1.3-2.5,0.9-2.8
			c0,0.8,0.1,1.6,0.1,2.5l1.7-0.8l1.5,1.9c0.2-2.2,0.4-3.6,0.5-5l0.6-0.1C130.6,480.4,130.5,482.1,132.6,482.6L132.6,482.6z"/>
		<path class="st5" d="M135.8,489.6l-3.2-6.9l0,0l-1.1-3.8c0.3,0.1,0.7,0.2,0.8,0.3c1.3,3.4,2.5,6.8,3.8,10.2L135.8,489.6z"/>
		<path class="st5" d="M140.4,496.1c0.9,1.7,1.8,3.4,2.6,5.1c0.1,0.2-0.3,0.6-0.5,1c-1.3-2.4-2.6-4.9-4-7.3c0.1-0.1,0.1-0.1,0.2-0.2
			L140.4,496.1z"/>
		<path class="st0" d="M128,481.9l-1.7,0.8c0-0.9-0.1-1.7-0.1-2.5v-1.8c0.6-0.3,1.2-0.6,1.8-0.9C128,478.9,128,480.4,128,481.9z"/>
		<path class="st5" d="M138.5,494.9l-2.7-5.3l0.2-0.2c0.9,1.8,1.8,3.5,2.7,5.3C138.6,494.8,138.5,494.8,138.5,494.9z"/>
		<path class="st3" d="M138.7,494.7c-0.9-1.8-1.8-3.5-2.7-5.3c-1.2-3.4-2.5-6.8-3.8-10.2c-0.1-0.2-0.5-0.2-0.8-0.3l0,0
			c-0.3-1.6-0.4-3.2-0.8-4.8c-1.1-4.3-2.4-8.5-3.6-12.8c-0.4-1.5-0.7-3.1-1.1-4.6c-0.2,0-0.4,0-0.6,0c-0.2-0.4-0.4-0.8-0.5-1.3
			c-0.2-1.5-0.3-3-0.5-4.5l-0.1-0.9c0-0.6,0-1.2,0.1-1.7c0-3.8,0-7.5,0-11.2c-0.1-2.6,1.6-4.8,4-5.6c0.2,0.3,0.3,0.8,0.5,0.8
			c1.6,0.4,3.3,0.5,4.9,0.2c2.3-0.5,4.8-0.1,7.3-0.2c0.7-0.2,1.4-0.4,2-0.8c3.3,0,6.6,0.1,9.9,0c2.1-0.1,2.8,0.7,2.6,2.7
			c-0.6,0.6-1.3,1.1-2.1,1.5c-0.6,0.2-1.3,0.2-1.9,0c-0.2,0-0.4-0.8-0.3-0.9c0.5-0.3,1-0.5,1.5-0.7c0.2-0.1,0.5-0.2,0.8-0.3
			c0-0.2,0-0.4,0-0.6l-21.5,1.1c0,0.1,0,0.2-0.1,0.4l3.4,0.4v0.5c-0.9,0.1-1.9,0.2-2.8,0.1c-1.8-0.2-2.1,0.6-2.2,2.3
			c-0.4,4.3,1.5,8.2,2.2,12.3c0.3,0.8,0.4,1.5,0.4,2.3c-0.4,2.2-0.5,4.2,1.8,5.6c0.3,0.2,0.2,1.2,0,1.8c-0.1,0.3-0.8,0.5-1.2,0.5
			c-0.6-0.1-1.2-0.2-1.7-0.4v4l-0.9,1.2l0.7,0.3l0.2-1.5c1.1-0.3,2.3-1,3.2-0.7c1.6,0.5,1.6,2.1,1.7,3.7s0.6,3.3,0.7,4.9
			c0.1,2.1-0.2,4.2-0.3,6.3l-1.7,1l0.7,0.7l1-1.7h1.9c-0.4,2.1-1.2,4-0.9,5.8c0.3,2.6,0.4,5.4,2.6,7.5c0.5,0.4,0.3,1.7,0.3,2.5
			c-0.1,0.6-0.2,1.3-0.4,1.9L138.7,494.7z M130.9,457.5l-0.7-0.2c-1.5,1.1-1.9,4.4-0.4,7.2C130.2,461.8,130.6,459.6,130.9,457.5z"/>
		<path class="st4" d="M124.5,450.9c0.2,1.5,0.3,3,0.5,4.5c0.1,0.4,0.3,0.9,0.5,1.3c1.1,7.6,3.1,15,6.1,22.1l0,0l1.1,3.8
			c-2-0.5-2-2.3-2-4l-0.6,0.1c-0.2,1.4-0.3,2.9-0.5,5l-1.5-1.9v-4.4l1.2-0.8l-3.1-0.9c-1-1.9-0.5-3.2,1.7-3.5
			c-2.2-3.2-2.2-7-2.5-10.7c-0.2-1.5-0.5-3-0.8-4.4C124.5,455,124.5,452.9,124.5,450.9z"/>
		<path class="st0" d="M124.5,450.9c0,2.1,0,4.1,0,6.2c-0.3-0.4-0.6-0.8-0.9-1.3c-0.3-1.2-0.6-2.5-0.8-3.8s0-2.2,1.6-2
			C124.4,450.3,124.5,450.6,124.5,450.9z"/>
		<path class="st5" d="M263.5,55.1l5.3,0.8C267.1,55.6,265.3,55.3,263.5,55.1z"/>
		<path class="st5" d="M270.6,55.9l5.3,0.8L270.6,55.9z"/>
		<path class="st5" d="M276.8,56.8h0.5H276.8z"/>
		<path class="st6" d="M374.3,508.1l-3.4,6.7l-4.5,6.5l-1.8,0.9c-1.2-0.7-2.7-0.4-3.5,0.8c-0.2,0.3-1.1,0-1.6,0.1
			c0.3-0.4,0.5-0.8,0.8-1.3c0,0,0.1,0,0.2-0.1c2.8-0.8,5-1.9,3-5.4c-0.2-0.3,0.4-0.9,0.4-1.4c0.3-1,0.3-2,0.1-3
			c-0.4-1-1.1-1.8-2.1-2.3c-0.5-0.2-1.7,1-2.2,1.8c-1.1,1.8-1.8,3.7-2.9,5.4c-0.6,0.9-1.6,1.5-2.7,1.7c-0.6,0-1.5-1.3-1.8-2.2
			c-0.4-1.5-1-2.3-2.7-2.1c-0.9,0.1-1.9-0.1-2.9,0.1c-0.5,0.1-1.4,0.6-1.4,1c-0.4,2-1.8,2.1-3.3,2c-1.8,0-3.7-0.6-4.3,2.2
			c-0.1,0.5-1.6,0.9-2.5,0.9c-2.3,0.1-4.8-0.4-4.9,3.1c0,0.3-1.5,0.8-2.4,0.9c-1.8,0.1-3.8-0.3-3.8,2.5c-0.1,0.5-0.5,0.9-1,1
			c-1.8,0.1-3.7,0-5.5-0.1c-3.3-0.2-6.5-0.6-9.8-0.6c-1.6,0-2.5,1.2-2.5,2.8c0,1.2-0.5,1.6-1.6,1.5l-5.2-0.6
			c-0.6-0.1-1.2-0.4-1.7-0.2c-1.9,0.9-4.1,0.9-6,0c-0.5-0.2-1-0.1-1.4,0.2c-0.9,1.6-2.7,1.5-4,2.2c-2.8,1.6-5.8,0.8-8.6,0.9
			c-2,0.1-1.4-1.6-1.5-2.8c-0.2-1.5,0.3-2.5,2-2.5c2.6,0,5.2,0,7.7,0c3.2,0,6.3,0.1,9.5-0.1c0.8-0.2,1.5-0.7,1.9-1.4
			c0.4-0.8,0-2.3,0.5-2.6c1.3-0.7,2.6-1.2,4-1.6c0.9-0.3,1.7-0.7,2.5-1.1c1.4-0.5,2.6-1.4,3.6-2.5c-0.5-0.5-1-1.4-1.6-1.5
			c-1.2-0.2-2.5-0.2-3.7-0.1l0.8,2.3c-7.3,1.2-14.2,0-21.2-1.1c0.2-0.2,0.3-0.6,0.5-0.7c2.7-0.3,5.4-0.6,8.2-1
			c1.8-0.3,3.5-0.8,5.2-1.2c2-0.5,4-1,6-1.6c1.2-0.5,2.5-1.1,3.7-1.8c5-2.3,10-4.5,14.9-6.9c1.3-0.8,2.6-1.7,3.8-2.7
			c0.7-0.4,1.4-0.7,2.2-0.9c1.6,0,2.9-1.1,3.1-2.6l0,0l0.4-0.4l0.4,0l2,0.7c-0.2-0.8-0.3-1.3-0.4-1.6l5.2-1.5l-1.7-1
			c0.7-1.3,4.8,0.7,2.6-3.1c3.4-0.2,3.8-3.3,5.5-5.2l2.2,1.2c-0.1-2,0.4-3.4,2.7-3.2c0.3,0,0.6-0.1,0.8-0.3c2-2,3.3-4.6,3.8-7.3
			c3.4,1.7,3.8-2.2,5-3.7c2.6-3.2,4.4-7,6.3-10.8c0.6-1.1,2.4-1.8,1.4-3.6l0.1-0.2l-0.1,0.2c-0.1-1.1-0.2-2.2-0.3-3.3l0.3-0.1
			l0.9,1.6c0.1-1,0.5-1.8,0.2-2.2c-1-1.2,0-2,0.7-2.3c2.8-1.4,2.5-4.9,4.6-6.7c0.2-0.2-0.1-1.8-0.5-2c-1.4-0.7-1.2-1.3-0.3-2.2
			c1.1-1.2,0.7-3.4,2.7-4c0.2-0.1,0.3-1.5,0-2.1c-1.1-2.4,0.4-2.5,2-2.5c4.3,0,8.7,0,13.2,0c0.1-0.6,0.2-1.1,0.3-1.7l5.8,0.8l-1,2.1
			c0.3,0.9,1,1.8,0.9,2.6c-0.4,3.5-1,6.9-1.6,10.4c-0.1,0.4-0.1,0.7-0.1,1.1c0.3,6.1-0.8,12.3-3.3,17.9c-0.6,1.3-0.5,3-0.7,4.5l0,0
			l-0.8-0.5c-0.1,0.5-0.4,1.2-0.2,1.5c0.8,1.1,0.9,1.8-0.5,2.4c-0.3,0.2-0.5,0.8-0.6,1.3c-1.4,4.1-2.7,8.2-4.1,12.3
			c-0.2,0.4-0.9,0.7-1.4,1c-1.6,4.1-3.3,8.5-4.9,12.9c-0.1,0.6-0.2,1.3-0.2,1.9v0l-0.4,0.5h0.1C373.6,505.3,374.4,506.9,374.3,508.1
			z M317.8,517.8c-0.3-0.9-0.6-1.7-1.1-2.5c-0.1-0.2-1.2-0.1-1.5,0.2c-1.4,1.2-2.7,2.5-3.8,3.9c-0.2,0.7,0.1,1.5,0.6,2
			C314.8,522.5,317.9,521.2,317.8,517.8L317.8,517.8z"/>
		<path class="st6" d="M388.9,471.7l-0.1,0.2L388.9,471.7L388.9,471.7z"/>
		<path class="st5" d="M135.4,500.8l-0.9-0.9C134.7,500.1,135,500.5,135.4,500.8z"/>
		<path class="st5" d="M134.4,499.9l-1-1.2L134.4,499.9z"/>
		<path class="st3" d="M121.6,485.1l0.5,0.6C122,485.5,121.8,485.3,121.6,485.1z"/>
		<path class="st5" d="M136.1,501.3l-0.9-0.6C135.5,500.9,135.8,501.1,136.1,501.3z"/>
		<path class="st7" d="M143.1,431.4c-0.6,0.4-1.3,0.7-2,0.8c-2.4,0.1-5-0.3-7.3,0.2c-1.6,0.3-3.3,0.3-4.9-0.2
			c-0.2,0-0.3-0.5-0.5-0.8H143.1z"/>
		<path class="st6" d="M168.7,463.3l-1.7,0.8v-2.6L168.7,463.3z"/>
		<path class="st0" d="M411.8,439v-5.2c2.4,1.8-0.5,3.5,0.7,5.2L411.8,439z"/>
		<path class="st0" d="M344.9,558.8l0.3,0.3C345.1,559,344.9,558.9,344.9,558.8L344.9,558.8z"/>
		<path class="st6" d="M159,549.2c-0.6,0.6-1.2,1.2-1.8,1.8l-6.6-4.5l-0.5-0.4l-0.4-0.4c-1.9-3.4-5.4-5.2-8-8
			c-2.1-2.3-4.4-4.5-6.7-6.6c-0.8-0.8-0.4-2.9-2.5-2.3l-0.9-0.8l-1.3-1.8l-0.4-0.4c-1.1-1.6-2.2-3.2-3.2-4.8
			c-0.4-0.6-0.8-1.2-1.3-1.7c-0.5-0.4-1.1-0.8-1.7-1.1c-1.1-2.2-2.3-4.3-3.3-6.5c-0.4-0.8-0.3-1.7-0.7-2.5c-0.4-0.6-0.9-1.1-1.4-1.6
			c1.3,0.1,2.5,0.3,3.7,0.8c1,0.6,1.9,1.4,2.8,2.3l0.7-0.4c-0.5-1.1-1-2.2-1.5-3.3c2.3-0.1,3.8,1.5,3.4,3.6c-0.4,2.2,1.9,6,3.8,6.7
			c1.9,0.7,4.1,1.2,3.2,4.2c-0.2,0.5,0.8,1.5,1.3,2.1c1,1.3,2.1,2.5,3.5,4l-2.8,0.7c1.8,0.4,3.2,1.8,3.6,3.5
			c0.4,1.4,2.3,2.6,3.8,3.4c1.5,0.8,2.3,1.5,2.1,3.4c2.7-0.1,4.6,0.8,4.5,3.9l2.3-0.2c-0.1,0.6-0.2,1-0.3,1.6
			C155.4,544.1,158,546.2,159,549.2z"/>
		<path class="st0" d="M116.5,508.9l-0.4-0.5L116.5,508.9z"/>
		<path class="st5" d="M299,358.7c4.7,1.4,9.4,2.7,14.2,4.1c2.1,0.6,4.3,1.3,6.4,1.9l0.3,0.2h0l1,0.4l0,0c0.1,0.2,0.2,0.5,0.3,0.7
			c7.6,6.5,13.6,14.7,17.4,24c1.2,2.4,2.5,4.7,3.9,6.9l0,0l2.7,3.6l0.6,0.6c-2.1-0.9-4.8-1.3-6.2-2.8c-1.1-1.2-0.8-3.7-1-5.7
			c-0.9-0.6-3.1,2.6-3-1c0.5-0.4,1.6-0.8,1.5-1.1c-0.3-1.3-0.6-2.6-1-3.9l-0.5,0.1v5c-1.6,0.2-1.8-0.7-1.8-2s0.6-3.2-1.4-3.9
			c-1.1,4.4-0.5,6.7,2.7,8.6c-1.1,0.5-2,1.3-2.5,1.2c-1.8-0.6-2.8,0.2-3.6,1.6s-1.5,2.9-2.3,4.2c-0.5,0.7-1.4,1.8-1.9,1.7
			c-1.9-0.4-2.6,0.7-3.4,2c-1,1.7-3.4,2.6-4.4,1.7c-1.8-1.6-3.8-0.6-5.7-0.7c-0.3,0-0.6,0.7-1.1,1.4l4.1,0.6
			c-1.3,1.5-2.1,2.6-3.9,2.1c-0.4-0.1-1.3,0.2-1.4,0.5c-0.6,1.8-2.2,3.7-0.3,5.4l-3.9,1.4l0.2,0.6l10.8,1.2
			c-0.2,0.5-0.3,0.8-0.5,1.1c-2.8-0.3-5.5-0.6-8.3-0.8c-3.5-0.1-3.4,0-4.1-3.4c-1.8-9.6-6.3-17.6-14.8-22.8
			c-9.7-6-19.8-6.3-30.2-1.8c-9.2,3.7-16.4,11.2-19.6,20.6c-0.7,2.4-1.2,4.9-1.6,7.4c-1.5,0-3.2,0-5,0c-3.7,0.1-7.4,0.3-11,0.4
			c-0.6-0.1-1.2-0.2-1.7-0.5c1.1-0.2,2.2-0.4,3.2-0.5c4,0,8.1,0,12.2,0c1.1,0,1.7-0.2,1.8-1.6c0.2-2.4,0.5-4.8,0.9-7.2
			c0.2-0.8,0.5-1.5,0.9-2.2c0.3-0.8,0.9-2,0.6-2.5c-0.7-0.8-1.6-1.3-2.7-1.5c-1.6-0.4-3.3-0.6-5-0.6c-1.1,0.1-2,0.7-2.6,1.6
			c-0.9,1.5-1.3,3.4-2.2,5c-0.5,0.6-1.2,0.9-2,1c-1.1,0.2-2.2-0.1-3.3,0.1c-0.7,0.1-1.2,0.6-1.5,1.2c-0.4,1.6-0.7,3.2-0.9,4.8
			l-2-6.4c1.2-2,2.9-1.6,4.6-0.9s3.4,0.9,4.4-1c0.6-1.3,0.9-2.6,1-4c0.4-2.7,0.5-5.3,1-8c0.2-1.5,0.6-3,1.2-4.3
			c0.9-1.7,1.8-3.4,2.9-5c1.3-2.4,2.9-4.6,4.5-6.8c1.9-2.2,4.4-3.8,6.4-5.9c4.3-4.4,9.6-7.3,15.2-9.8c3.5-1.6,7.3-2.3,10.8-3.8
			c5.7-2.4,11.7-2.7,17.7-3.2c1.2-0.1,2.3-0.1,3.5-0.1h2.3L299,358.7z"/>
		<path class="st1" d="M264.8,403.4c0.6-3.4,0.6-3.3,4-3.5c7.2-0.3,14.1,2.4,19.2,7.4c3.2,2.8,5.4,6.5,6.3,10.7
			c0.8,4,1,8.1,1.5,12.1c-0.2,0.1-0.6,0.2-0.7,0.4c-1.9,3.5-5.3,6-9.2,6.9c-2.7,0.7-5.6,0.8-8.4,1.1c-1.2,0.1-2.3,0.3-3.4,0.7
			c-3.9,1.6-8,1.7-12.1,1.5c-0.5,0-1.4-0.5-1.5-1c-0.5-1.8-1.8-1.7-3.1-1.6c-0.6,0-1.4,0.3-1.9,0.1c-2.7-1.6-5.9-2.7-6.9-6.3
			c-0.2-0.6-1-1-1.5-1.4c0.4-4.3,0.9-8.6,1.3-12.8l3.1-4.9l1.2,0.5c2.1,6.6,8.3,9,13.6,4.9c3.2-2.4,3.7-5.9,3.2-9.5
			C269.3,405.9,267.9,403.8,264.8,403.4z"/>
		<path class="st3" d="M315,420.1c0.1-0.3,0.3-0.6,0.5-1.1l-10.8-1.2l-0.2-0.6l3.9-1.4c-2-1.7-0.3-3.6,0.3-5.4
			c0.3-0.4,0.8-0.6,1.4-0.5c1.8,0.5,2.7-0.6,3.9-2.1l-4.1-0.6c0.5-0.7,0.8-1.4,1.1-1.4c1.9,0.1,3.9-0.9,5.7,0.7c1,1,3.5,0,4.4-1.7
			c0.8-1.4,1.5-2.4,3.4-2c0.5,0.1,1.5-1,1.9-1.7c0.9-1.3,1.6-2.8,2.3-4.2s1.7-2.2,3.6-1.6c0.6,0.2,1.5-0.6,2.5-1.2
			c-3.2-1.9-3.8-4.2-2.7-8.6c2,0.8,1.4,2.5,1.4,3.9s0.2,2.2,1.8,2l0,0c0,3.6,2.2,0.4,3,1c0.3,2-0.1,4.5,1,5.7c1.5,1.5,4.1,2,6.2,2.8
			l0,0c0.1,0.8,0.2,1.6,0.3,2.4h-0.7c0,0.1,0,0.1,0.1,0.2l0.7-0.2l2.2-0.8l0.5,0.3l2.1,2.3c-0.4,1.9-0.8,3.8-1.2,5.8v0.1
			c-2.2,0.3-1.9,2-1.8,3.5l0,0h-1.8c-0.9,1.4-1.4,2.7-2.3,3.3s-2.5,0.7-3.7,1.1c-1.6,0.3-3.1,0.9-4.5,1.6c-2,1.4-3.8,2.9-5.5,4.6
			c-1.2,1.1-3.4,1.3-3.4,3.5l0,0c-0.8-0.3-1.5-0.7-2.3-1s-1.5-0.6-2.3-0.8L315,420.1z"/>
		<path class="st3" d="M274.1,494.2c-12.2,1.7-23.9,0-35.5-3.8c-1.2-0.4-2.3-0.9-3.5-1.3c-0.3-0.4-0.4-1-0.8-1.2
			c-1.2-0.6-2.5-1-3.8-1.5c-2.4-1-4.7-2-7.1-3l0,0c-1.4-2.2-3.6-3.7-6.1-4.1l0,0l-0.8-1.8l0.9-1.2l-0.7-0.3c-0.1,0.5-0.2,1-0.2,1.5
			l-1.4,0.1l0,0l-1-0.8h0.1l-2.2-1.9l0,0c-1-2-1.7-4.1-4.1-5.2c-1.5-0.5-2.4-2-2-3.5l2.2,1.4c0.5-0.8,1-1.5,1.5-2.3
			c0,0.2,0.1,0.5,0.1,0.7c2.4,0.2,4.9,0.1,7.3-0.1c2.4-0.6,4.7-1.3,7-2.2l-1.3-0.9c1.2-0.8,2.5-1.3,3.2-2.2
			c2.6-3.3,4.9-6.8,4.9-11.4c0-2.8,0.5-5.6,0.8-8.4c2,0.2,4.1,0.3,6.1,0.5s2.1,0.5,1.3,2.3c-1-1.6-3.6-2-6.3-1c1.3,1,2.5,8.1,1.9,11
			c-0.8,4-3,7.2-5.4,10.8c-0.1-0.5-0.2-0.9-0.3-1.4c-0.3-0.7-0.7-1.5-1-2.2c-0.6,0.8-1.2,1.5-1.7,2.3c-0.2,0.3,0,0.7,0,1.1
			c-0.2,2.4-0.8,4.5-3.6,5.4c-2.1,0.6-2.3,3.3-0.7,4.8c1.2,1,2.2,2.2,3.3,3.4l-0.4,0.5l2,0.5c-0.5,0.3-1,0.6-1.6,0.6
			c-0.5,0.1-1,0.4-1.5,0.6c-0.1,0,0,0.7,0.1,0.8c0.5,0.2,1.1,0.3,1.7,0.3c1.4-0.4,2.7-1,4.1-1.4c0.6-0.1,1.2,0,1.8,0.2l-0.9,1.4
			c-0.2,0.3-0.6,0.7-0.6,1s0.6,0.6,0.9,0.7c0.6,0.2,1.6,0.1,1.8,0.4c1.1,1.8,2.8,2.5,4.5,3.6c3.1,1.9,6.6,1.1,9.6,3
			c2.1,1.3,5.4,0.4,7.3,3c0.2,0.3,1.2,0.3,1.7,0.2c3.4-0.9,6.6-1.2,9.6,1.2c0.5,0.3,1.1,0.3,1.7,0.2c2.3-0.2,4.7-0.6,7-0.9
			C274.1,493.6,274.1,493.9,274.1,494.2z M231.4,456.5l-0.3-0.2c0,0.1-0.2,0.2-0.1,0.3s0.2,0.1,0.3,0.2L231.4,456.5z"/>
		<path class="st0" d="M247.2,430.5c0.5,0.5,1.3,0.8,1.5,1.4c1,3.6,4.2,4.7,6.9,6.3c0.5,0.3,1.2,0,1.9-0.1c1.3-0.1,2.7-0.2,3.1,1.6
			c0.3,0.6,0.9,0.9,1.5,1c4.1,0.2,8.2,0.1,12.1-1.5c1.1-0.4,2.2-0.6,3.4-0.7c2.8-0.4,5.7-0.4,8.4-1.1c3.9-0.9,7.2-3.4,9.2-6.9
			c0.1-0.2,0.5-0.2,0.7-0.4c0.5,3.6-1.6,6.3-3,9.2c-0.3,0.5-0.8,0.9-1.4,1c-2.1,0-3.4,1.4-4.7,2.7c-1.6,1.7-3.9,2.7-6.3,2.6
			c-1.2,0-2.4,0.8-3.6,1.3c-3.7,1.8-7.7,1.2-11.5,1.5c-2,0.2-4.3-1.1-6.4-1.9c-3.9-1.6-7.1-4.5-9-8.2
			C248.7,436,248.1,433.1,247.2,430.5z"/>
		<path class="st3" d="M218.3,417.1c0.2-1.6,0.5-3.2,0.9-4.8c0.3-0.6,0.8-1,1.5-1.2c1.1-0.2,2.2,0.1,3.3-0.1c0.8-0.1,1.5-0.4,2-1
			c0.9-1.6,1.3-3.4,2.2-5c0.6-0.9,1.5-1.5,2.6-1.6c1.7-0.1,3.3,0.1,5,0.6c1,0.2,2,0.7,2.7,1.5c0.3,0.5-0.3,1.6-0.6,2.5
			c-0.3,0.7-0.6,1.4-0.9,2.2c-0.4,2.4-0.7,4.8-0.9,7.2c-0.1,1.3-0.7,1.6-1.8,1.6c-4,0-8.1,0-12.2,0c-1.1,0.1-2.2,0.2-3.2,0.5
			c0-0.5-0.1-1.1-0.1-1.6L218.3,417.1L218.3,417.1z"/>
		<path class="st5" d="M231.7,440.7c-0.3,2.8-0.8,5.6-0.8,8.4c0,4.5-2.3,8-4.9,11.4c-0.7,0.9-2,1.4-3.2,2.2l1.3,0.9
			c-4.4,2.2-9.4,3-14.3,2.3c0-0.2-0.1-0.5-0.1-0.7l-1.5,2.3l-2.2-1.4c-0.4,1.5,0.5,3.1,2,3.5c2.3,1,3.1,3.2,4.1,5.2l-12.2-11.6h7.8
			h0.8c3.2,0.2,6.4,0.6,9.6,0.6c1,0,2-1,3-1.5c4.3-2.5,6.6-6.3,8-11s0.5-9.4,0.8-14.1c0-0.3-0.3-0.7-0.4-1c2.8,0,5.6,0,8.4-0.1
			c1-0.2,2,0.5,2.2,1.5c2.2,6.1,5.2,11.8,10.4,15.9c-0.1,0.1-0.2,0.2-0.3,0.3c-3.3-0.9-4.9-3.7-6.5-6.2c-1.7-2.8-2.8-5.9-4.3-8.8
			c-0.5-0.7-1.2-1.2-2.1-1.3c-0.9-0.1-1.8-0.2-2.6-0.1C231.6,437.6,231.6,437.6,231.7,440.7z"/>
		<path class="st5" d="M274.1,494.2c0-0.3,0-0.5,0-0.8c4.3-1,8.6-2,12.9-3.1c1-0.4,2-0.6,3.1-0.8c2.4-0.1,3.8-3,6.5-2.4
			c0.1,0,0.4-0.8,0.6-1.2l0,0c2.5-1.3,5.2-2.3,7.4-4c2.6-2,4.7-4.5,7-6.8c1.6-1.7,2.9-3.6,3.9-5.8c1.2-2.3,3.2-4.3,5-6.6
			c-3-0.8-1.5-1.8-0.7-3l1.2,1.4c0.5-2.3,0.5-4.8,1.6-6.5c0.9-1.4,1.3-3,1.3-4.7c-0.1-1.2-0.1-2.5,0.1-3.7c1.2-4.6-1-8.3-5.7-8.5
			c-4.5-0.2-9-0.2-13.5,0c-1.4,0.1-3.2,0.4-3.1,2.5l-0.9,1.8l0,0l-0.8,0.5l-0.1-0.1c0.6-1.4,1.1-2.9,1.8-4.2
			c0.3-0.5,0.8-0.8,1.3-0.9c5.3-0.2,10.7-0.3,16-0.2c1.4,0,2.9,1,4.3,1.6l0.8,0.9l0.5,0.8c0.3,1.5,0.5,3,0.6,4.6
			c0.2,7.8-2.2,15-6,21.7c-3.3,5.7-7.4,10.8-12.3,15.2l0,0l-5.2,3.7C293.1,489.9,283.8,492.9,274.1,494.2z"/>
		<path class="st3" d="M257,457.9c5.1,2.3,10.7,3.3,16.3,2.9c9.1-0.5,16.3-4.7,22-11.7l2.2-2.7l0.5,0.1c-1.1,1.3-0.9,2.3,0.6,2.9
			l-4.8,4.5c0.7,1.5,1.6,3.2-1.3,3.2c-0.2,0-0.4,0.1-0.6,0.3c-1.9,1.5-3.7,2.9-6.3,1.4c-0.3-0.2-0.7-0.2-1.1,0
			c-1.6,0.8-3.2,1.6-4.6,2.3l2.3,1.9c-2.6,0.1-5.2,0.1-7.8,0c-2.7-0.3-5.3-1.2-8-1.5c-1.4-0.2-2.9,0.5-4.4,0.7
			c-1.2,0.1-3.1,0.3-3.3-0.1c-0.8-1.7-2.3-1.3-3.4-1.9c-0.1,0-0.1-0.2-0.2-0.4l2.1-0.3l-1.2-1.5C256.4,458,256.7,458,257,457.9z
			 M291.2,455.8l0.7,0.5c0.3-0.5,0.6-0.9,0.9-1.4l-0.6-0.4C291.9,454.9,291.5,455.4,291.2,455.8L291.2,455.8z"/>
		<path class="st4" d="M342.4,396.9c-1.4-2.2-2.7-4.5-3.9-6.9c-3.9-9.3-9.8-17.5-17.4-24c-0.2-0.2-0.2-0.5-0.3-0.7
			c4.9,2.3,9.2,5.6,12.7,9.6c1.3,1.5,2.4,3.2,3.6,4.7c0.2,2,0.9,3.6,2.9,4.4l0.1,0.1c-1,2.1-1.7,4.1,0.2,6.1l1.2-1.5l1.8,1.3
			c0.1,0,0.2,0.2,0.1,0.3c0,0,0,0,0,0c0.1,1.1,0.2,2.3,0.3,3.2C343.2,394.8,342.7,395.9,342.4,396.9z"/>
		<path class="st4" d="M306.8,481.7c4.9-4.4,9-9.5,12.3-15.2c3.8-6.7,6.3-13.8,6-21.7c-0.1-1.5-0.3-3.1-0.6-4.6
			c0.6,1.4,1.7,2.8,1.8,4.3c0,2.1-0.2,4.2-0.8,6.2c-0.8,3.4-1.7,6.8-2.7,10.1c-0.5,1.7-1.6,3.3-2.2,5c-0.2,0.5,0.3,1.2,0.5,1.8
			c-0.1,0.5-0.2,1-0.4,1.5c-1.8-0.3-1.2,1.5-1.9,2.1s-0.2,3.4-2.7,1.9l-1,2.2l-6.1,6.9C308.5,482.2,307.6,482,306.8,481.7z"/>
		<path class="st5" d="M326.5,428.8c0-2.3,2.2-2.4,3.4-3.5c1.7-1.7,3.5-3.3,5.5-4.6c1.4-0.7,3-1.3,4.5-1.6c1.2-0.4,2.7-0.4,3.7-1.1
			s1.3-1.9,2.3-3.3h1.8l-1.1,1.9l-0.9-1c-0.1,0.1-0.2,0.2-0.2,0.3c0.5,1.6-0.3,2.4-1.8,2.8c-5.1,1.2-9.6,3.8-13.2,7.6
			C329.5,427.4,327.8,428,326.5,428.8z"/>
		<path class="st5" d="M223.5,483.4c2.4,1,4.7,2,7.1,3c1.2,0.5,2.5,0.9,3.8,1.5c0.4,0.2,0.5,0.8,0.8,1.2
			C231.3,487.2,227.4,485.3,223.5,483.4z"/>
		<path class="st4" d="M301.5,485.4l5.2-3.7c0.3,0.5,0.8,1,0.8,1.5s-0.5,0.8-0.9,1.2c-1.2-0.9-1.8,0-2.7,0.6
			C303.2,485.4,302.4,485.5,301.5,485.4z"/>
		<path class="st5" d="M349.5,411.1c0.4-1.9,0.8-3.9,1.2-5.8l-2.1-2.3c3.4,1.4,3.5,1.4,2.3,4.9C350.5,409,350,410.1,349.5,411.1z"/>
		<path class="st0" d="M251.6,412.8l-3.1,4.9c0.7-2.1,1.3-4.2,2.2-6.9C251.1,411.9,251.4,412.3,251.6,412.8z"/>
		<path class="st5" d="M217.4,479.3c2.5,0.5,4.7,2,6.1,4.1L217.4,479.3z"/>
		<path class="st5" d="M321.9,427c0.8,0.3,1.5,0.5,2.3,0.8s1.5,0.6,2.3,1C323.9,429.9,323.9,429.9,321.9,427z"/>
		<path class="st5" d="M347.7,414.6c0-1.5-0.4-3.2,1.8-3.5L347.7,414.6z"/>
		<path class="st4" d="M345,400.5l-2.7-3.6C344,397.5,345.4,398.4,345,400.5z"/>
		<path class="st5" d="M251.2,454.4l2.3,1.6l-0.2,0.3c-1-0.3-2.9,0.6-2.2-1.8L251.2,454.4z"/>
		<path class="st5" d="M257,457.9l-1,0.1l-2.7-1.8c0.1-0.1,0.2-0.2,0.2-0.3L257,457.9z"/>
		<path class="st5" d="M297.9,445.9l1.8-3.5l0.1,0.1c0,0.2,0,0.3,0.1,0.4l-0.1,1.3l-1.7,1.8L297.9,445.9z"/>
		<path class="st5" d="M345.9,403.5c-0.1-0.8-0.2-1.6-0.3-2.4l2.6,1.6L345.9,403.5z"/>
		<path class="st4" d="M320.8,467.4l1.4-1.5l0.6,0.6l-1.6,1.3L320.8,467.4z"/>
		<path class="st5" d="M216.6,477.5l0.8,1.8l-2.2-1.8L216.6,477.5L216.6,477.5z"/>
		<path class="st4" d="M344.8,395.4v1.2h-0.4l-0.1-1.2L344.8,395.4z"/>
		<path class="st5" d="M212.1,474.9l2.2,1.9C213.6,476.1,212.8,475.5,212.1,474.9z"/>
		<path class="st1" d="M261.8,401.4h1.2c0,0.1,0,0.2,0,0.2l-1.2,0.1C261.8,401.6,261.8,401.5,261.8,401.4z"/>
		<path class="st4" d="M324,439.5l-0.8-0.9l1.2,0.2L324,439.5z"/>
		<path class="st5" d="M214.2,476.7l1,0.8L214.2,476.7z"/>
		<path class="st1" d="M262.1,402.3h0.6v0.2h-0.6V402.3z"/>
		<path class="st5" d="M250.5,453.7l0.7,0.6l-0.1,0.1l-0.8-0.5C250.3,453.9,250.4,453.8,250.5,453.7z"/>
		<path class="st5" d="M298.1,446.5l-0.5-0.1l0.4-0.6l0.2,0.2L298.1,446.5L298.1,446.5z"/>
		<path class="st5" d="M218.4,417.1l0.5,0.7L218.4,417.1z"/>
		<path class="st7" d="M193.6,493.4l2.6,2.2c-0.5,0.2-1.1,0.4-1.7,0.4c-0.6-0.1-1.2-0.3-1.8-0.5
			C193.1,494.8,193.4,494.1,193.6,493.4z"/>
		<path class="st7" d="M196.2,495.6l0.9,0.4l-0.6,0.7C196.5,496.3,196.4,495.9,196.2,495.6z"/>
		<path class="st5" d="M201.5,499.1l-0.1,0.2L201.5,499.1L201.5,499.1z"/>
		<path class="st6" d="M355.7,472.1l1.8-3.5c0.2,0.7,0.9,1.8,0.6,2.1C357.4,471.3,356.6,471.8,355.7,472.1z"/>
		<path class="st6" d="M380.6,432.4c-0.4,0.3-0.6,0.6-0.8,0.6s-0.4-0.3-0.6-0.5c0.2-0.2,0.3-0.5,0.5-0.6S380.2,432.2,380.6,432.4z"
			/>
		<path class="st6" d="M372.2,438.6c-0.1-0.1-0.1-0.2-0.1-0.4c0,0,0.2-0.1,0.2-0.1s0.1,0.1,0.1,0.2
			C372.4,438.3,372.3,438.4,372.2,438.6z"/>
		<path class="st6" d="M272.8,519.6c-1.4,0.6-2.8,1.6-4.2,1.7c-5.7,0.1-11.4-0.2-17.1-0.4c-0.8-0.2-1.5-0.4-2.2-0.8
			c2.1,0,4.1,0.1,6.2,0c0.7-0.2,1.3-0.5,1.8-0.9c4.5,0,9.1,0,13.7,0C271.6,519.2,272.2,519.3,272.8,519.6z"/>
		<path class="st6" d="M249.4,520c-1.7,0-3.5,0.1-5.2,0c-0.6-0.1-1.2-0.4-1.8-0.7c0.4-0.4,0.9-0.8,1.2-1.2c0.2-0.2,0.3-0.5,0.4-0.7
			l7.2,1.7L249.4,520z"/>
		<path class="st7" d="M249.4,520l1.8-0.9l6.2,0c-0.5,0.4-1.1,0.6-1.8,0.8C253.5,520.1,251.4,520,249.4,520z"/>
		<path class="st3" d="M328.6,499.6c-0.2,1.5-1.6,2.7-3.1,2.6l1.8-2.6L328.6,499.6z"/>
		<path class="st6" d="M277.7,519.1c-1.3,0-2.4,2.2-4,0.5L277.7,519.1z"/>
		<path class="st6" d="M217.5,509.4l1-1l0.4,0.7L217.5,509.4L217.5,509.4z"/>
		<path class="st3" d="M329.1,499.2l-0.4,0.4c0-0.2,0-0.3,0-0.5L329.1,499.2z"/>
		<path class="st6" d="M355.8,532.5c-0.8,0.9-1.7,1.7-2.6,2.4c-4.8,3.4-9.5,6.8-14.4,10s-9.8,6.2-14.8,9.2
			c-3.9,2.3-7.9,4.3-11.9,6.4c-0.5,0.2-1,0.3-1.5,0.3l0.5-1.5l-3.5-2.5c0.8-0.7,1.7-1.5,2.7-2.3c0.4-0.3,0.9-0.5,1.4-0.4
			c3,1.2,4.7-0.8,6.6-2.4c1.1-1.1,2.6-1.7,4.1-1.7c3.2,0.2,5.8-0.8,7.3-4c0.4-1.2,1.6-1.8,2.8-1.4c0,0,0,0,0.1,0
			c1.2,0.3,3,0.8,2.8-1.7c1.8,0.2,3-0.2,2.7-3.1l2.2,2.4c1.6-1.6,1.6-1.6-1.2-5.2c1.9-0.7,3.8-1.3,5.6-2.1c0.5-0.3,1-0.6,1.3-1.1
			c0.3-0.5,0.6-1,0.9-1.5c0.4,0.3,1,0.6,1,0.9c-0.1,0.6-0.3,1.2-0.6,1.8c0,0.1-0.1,0.2-0.4,0.7l2,0.9c0.1-0.6,0.3-1.2,0.6-1.8
			c0.5-0.9,1-1.7,1.5-2.5c0.8-1.2,1.6-0.7,2.6-0.1C354.3,532.5,355.1,532.6,355.8,532.5z"/>
		<path class="st6" d="M310.5,560.8c-2.1,1.1-4.1,2.3-6.3,3.2c-3.5,1.4-7,2.6-10.6,3.9c-0.6-2,0.8-2.9,2.3-3.5
			c1.8-0.8,3.7-1.5,5.5-2.1c0.4-0.1,0.8,0.1,1.3,0.1c1.3-0.2,2.7-0.3,4-0.5l-0.1-0.9c-1,0-1.9-0.1-2.9-0.2c-0.5-0.1-0.8-0.6-1.2-0.9
			c0.4-0.3,0.8-0.8,1.3-0.8c1.5-0.1,2.9,0,4.5,0c-0.1,0.6-0.2,1.1-0.3,1.6C309,560.7,309.8,560.7,310.5,560.8z"/>
		<path class="st6" d="M171.2,499.2c-2.9,0-2.9,0-2.9-3c0-1.2-0.7-2.8,1.7-2.8c3.4,0.1,4.1,0.5,4.1,3
			C174.1,499.1,174,499.2,171.2,499.2z"/>
		<path class="st6" d="M360.2,529.1l-4.4,3.5c0-0.4-0.1-0.9-0.2-1.3c-0.9-2.3-0.9-2.3,1.6-2.3c0.3-1.5,0.6-2.9,0.9-4.7l3.3,2.1
			c0.8-1.1,0.1-3.2,2.3-2.8c-0.7,1.2-1.3,2.3-2,3.5C361.2,527.7,360.7,528.4,360.2,529.1z"/>
		<path class="st3" d="M360.2,529.1c0.5-0.7,1-1.4,1.4-2.1c0.7-1.1,1.4-2.3,2-3.5h0.4l0.4-0.9c0-0.2,0-0.3,0-0.5l1.8-0.9
			c0.3,0.1,0.7,0.1,1,0c1.1-0.5,1.6-2.4,3.3-1.5c-0.1,0.4-0.2,0.8-0.4,1.2L360.2,529.1z"/>
		<path class="st6" d="M259.6,579.1h-6.4c0-0.1,0-0.3,0-0.4h6.4C259.6,578.9,259.6,579,259.6,579.1z"/>
		<path class="st6" d="M280.9,520.7h-4.2c0-0.2,0-0.3,0-0.4h4.2L280.9,520.7z"/>
		<path class="st6" d="M335.3,543.1l-2.6-0.4c0.1-0.3,0.1-0.6,0.2-1l2.5,0.7C335.4,542.7,335.4,542.9,335.3,543.1z"/>
		<path class="st6" d="M177.6,484.3l-1.1,1.2l-0.6-0.6l1.1-1.2L177.6,484.3z"/>
		<path class="st6" d="M302.8,556.5h2c0,0.1,0,0.3,0,0.4h-2C302.8,556.8,302.8,556.7,302.8,556.5z"/>
		<path class="st3" d="M118.5,492.2c0-0.1,0.1-0.3,0.2-0.3s0.2,0.1,0.3,0.1c0,0.1-0.1,0.3-0.2,0.3S118.6,492.2,118.5,492.2z"/>
		<path class="st6" d="M364.5,522.6l-0.4,0.9C364.2,523.2,364.4,522.9,364.5,522.6z"/>
		<path class="st1" d="M370.7,519.8c-1.7-0.9-2.2,1-3.3,1.5c-0.3,0.1-0.7,0.1-1,0l4.5-6.5h3.8C373.4,516.5,372,518.1,370.7,519.8z"
			/>
		<path class="st3" d="M388.9,498.3l0.8-0.9C389.5,497.6,389.2,498,388.9,498.3z"/>
		<path class="st6" d="M271.5,81.5c2.1-0.4,2.9,0.6,2.7,2.7c-0.1,1.9-0.1,3.8,0,5.7c0.2,6.6,0.6,13.3,0.8,20
			c-0.3-0.6-0.8-1.2-0.8-1.8c0-4.1-0.4-7.9-2.8-11.5c-1-1.5-0.3-4.2-0.3-6.4C271.2,87.4,271.4,84.4,271.5,81.5z"/>
		<path class="st3" d="M224.5,178.9c0.4-2.8,0.7-5.7,1.1-8.5c0-0.3,0.4-0.5,0.7-0.8c0.1,2.3,0.1,4.5,0,6.8
			C226.1,177.3,225.1,178.1,224.5,178.9z"/>
		<path class="st3" d="M267.1,79.8c-1.1,0.2-2.1,0.4-3.2,0.6c-0.1-0.3-0.2-0.6-0.2-0.9c1.1-0.5,2.3-1,3.4-1.5l0,0L267.1,79.8
			L267.1,79.8z"/>
		<path class="st3" d="M230.8,145.3v-5.9C232,141.3,231.8,144.2,230.8,145.3z"/>
		<path class="st3" d="M231.6,204.6l-0.5,1.5l-0.5-0.6L231.6,204.6z"/>
		<path class="st6" d="M231.6,203l-0.6-0.5l0.3-0.3l0.5,0.6C231.7,202.8,231.6,202.9,231.6,203z"/>
		<path class="st3" d="M275,199.3l-0.2-0.1L275,199.3z"/>
		<path class="st7" d="M267.1,79.8V78c1.1,0,2.2-0.1,3.3,0.1c0.4,0,0.7,0.5,1,0.8c-0.3,0.3-0.7,0.8-1,0.8
			C269.3,79.8,268.2,79.8,267.1,79.8z"/>
		<path class="st7" d="M229.2,152.1V147h0.5v5.1L229.2,152.1z"/>
		<path class="st7" d="M233.5,210.8l2.6-0.8l-1.3,1.3L233.5,210.8z"/>
		<path class="st7" d="M260.5,211.3l-0.4,0.4h-2.4c0-0.3,0-0.6,0.1-0.9L260.5,211.3z"/>
		<path class="st7" d="M262.7,210.9l-1.8,0.5L262.7,210.9z"/>
		<path class="st7" d="M245.8,211.7l-0.7,0.9l-0.4-0.5L245.8,211.7L245.8,211.7z"/>
		<path class="st7" d="M231.5,207.6c0,0.1-0.1,0.3-0.2,0.3s-0.2-0.1-0.3-0.1c0-0.1,0.1-0.3,0.2-0.3S231.4,207.6,231.5,207.6z"/>
		<path class="st3" d="M245.9,56.5h-1.1v-0.4l1.2-0.2C245.9,56.1,245.9,56.3,245.9,56.5z"/>
		<path class="st3" d="M244.8,66.3c0,0,0-0.1,0-0.1c0.1,0,0.1,0,0.2,0.1c0,0,0,0.1,0,0.1L244.8,66.3z"/>
		<path class="st6" d="M223.9,204.3c0-0.1,0-0.2-0.1-0.2h0.1C223.9,204.2,223.9,204.3,223.9,204.3z"/>
		<path class="st6" d="M225.9,206l-0.1,0.2C225.8,206.1,225.9,206,225.9,206z"/>
		<path class="st5" d="M374.3,508.1c0.1-1.2-0.7-2.9,1.5-3.1C375.3,506.1,374.8,507.1,374.3,508.1z"/>
		<path class="st5" d="M375.6,505l0.4-0.5L375.6,505z"/>
		<path class="st7" d="M259.6,590.2c-4.5-0.3-9-0.4-13.5-0.8c-3.2-0.3-6.3-1-9.5-1.6c-3.5-0.6-6.9-1.4-10.2-2.4l33.2,4.2
			L259.6,590.2z"/>
		<path class="st7" d="M205.9,574.1c0-1.8,0.6-2.3,2.3-1.2c1.3,0.6,2.5,1.3,3.6,2.1L205.9,574.1L205.9,574.1z"/>
		<path class="st7" d="M173.5,558.6l1.4,1.5l-0.5,0.5l-1.3-1.5L173.5,558.6z"/>
		<path class="st7" d="M225,584.9h-0.9v-0.2h0.9V584.9z"/>
		<path class="st4" d="M194.5,570.2l0.8,0.5l-0.1,0.2l-0.8-0.5C194.4,570.4,194.4,570.3,194.5,570.2z"/>
		<path class="st7" d="M199.8,570.5l-0.4,0.7l-0.2-0.3C199.3,570.7,199.5,570.6,199.8,570.5z"/>
		<path class="st5" d="M131.5,478.8c-3-7.1-5-14.5-6.1-22.1c0.2,0,0.4,0,0.6,0c0.4,1.5,0.7,3.1,1.1,4.6c1.2,4.3,2.5,8.5,3.6,12.8
			C131.1,475.6,131.3,477.2,131.5,478.8z"/>
		<path class="st7" d="M130.9,457.5c-0.3,2.2-0.7,4.3-1.1,7.1c-1.5-2.8-1.1-6.1,0.4-7.2L130.9,457.5z"/>
		<path class="st7" d="M136.9,478.4l-1,1.7l-0.7-0.7L136.9,478.4L136.9,478.4z"/>
		<path class="st7" d="M131.6,464.2l-0.2,1.5l-0.7-0.3L131.6,464.2L131.6,464.2z"/>
		<path class="st7" d="M317.8,517.8c0.1,3.4-3,4.6-5.9,3.6c-0.5-0.5-0.7-1.3-0.6-2c1.2-1.4,2.4-2.7,3.8-3.9c0.3-0.3,1.4-0.4,1.5-0.2
			C317.2,516.1,317.5,517,317.8,517.8z"/>
		<path class="st3" d="M365,459.7l0.1-0.2L365,459.7z"/>
		<path class="st2" d="M343.2,390.2l-1.8-1.3l-1.2,1.5c-1.9-2-1.2-4.1-0.2-6.1L343.2,390.2z"/>
		<path class="st2" d="M339.9,384.1c-2-0.8-2.7-2.4-2.9-4.4L339.9,384.1z"/>
		<path class="st4" d="M320.7,365.4l-1-0.4L320.7,365.4z"/>
		<path class="st4" d="M319.8,365l-0.3-0.2L319.8,365z"/>
		<path class="st3" d="M335.3,391.5v-5l0.5-0.1c0.4,1.3,0.8,2.6,1,3.9C336.8,390.7,335.8,391.1,335.3,391.5L335.3,391.5z"/>
		<path class="st5" d="M345.9,403.5l-0.7,0.2l-0.1-0.2L345.9,403.5L345.9,403.5z"/>
		<path class="st6" d="M250.2,454l0.8,0.5c-0.6,2.4,1.3,1.5,2.2,1.8l2.7,1.8l1.2,1.6l-2.1,0.3c0.1,0.2,0.2,0.3,0.2,0.4
			c1.1,0.5,2.7,0.2,3.4,1.9c0.2,0.5,2.2,0.2,3.3,0.1c1.5-0.1,3-0.8,4.4-0.7c2.7,0.3,5.3,1.2,8,1.5c2.6,0.1,5.2,0.1,7.8,0l-2.4-1.9
			c1.5-0.7,3-1.5,4.6-2.3c0.3-0.2,0.7-0.2,1.1,0c2.5,1.4,4.4,0.1,6.3-1.4c0.2-0.2,0.3-0.3,0.6-0.3c2.9-0.1,2-1.7,1.3-3.2l4.8-4.5
			c-1.5-0.6-1.7-1.7-0.6-2.9l0,0l2.9,3.4l0.6-0.3c-0.6-1.8-1.2-3.5-1.8-5.3l0.1-1.3l0.8-0.9l0,0c1,1,2.6,1.3,3.9,0.7l-3-2.5
			c-0.1-2.2,1.7-2.5,3.1-2.5c4.5-0.2,9-0.2,13.5,0c4.7,0.2,7,3.9,5.7,8.5c-0.2,1.2-0.2,2.5-0.1,3.7c0.1,1.7-0.4,3.3-1.3,4.7
			c-1.1,1.8-1.1,4.2-1.6,6.5l-1.2-1.4c-0.7,1.2-2.3,2.2,0.7,3c-1.8,2.3-3.8,4.2-5,6.6c-1,2.1-2.3,4.1-3.9,5.8
			c-2.3,2.3-4.5,4.8-7,6.8c-2.2,1.7-4.9,2.7-7.4,4c-0.3-0.1-0.5-0.3-0.8-0.4l-0.1,0.3l0.9,0.1c-0.2,0.4-0.5,1.2-0.6,1.2
			c-2.7-0.5-4,2.3-6.5,2.4c-1.1,0.2-2.1,0.4-3.1,0.8l-12.9,3.1c-2.3,0.3-4.6,0.6-7,0.9c-0.6,0.1-1.2,0-1.7-0.2c-3-2.3-6.2-2-9.6-1.2
			c-0.5,0.1-1.5,0.2-1.7-0.2c-1.8-2.6-5.1-1.7-7.3-3c-3-1.8-6.5-1.1-9.6-3c-1.7-1.1-3.5-1.7-4.5-3.6c-0.2-0.4-1.2-0.2-1.8-0.4
			c-0.4-0.1-0.9-0.4-0.9-0.7s0.4-0.7,0.6-1l0.9-1.4c-0.6-0.2-1.2-0.2-1.8-0.2c-1.4,0.4-2.7,1-4.1,1.4c-0.6,0.1-1.1,0-1.7-0.3
			c-0.1,0-0.2-0.7-0.1-0.8c0.5-0.3,1-0.5,1.5-0.6c0.6-0.1,1.2-0.3,1.6-0.6l-2-0.5l0.4-0.5c-1.1-1.1-2.2-2.3-3.3-3.4
			c-1.7-1.5-1.4-4.2,0.7-4.8c2.8-0.9,3.4-3,3.6-5.4c0-0.4-0.1-0.8,0-1.1c0.5-0.8,1.1-1.5,1.7-2.3c0.3,0.7,0.7,1.4,1,2.2
			c0.1,0.4,0.2,0.9,0.3,1.4c2.4-3.6,4.6-6.8,5.4-10.8c0.6-2.9-0.5-10-1.9-11c2.7-1,5.3-0.7,6.3,1c0.9-1.9,0.7-2.2-1.3-2.3
			s-4.1-0.3-6.1-0.5c-0.1-3.1-0.1-3.1,3-3.1c0.9-0.1,1.8-0.1,2.6,0.1c0.8,0.2,1.6,0.6,2.1,1.3c1.5,2.9,2.6,6,4.3,8.8
			C245.4,450.3,247,453.1,250.2,454z"/>
		<path class="st5" d="M216.6,477.5c0.1-0.5,0.2-1,0.2-1.5l0.7,0.3C217.2,476.6,216.9,477,216.6,477.5z"/>
		<path class="st6" d="M231.5,456.5l-0.2,0.3c-0.1,0-0.3-0.1-0.3-0.2s0.1-0.2,0.1-0.3L231.5,456.5z"/>
		<path class="st3" d="M301.6,440.2l3,2.5c-1.3,0.6-2.9,0.3-3.9-0.7L301.6,440.2z"/>
		<path class="st3" d="M300.7,442l-0.8,0.9c0-0.2,0-0.3-0.1-0.4L300.7,442z"/>
		<path class="st6" d="M291.2,455.8l1-1.2l0.6,0.4c-0.3,0.5-0.6,0.9-0.9,1.4L291.2,455.8z"/>
		<path class="st3" d="M299.8,444.2c0.6,1.8,1.2,3.5,1.8,5.3l-0.6,0.3l-2.9-3.4V446L299.8,444.2z"/>
		<path class="st5" d="M297.2,485.9l-0.9-0.1l0.1-0.3C296.7,485.6,296.9,485.8,297.2,485.9L297.2,485.9z"/>
		<path class="st0" d="M199.6,658.6h4.8"/>
	</g>
</g>
<g id="text">
	<g class="st8">
		<path class="st9" d="M167.1,635c1.4,2.3,2.1,4.6,2,7c0,2.4-0.8,4.8-2.4,7c-1.5,2.3-3.4,3.9-5.6,4.8c-2.2,0.9-4.6,1.2-7.3,0.7
			c-2.6-0.5-5.3-1.6-8-3.5l-5.2-3.6l-5.3,7.9l-8.5-5.8l20.4-30.1l13.8,9.3C163.7,630.7,165.8,632.7,167.1,635z M154.6,645.6
			c1.4-0.2,2.6-0.9,3.5-2.3s1.2-2.8,0.9-4.2c-0.4-1.4-1.4-2.7-3.2-3.8l-4.7-3.2l-6,8.8l4.7,3.2C151.7,645.2,153.2,645.7,154.6,645.6
			z"/>
	</g>
	<g class="st8">
		<path class="st9" d="M170.9,674.5c-2.2-2.7-3.6-5.7-4.1-9c-0.5-3.3-0.1-6.7,1.3-10c1.4-3.3,3.4-6,6.1-8c2.7-2,5.8-3.2,9.3-3.5
			c3.5-0.3,7,0.2,10.5,1.7s6.4,3.5,8.7,6.2c2.2,2.7,3.6,5.7,4.1,9c0.5,3.3,0.1,6.7-1.3,10c-1.4,3.3-3.4,6-6.1,8
			c-2.7,2-5.8,3.2-9.3,3.5c-3.5,0.3-7-0.2-10.5-1.7C176,679.2,173.1,677.1,170.9,674.5z M187.9,673.5c1.7-0.2,3.3-0.9,4.7-2
			s2.5-2.6,3.3-4.5s1.1-3.7,0.9-5.5c-0.2-1.8-0.8-3.4-1.9-4.7c-1-1.4-2.4-2.4-4.1-3.1c-1.7-0.7-3.4-0.9-5.1-0.7
			c-1.7,0.2-3.3,0.9-4.7,2c-1.4,1.1-2.5,2.6-3.3,4.5c-0.8,1.9-1.1,3.7-0.9,5.5c0.2,1.8,0.8,3.4,1.9,4.7c1,1.4,2.4,2.4,4.1,3.1
			C184.5,673.5,186.2,673.7,187.9,673.5z"/>
	</g>
	<g class="st8">
		<path class="st9" d="M215.2,654l10.1,1.9l-5.2,27.7l17.1,3.2l-1.5,8l-27.2-5.1L215.2,654z"/>
	</g>
	<g class="st8">
		<path class="st9" d="M269.8,660.5c2.6,1.3,4.7,3.3,6.1,5.9c1.5,2.6,2.2,5.7,2.3,9.4l0.2,19.7l-10.3,0.1l-0.1-8.1l-14.2,0.1
			l0.1,8.1l-10.1,0.1l-0.2-19.7c0-3.7,0.6-6.8,2.1-9.5c1.4-2.6,3.4-4.6,6-6c2.6-1.4,5.6-2.1,9.1-2.1S267.2,659.1,269.8,660.5z
			 M268,679.5l0-4.5c0-2.7-0.7-4.7-2-6c-1.3-1.3-3-2-5.2-2c-2.2,0-3.9,0.7-5.2,2.1c-1.3,1.4-1.9,3.4-1.9,6.1l0,4.5L268,679.5z"/>
	</g>
	<g class="st8">
		<path class="st9" d="M281.8,658.7l16.7-4.1c3.9-1,7.5-1.1,10.8-0.4c3.3,0.7,6.2,2.2,8.5,4.4c2.3,2.2,3.9,5.2,4.8,8.7
			c0.9,3.6,0.8,6.9-0.2,9.9c-1,3.1-2.8,5.7-5.4,7.9s-5.9,3.8-9.8,4.7l-16.7,4.1L281.8,658.7z M304.9,682c3-0.7,5.2-2.2,6.7-4.4
			c1.4-2.2,1.7-4.8,1-7.8c-0.7-3-2.3-5.2-4.5-6.4c-2.3-1.3-4.9-1.5-7.9-0.8l-6.3,1.6l4.8,19.4L304.9,682z"/>
	</g>
	<g class="st8">
		<path class="st9" d="M363.4,665.1c-1.2,1.8-2.9,3.5-5,5.2c-2.1,1.7-4.5,3.2-7.1,4.4c-3.5,1.7-6.7,2.7-9.5,3
			c-2.9,0.3-5.3,0-7.2-0.9c-1.9-0.9-3.4-2.3-4.3-4.3c-0.8-1.7-1.1-3.5-0.8-5.2c0.3-1.8,1.1-3.4,2.4-4.9c-1.6,0-3-0.5-4.2-1.3
			c-1.2-0.8-2.2-2-2.9-3.4c-0.9-1.8-1.1-3.7-0.7-5.8c0.4-2,1.6-4.1,3.5-6.1c1.9-2,4.6-3.9,8-5.5c2.2-1,4.4-1.8,6.7-2.4
			c2.3-0.6,4.4-0.9,6.3-1l0.8,8.1c-3.5,0.1-6.8,0.9-9.9,2.4c-2.2,1.1-3.7,2.1-4.5,3.2s-1,2.2-0.5,3.2c0.9,1.9,2.7,2.2,5.4,0.9
			l9.3-4.4l3.4,7.1l-9.9,4.7c-1.6,0.8-2.7,1.6-3.2,2.5c-0.6,0.9-0.6,1.9-0.1,2.9c0.5,1.1,1.5,1.6,3,1.6c1.5,0,3.5-0.6,5.9-1.8
			c1.8-0.8,3.5-2,5.2-3.4c1.7-1.4,3-2.8,4-4.3L363.4,665.1z"/>
	</g>
	<g class="st8">
		<path class="st9" d="M390.1,649.8l-12.7-4.7l0.6,13.5l-9.5,6.9l0-22.7l-20.8-7.2l9.4-6.8L369,633l-0.3-12.7l9-6.5l0,21.7l22,7.3
			L390.1,649.8z"/>
	</g>
</g>
</svg>
